<svg width="80" height="80" viewBox="0 0 80 80" fill="none" xmlns="http://www.w3.org/2000/svg">
<path d="M40 56.6667V64.6C40 70.8333 37.5 73.3333 31.2334 73.3333H15.4C9.16669 73.3333 6.66669 70.8333 6.66669 64.6V48.7667C6.66669 42.5 9.16669 40 15.4 40H23.3334V47.9C23.3334 54.1667 25.8334 56.6667 32.0667 56.6667H40Z" fill="#F6D5E6"/>
<path d="M56.6666 40V47.9C56.6666 54.1667 54.1666 56.6667 47.9 56.6667H32.0666C25.8333 56.6667 23.3333 54.1667 23.3333 47.9V32.0667C23.3333 25.8333 25.8333 23.3333 32.0666 23.3333H40V31.2333C40 37.5 42.5 40 48.7333 40H56.6666Z" fill="#E373AB"/>
<path d="M73.3333 15.4V31.2333C73.3333 37.5 70.8333 40 64.5667 40H48.7333C42.5 40 40 37.5 40 31.2333V15.4C40 9.16667 42.5 6.66667 48.7333 6.66667H64.5667C70.8333 6.66667 73.3333 9.16667 73.3333 15.4Z" fill="#B8256E"/>
</svg>
