<svg width="80" height="80" viewBox="0 0 80 80" fill="none" xmlns="http://www.w3.org/2000/svg">
<path d="M64.1334 18.6H62.8L51.5334 7.33333C50.6334 6.43333 49.1667 6.43333 48.2334 7.33333C47.3334 8.23333 47.3334 9.69999 48.2334 10.6333L56.2 18.6H23.8L31.7667 10.6333C32.6667 9.73333 32.6667 8.26666 31.7667 7.33333C30.8667 6.43333 29.4 6.43333 28.4667 7.33333L17.2334 18.6H15.9C12.9 18.6 6.66669 18.6 6.66669 27.1333C6.66669 30.3667 7.33335 32.5 8.73335 33.9C9.53335 34.7333 10.5 35.1667 11.5334 35.4C12.5 35.6333 13.5334 35.6667 14.5334 35.6667H65.4667C66.5 35.6667 67.4667 35.6 68.4 35.4C71.2 34.7333 73.3334 32.7333 73.3334 27.1333C73.3334 18.6 67.1 18.6 64.1334 18.6Z" fill="#F6D5E6"/>
<path d="M65.5 35.6667H14.5333C13.5667 35.6667 12.5 35.6333 11.5333 35.3667L15.7333 61C16.6667 66.7333 19.1667 73.3333 30.2667 73.3333H48.9667C60.2 73.3333 62.2 67.7 63.4 61.4L68.4333 35.3667C67.5 35.6 66.5 35.6667 65.5 35.6667ZM40 61.6667C32.2 61.6667 25.8333 55.3 25.8333 47.5C25.8333 46.1333 26.9667 45 28.3333 45C29.7 45 30.8333 46.1333 30.8333 47.5C30.8333 52.5667 34.9333 56.6667 40 56.6667C45.0667 56.6667 49.1667 52.5667 49.1667 47.5C49.1667 46.1333 50.3 45 51.6667 45C53.0333 45 54.1667 46.1333 54.1667 47.5C54.1667 55.3 47.8 61.6667 40 61.6667Z" fill="#B8256E"/>
</svg>
