<svg width="80" height="80" viewBox="0 0 80 80" fill="none" xmlns="http://www.w3.org/2000/svg">
<path d="M64.3333 26.3999V43.5667C64.3333 53.8334 58.4666 58.2332 49.6666 58.2332H20.3666C18.8666 58.2332 17.4333 58.1001 16.0999 57.8001C15.2666 57.6668 14.4666 57.4334 13.7333 57.1667C8.7333 55.3001 5.69995 50.9667 5.69995 43.5667V26.3999C5.69995 16.1333 11.5666 11.7334 20.3666 11.7334H49.6666C57.1333 11.7334 62.5 14.9 63.9333 22.1334C64.1666 23.4667 64.3333 24.8333 64.3333 26.3999Z" fill="#F6D5E6"/>
<path d="M74.3333 36.4V53.5667C74.3333 63.8334 68.4667 68.2333 59.6667 68.2333H30.3666C27.9 68.2333 25.6667 67.9001 23.7333 67.1668C19.7667 65.7001 17.0666 62.6668 16.1 57.8001C17.4333 58.1001 18.8666 58.2333 20.3666 58.2333H49.6667C58.4667 58.2333 64.3333 53.8334 64.3333 43.5667V26.4C64.3333 24.8333 64.2 23.4334 63.9333 22.1334C70.2667 23.4668 74.3333 27.9333 74.3333 36.4Z" fill="#B8256E"/>
<path d="M35 43.8C39.8601 43.8 43.8 39.8601 43.8 35C43.8 30.1399 39.8601 26.2 35 26.2C30.1399 26.2 26.2 30.1399 26.2 35C26.2 39.8601 30.1399 43.8 35 43.8Z" fill="#B8256E"/>
<path d="M15.9333 27.5C14.5667 27.5 13.4333 28.6333 13.4333 30V40C13.4333 41.3667 14.5667 42.5 15.9333 42.5C17.3 42.5 18.4333 41.3667 18.4333 40V30C18.4333 28.6333 17.3333 27.5 15.9333 27.5Z" fill="#B8256E"/>
<path d="M54.0333 27.5C52.6667 27.5 51.5333 28.6333 51.5333 30V40C51.5333 41.3667 52.6667 42.5 54.0333 42.5C55.4 42.5 56.5333 41.3667 56.5333 40V30C56.5333 28.6333 55.4333 27.5 54.0333 27.5Z" fill="#B8256E"/>
</svg>
