<svg width="80" height="80" viewBox="0 0 80 80" fill="none" xmlns="http://www.w3.org/2000/svg">
<path d="M30 6.66669C21.2667 6.66669 14.1667 13.7667 14.1667 22.5C14.1667 31.0667 20.8667 38 29.6 38.3C29.8667 38.2667 30.1334 38.2667 30.3334 38.3C30.4 38.3 30.4334 38.3 30.5 38.3C30.5333 38.3 30.5334 38.3 30.5667 38.3C39.1 38 45.8 31.0667 45.8334 22.5C45.8334 13.7667 38.7334 6.66669 30 6.66669Z" fill="#F6D5E6"/>
<path d="M46.9333 47.1667C37.6333 40.9667 22.4667 40.9667 13.1 47.1667C8.86666 50 6.53333 53.8333 6.53333 57.9333C6.53333 62.0333 8.86666 65.8333 13.0667 68.6333C17.7333 71.7667 23.8667 73.3333 30 73.3333C36.1333 73.3333 42.2667 71.7667 46.9333 68.6333C51.1333 65.8 53.4667 62 53.4667 57.8667C53.4333 53.7667 51.1333 49.9667 46.9333 47.1667Z" fill="#B8256E"/>
<path d="M66.6333 24.4667C67.1667 30.9333 62.5667 36.6 56.2 37.3667C56.1667 37.3667 56.1667 37.3667 56.1333 37.3667H56.0333C55.8333 37.3667 55.6333 37.3667 55.4667 37.4333C52.2333 37.6 49.2667 36.5667 47.0333 34.6667C50.4667 31.6 52.4333 27 52.0333 22C51.8 19.3 50.8667 16.8333 49.4667 14.7333C50.7333 14.1 52.2 13.7 53.7 13.5667C60.2333 13 66.0667 17.8667 66.6333 24.4667Z" fill="#F6D5E6"/>
<path d="M73.3 55.3C73.0333 58.5333 70.9666 61.3333 67.5 63.2333C64.1666 65.0667 59.9666 65.9333 55.8 65.8333C58.2 63.6667 59.6 60.9667 59.8666 58.1C60.2 53.9667 58.2333 50 54.3 46.8333C52.0666 45.0667 49.4666 43.6667 46.6333 42.6333C54 40.5 63.2666 41.9333 68.9666 46.5333C72.0333 49 73.6 52.1 73.3 55.3Z" fill="#B8256E"/>
</svg>
