<svg width="80" height="80" viewBox="0 0 80 80" fill="none" xmlns="http://www.w3.org/2000/svg">
<path d="M73.3333 20V28.0667C73.3333 33.3333 70 36.6667 64.7333 36.6667H53.3333V13.3667C53.3333 9.66665 56.3666 6.63332 60.0666 6.66665C63.7 6.69999 67.0333 8.16665 69.4333 10.5667C71.8333 13 73.3333 16.3333 73.3333 20Z" fill="#B8256E"/>
<path d="M6.66669 23.3333V70C6.66669 72.7666 9.80002 74.3333 12 72.6666L17.7 68.4C19.0334 67.4 20.9 67.5333 22.1 68.7333L27.6334 74.3C28.9334 75.6 31.0667 75.6 32.3667 74.3L37.9667 68.7C39.1334 67.5333 41 67.4 42.3 68.4L48 72.6666C50.2 74.3 53.3334 72.7333 53.3334 70V13.3333C53.3334 9.66663 56.3334 6.66663 60 6.66663H23.3334H20C10 6.66663 6.66669 12.6333 6.66669 20V23.3333Z" fill="#F6D5E6"/>
<path d="M40 40.8666H30C28.6333 40.8666 27.5 41.9999 27.5 43.3666C27.5 44.7332 28.6333 45.8666 30 45.8666H40C41.3667 45.8666 42.5 44.7332 42.5 43.3666C42.5 41.9999 41.3667 40.8666 40 40.8666Z" fill="#B8256E"/>
<path d="M30 32.5333H40C41.3667 32.5333 42.5 31.4 42.5 30.0333C42.5 28.6667 41.3667 27.5333 40 27.5333H30C28.6333 27.5333 27.5 28.6667 27.5 30.0333C27.5 31.4 28.6333 32.5333 30 32.5333Z" fill="#B8256E"/>
<path d="M19.9 26.7C18.0333 26.7 16.5667 28.2 16.5667 30.0333C16.5667 31.8666 18.0667 33.3666 19.9 33.3666C21.7333 33.3666 23.2333 31.8666 23.2333 30.0333C23.2333 28.2 21.7333 26.7 19.9 26.7Z" fill="#B8256E"/>
<path d="M19.9 40.0333C18.0333 40.0333 16.5667 41.5333 16.5667 43.3667C16.5667 45.2 18.0667 46.7 19.9 46.7C21.7333 46.7 23.2333 45.2 23.2333 43.3667C23.2333 41.5333 21.7333 40.0333 19.9 40.0333Z" fill="#B8256E"/>
</svg>
