<svg width="80" height="80" viewBox="0 0 80 80" fill="none" xmlns="http://www.w3.org/2000/svg">
<path d="M67.8667 42.4333C66.6334 42.4333 65.6 41.5 65.4667 40.2667C64.6667 32.9333 60.7334 26.3333 54.6667 22.1333C53.5667 21.3667 53.3 19.8667 54.0667 18.7667C54.8334 17.6667 56.3334 17.4 57.4334 18.1667C64.6667 23.2 69.3334 31.0667 70.3 39.7667C70.4334 41.1 69.4667 42.3 68.1334 42.4333C68.0334 42.4333 67.9667 42.4333 67.8667 42.4333Z" fill="#F6D5E6"/>
<path d="M12.4667 42.5999C12.4 42.5999 12.3 42.5999 12.2333 42.5999C10.9 42.4666 9.93334 41.2666 10.0667 39.9333C10.9667 31.2333 15.5667 23.3666 22.7333 18.2999C23.8 17.5333 25.3333 17.7999 26.1 18.8666C26.8667 19.9666 26.6 21.4666 25.5333 22.2333C19.5333 26.4999 15.6333 33.0999 14.9 40.3999C14.7667 41.6666 13.7 42.5999 12.4667 42.5999Z" fill="#F6D5E6"/>
<path d="M53.3 70.3333C49.2 72.3 44.8 73.3 40.2 73.3C35.4 73.3 30.8333 72.2333 26.5666 70.0666C25.3666 69.5 24.9 68.0333 25.5 66.8333C26.0666 65.6333 27.5333 65.1666 28.7333 65.7333C30.8333 66.8 33.0666 67.5333 35.3333 67.9666C38.4 68.5666 41.5333 68.6 44.6 68.0666C46.8666 67.6666 49.1 66.9666 51.1666 65.9666C52.4 65.4 53.8666 65.8666 54.4 67.1C55 68.3 54.5333 69.7666 53.3 70.3333Z" fill="#F6D5E6"/>
<path d="M40.1667 6.69995C35 6.69995 30.7667 10.9 30.7667 16.1C30.7667 21.3 34.9667 25.5 40.1667 25.5C45.3667 25.5 49.5667 21.3 49.5667 16.1C49.5667 10.9 45.3667 6.69995 40.1667 6.69995Z" fill="#B8256E"/>
<path d="M16.8334 46.2333C11.6667 46.2333 7.43335 50.4333 7.43335 55.6333C7.43335 60.8333 11.6334 65.0333 16.8334 65.0333C22.0333 65.0333 26.2333 60.8333 26.2333 55.6333C26.2333 50.4333 22 46.2333 16.8334 46.2333Z" fill="#B8256E"/>
<path d="M63.1667 46.2333C58 46.2333 53.7667 50.4333 53.7667 55.6333C53.7667 60.8333 57.9667 65.0333 63.1667 65.0333C68.3667 65.0333 72.5667 60.8333 72.5667 55.6333C72.5667 50.4333 68.3667 46.2333 63.1667 46.2333Z" fill="#B8256E"/>
</svg>
