<svg width="80" height="80" viewBox="0 0 80 80" fill="none" xmlns="http://www.w3.org/2000/svg">
<path d="M11.6667 16.8667V63.1334C11.6667 64.5 10.5334 65.6334 9.16669 65.6334C7.80002 65.6334 6.66669 64.5 6.66669 63.1334V16.8667C6.66669 15.5 7.80002 14.3667 9.16669 14.3667C10.5334 14.3667 11.6667 15.5 11.6667 16.8667Z" fill="#B8256E"/>
<path d="M73.3333 16.8667V63.1334C73.3333 64.5 72.2 65.6334 70.8333 65.6334C69.4666 65.6334 68.3333 64.5 68.3333 63.1334V16.8667C68.3333 15.5 69.4666 14.3667 70.8333 14.3667C72.2 14.3667 73.3333 15.5 73.3333 16.8667Z" fill="#B8256E"/>
<path d="M25.3333 70.8333H54.6666C60.2 70.8333 64.6666 66.3666 64.6666 60.8333V19.1666C64.6666 13.6333 60.2 9.16663 54.6666 9.16663H25.3333C19.8 9.16663 15.3333 13.6333 15.3333 19.1666V60.8333C15.3333 66.3666 19.8 70.8333 25.3333 70.8333Z" fill="#F6D5E6"/>
</svg>
