<svg width="80" height="80" viewBox="0 0 80 80" fill="none" xmlns="http://www.w3.org/2000/svg">
<path d="M51.3001 17.3667L56 26.7667C56.6333 28.0667 58.3333 29.3 59.7667 29.5667L68.2667 30.9667C73.7001 31.8667 74.9667 35.8 71.0667 39.7333L64.4333 46.3667C63.3333 47.4667 62.7001 49.6333 63.0667 51.2L64.9667 59.4C66.4667 65.8667 63 68.4 57.3 65L49.3333 60.2667C47.9 59.4 45.5 59.4 44.0667 60.2667L36.1 65C30.4 68.3667 26.9333 65.8667 28.4333 59.4L30.3334 51.2C30.7 49.6667 30.0667 47.5 28.9667 46.3667L22.3334 39.7333C18.4334 35.8333 19.7 31.9 25.1334 30.9667L33.6333 29.5667C35.0667 29.3333 36.7667 28.0667 37.4 26.7667L42.1 17.3667C44.6 12.2667 48.7334 12.2667 51.3001 17.3667Z" fill="#B8256E"/>
<path d="M26.6667 19.1667H6.66669C5.30002 19.1667 4.16669 18.0333 4.16669 16.6667C4.16669 15.3 5.30002 14.1667 6.66669 14.1667H26.6667C28.0334 14.1667 29.1667 15.3 29.1667 16.6667C29.1667 18.0333 28.0334 19.1667 26.6667 19.1667Z" fill="#F6D5E6"/>
<path d="M16.6667 65.8333H6.66669C5.30002 65.8333 4.16669 64.7 4.16669 63.3333C4.16669 61.9667 5.30002 60.8333 6.66669 60.8333H16.6667C18.0334 60.8333 19.1667 61.9667 19.1667 63.3333C19.1667 64.7 18.0334 65.8333 16.6667 65.8333Z" fill="#F6D5E6"/>
<path d="M10 42.5H6.66669C5.30002 42.5 4.16669 41.3667 4.16669 40C4.16669 38.6333 5.30002 37.5 6.66669 37.5H10C11.3667 37.5 12.5 38.6333 12.5 40C12.5 41.3667 11.3667 42.5 10 42.5Z" fill="#F6D5E6"/>
</svg>
