<svg width="80" height="80" viewBox="0 0 80 80" fill="none" xmlns="http://www.w3.org/2000/svg">
<path d="M13.9 51L29 66.1C35.2 72.3 45.2667 72.3 51.5 66.1L66.1333 51.4667C72.3333 45.2667 72.3333 35.2 66.1333 28.9667L51 13.9C47.8333 10.7333 43.4667 9.03334 39 9.26668L22.3333 10.0667C15.6667 10.3667 10.3667 15.6667 10.0333 22.3L9.23332 38.9667C9.03332 43.4667 10.7333 47.8333 13.9 51Z" fill="#F6D5E6"/>
<path d="M31.6667 41.2667C36.9686 41.2667 41.2667 36.9686 41.2667 31.6667C41.2667 26.3647 36.9686 22.0667 31.6667 22.0667C26.3647 22.0667 22.0667 26.3647 22.0667 31.6667C22.0667 36.9686 26.3647 41.2667 31.6667 41.2667Z" fill="#B8256E"/>
<path d="M43.3333 59.1667C42.7 59.1667 42.0667 58.9333 41.5667 58.4333C40.6 57.4667 40.6 55.8667 41.5667 54.9L54.9 41.5667C55.8667 40.6 57.4667 40.6 58.4333 41.5667C59.4 42.5333 59.4 44.1333 58.4333 45.1L45.1 58.4333C44.6 58.9333 43.9667 59.1667 43.3333 59.1667Z" fill="#B8256E"/>
</svg>
