<svg width="80" height="80" viewBox="0 0 80 80" fill="none" xmlns="http://www.w3.org/2000/svg">
<path d="M66.6667 64.2H36.4333C34.9333 64.2 33.7 62.9667 33.7 61.4667C33.7 59.9667 34.9333 58.7333 36.4333 58.7333H66.6667C68.1667 58.7333 69.4 59.9667 69.4 61.4667C69.4 63 68.1667 64.2 66.6667 64.2Z" fill="#B8256E"/>
<path d="M66.6667 43.2333H36.4333C34.9333 43.2333 33.7 42 33.7 40.5C33.7 39 34.9333 37.7667 36.4333 37.7667H66.6667C68.1667 37.7667 69.4 39 69.4 40.5C69.4 42 68.1667 43.2333 66.6667 43.2333Z" fill="#B8256E"/>
<path d="M66.6667 22.2333H36.4333C34.9333 22.2333 33.7 21 33.7 19.5C33.7 18 34.9333 16.7667 36.4333 16.7667H66.6667C68.1667 16.7667 69.4 18 69.4 19.5C69.4 21 68.1667 22.2333 66.6667 22.2333Z" fill="#B8256E"/>
<path d="M16.3666 26.7667C15.6333 26.7667 14.9333 26.4667 14.4333 25.9667L11.4 22.9333C10.3333 21.8667 10.3333 20.1333 11.4 19.0667C12.4666 18 14.2 18 15.2666 19.0667L16.3666 20.1667L23.5 13.0333C24.5666 11.9667 26.3 11.9667 27.3666 13.0333C28.4333 14.1 28.4333 15.8333 27.3666 16.9L18.3 25.9667C17.7666 26.4667 17.1 26.7667 16.3666 26.7667Z" fill="#F6D5E6"/>
<path d="M16.3666 47.7667C15.6666 47.7667 14.9666 47.5 14.4333 46.9667L11.4 43.9333C10.3333 42.8667 10.3333 41.1333 11.4 40.0667C12.4666 39 14.2 39 15.2666 40.0667L16.3666 41.1667L23.5 34.0333C24.5666 32.9667 26.3 32.9667 27.3666 34.0333C28.4333 35.1 28.4333 36.8333 27.3666 37.9L18.3 46.9667C17.7666 47.5 17.0666 47.7667 16.3666 47.7667Z" fill="#F6D5E6"/>
<path d="M16.3666 67.7667C15.6666 67.7667 14.9666 67.5 14.4333 66.9667L11.4 63.9333C10.3333 62.8667 10.3333 61.1333 11.4 60.0667C12.4666 59 14.2 59 15.2666 60.0667L16.3666 61.1667L23.5 54.0333C24.5666 52.9667 26.3 52.9667 27.3666 54.0333C28.4333 55.1 28.4333 56.8333 27.3666 57.9L18.3 66.9667C17.7666 67.5 17.0666 67.7667 16.3666 67.7667Z" fill="#F6D5E6"/>
</svg>
