<svg width="80" height="80" viewBox="0 0 80 80" fill="none" xmlns="http://www.w3.org/2000/svg">
<path d="M73.3333 30.7V49.3C73.3333 62.9666 69.1667 67.1333 55.5 67.1333H33.0333V57.0666C33.0333 55.8 31.9667 54.7333 30.7 54.7333V25.2666C31.9667 25.2666 33.0333 24.2 33.0333 22.9333V12.8666H55.5C69.1667 12.8666 73.3333 17.0333 73.3333 30.7Z" fill="#F6D5E6"/>
<path d="M61.5667 39.6667C62.1333 39.1333 62.3333 38.3 62.1 37.5667C61.8667 36.8 61.2333 36.2667 60.4333 36.1667L56.1667 35.5333C56 35.5 55.8667 35.4 55.8 35.2667L53.9 31.4C53.5667 30.7 52.8333 30.2667 52.0667 30.2667C51.2667 30.2667 50.5667 30.7 50.2 31.4L48.3 35.2667C48.2333 35.4333 48.0667 35.5333 47.9 35.5333L43.6333 36.1667C42.8667 36.2667 42.2 36.8333 41.9667 37.5667C41.7333 38.3333 41.9333 39.1333 42.5 39.6667L45.6 42.6667C45.7333 42.7667 45.7667 42.9667 45.7333 43.1333L45 47.3667C44.8667 48.1333 45.1667 48.9333 45.8333 49.3667C46.2 49.6333 46.6 49.7667 47.0333 49.7667C47.3667 49.7667 47.7 49.7 48 49.5333L51.8333 47.5333C51.9667 47.4667 52.1667 47.4667 52.3 47.5333L56.1333 49.5333C56.8333 49.9 57.6667 49.8333 58.3 49.3667C58.9333 48.9 59.2667 48.1333 59.1333 47.3333L58.4 43.1C58.3667 42.9333 58.4333 42.7667 58.5333 42.6333L61.5667 39.6667Z" fill="#B8256E"/>
<path d="M30.7 25.2666V54.7333C29.4333 54.7333 28.3667 55.8 28.3667 57.0666V67.1333H24.5C11.3333 67.1333 7.00001 63.2 6.70001 50.9333C6.66667 50.3 6.93334 49.7 7.36667 49.2666C7.80001 48.8 8.43334 48.5666 9.03334 48.5666C13.7 48.5666 17.5333 44.7333 17.5333 40.0333C17.5333 35.3333 13.7 31.4666 9.03334 31.4666C8.36667 31.4666 7.80001 31.2333 7.36667 30.7666C6.93334 30.3333 6.66667 29.7 6.70001 29.1C7.00001 16.8 11.3333 12.8666 24.5 12.8666H28.3667V22.9333C28.3667 24.2333 29.4333 25.2666 30.7 25.2666Z" fill="#B8256E"/>
</svg>
