<svg width="80" height="80" viewBox="0 0 80 80" fill="none" xmlns="http://www.w3.org/2000/svg">
<path d="M53.9667 6.66666H26.0334C13.9 6.66666 6.66669 13.9 6.66669 26.0333V53.9333C6.66669 66.1 13.9 73.3333 26.0334 73.3333H53.9334C66.0667 73.3333 73.3 66.1 73.3 53.9667V26.0333C73.3334 13.9 66.1 6.66666 53.9667 6.66666Z" fill="#F6D5E6"/>
<path d="M56.1 31.3667C55.8667 30.8 55.4 30.3333 54.8334 30.1C54.5667 30 54.2667 29.9333 53.9667 29.9333H47.7667C46.4667 29.9333 45.4334 30.9667 45.4334 32.2667C45.4334 33.5667 46.4667 34.6 47.7667 34.6H48.3667L41.3334 41.6333L37.9334 36.5667C37.5334 36 36.9334 35.6 36.2334 35.5333C35.5 35.4667 34.8667 35.7 34.3667 36.2L24.4334 46.1333C23.5334 47.0333 23.5334 48.5 24.4334 49.4333C24.9 49.9 25.4667 50.1 26.0667 50.1C26.6667 50.1 27.2667 49.8667 27.7 49.4333L35.6334 41.5L39.0334 46.5667C39.4334 47.1333 40.0334 47.5333 40.7334 47.6C41.4667 47.6667 42.1 47.4333 42.6 46.9333L51.6667 37.8667V38.4667C51.6667 39.7667 52.7 40.8 54 40.8C55.3 40.8 56.3334 39.7667 56.3334 38.4667V32.2333C56.2667 31.9333 56.2334 31.6333 56.1 31.3667Z" fill="#B8256E"/>
</svg>
