<svg width="20" height="20" viewBox="0 0 20 20" fill="none" xmlns="http://www.w3.org/2000/svg">
<path d="M10 7.5H4.00836L6.69169 4.81666C6.7531 4.75944 6.80235 4.69044 6.83651 4.61378C6.87067 4.53711 6.88904 4.45435 6.89052 4.37043C6.892 4.28651 6.87656 4.20315 6.84513 4.12533C6.81369 4.04751 6.76691 3.97681 6.70756 3.91747C6.64821 3.85812 6.57752 3.81133 6.49969 3.77989C6.42187 3.74846 6.33851 3.73302 6.25459 3.7345C6.17067 3.73598 6.08791 3.75435 6.01125 3.78851C5.93458 3.82267 5.86558 3.87192 5.80836 3.93333L2.05836 7.68333C2.0289 7.7126 2.00238 7.7447 1.97919 7.77916C1.97954 7.78158 1.97954 7.78404 1.97919 7.78646C1.95804 7.81931 1.94024 7.85421 1.92607 7.89062V7.89895C1.91229 7.93267 1.90148 7.96752 1.89378 8.00312C1.89426 8.00518 1.89426 8.00732 1.89378 8.00937C1.88712 8.04721 1.88364 8.08554 1.88336 8.12395C1.88359 8.16237 1.88707 8.20071 1.89378 8.23854C1.89428 8.24094 1.89428 8.24343 1.89378 8.24583C1.90159 8.2814 1.9124 8.31624 1.92607 8.35V8.35729C1.9403 8.39368 1.95809 8.42857 1.97919 8.46145V8.4677C2.00237 8.50249 2.02888 8.53494 2.05836 8.56458L5.80836 12.3146C5.92555 12.4316 6.0844 12.4974 6.25003 12.4974C6.41565 12.4974 6.5745 12.4316 6.69169 12.3146C6.80873 12.1974 6.87448 12.0385 6.87448 11.8729C6.87448 11.7073 6.80873 11.5484 6.69169 11.4312L4.00836 8.74791H10C11.8227 8.75012 13.5701 9.47515 14.8589 10.764C16.1478 12.0528 16.8728 13.8002 16.875 15.6229C16.875 15.7887 16.9409 15.9476 17.0581 16.0649C17.1753 16.1821 17.3343 16.2479 17.5 16.2479C17.6658 16.2479 17.8248 16.1821 17.942 16.0649C18.0592 15.9476 18.125 15.7887 18.125 15.6229C18.122 13.4692 17.2649 11.4045 15.7418 9.88176C14.2187 8.35901 12.1538 7.50248 10 7.5Z" fill="#666666"/>
</svg>
