<svg width="20" height="20" viewBox="0 0 20 20" fill="none" xmlns="http://www.w3.org/2000/svg">
<path d="M18.0406 8.12708C18.0615 8.09409 18.0793 8.05922 18.0937 8.02291V8.01458C18.1071 7.9808 18.1175 7.94595 18.125 7.91041C18.1256 7.90802 18.1256 7.90552 18.125 7.90312C18.1325 7.86609 18.1364 7.8284 18.1364 7.79062V4.04062C18.1364 3.87486 18.0706 3.71589 17.9534 3.59868C17.8362 3.48147 17.6772 3.41562 17.5114 3.41562C17.3457 3.41562 17.1867 3.48147 17.0695 3.59868C16.9523 3.71589 16.8864 3.87486 16.8864 4.04062V6.28437L15.2948 4.69166C13.8877 3.28939 11.9818 2.50262 9.99535 2.50398C8.00887 2.50535 6.10406 3.29475 4.69895 4.69895C4.64017 4.75685 4.59344 4.82581 4.56145 4.90186C4.52945 4.97791 4.51284 5.05954 4.51255 5.14204C4.51226 5.22454 4.52831 5.30629 4.55978 5.38256C4.59124 5.45882 4.63749 5.52811 4.69587 5.58641C4.75424 5.64472 4.82358 5.69089 4.89988 5.72226C4.97619 5.75363 5.05795 5.76959 5.14045 5.7692C5.22295 5.76882 5.30457 5.75211 5.38058 5.72003C5.45659 5.68794 5.52549 5.64113 5.58332 5.58229C6.75325 4.41352 8.33871 3.75607 9.99241 3.75392C11.6461 3.75177 13.2333 4.40511 14.4062 5.57083L14.4187 5.58333L16.0042 7.16458H13.7656C13.5999 7.16458 13.4409 7.23043 13.3237 7.34764C13.2065 7.46485 13.1406 7.62382 13.1406 7.78958C13.1406 7.95534 13.2065 8.11431 13.3237 8.23152C13.4409 8.34873 13.5999 8.41458 13.7656 8.41458H17.5156C17.5541 8.41448 17.5925 8.41064 17.6302 8.40312H17.6364C17.672 8.39525 17.7068 8.38445 17.7406 8.37083H17.7479C17.7842 8.35637 17.8191 8.33859 17.8521 8.3177H17.8583C17.893 8.29484 17.9251 8.26829 17.9542 8.23854C17.9832 8.20958 18.0094 8.17783 18.0323 8.14374L18.0406 8.12708Z" fill="#666666"/>
<path d="M14.4167 14.4177C13.2458 15.5874 11.6589 16.2449 10.0039 16.2461C8.3489 16.2472 6.76102 15.592 5.58853 14.424L5.58124 14.4167L3.99582 12.8365H6.23957C6.40533 12.8365 6.5643 12.7706 6.68151 12.6534C6.79872 12.5362 6.86457 12.3772 6.86457 12.2115C6.86457 12.0457 6.79872 11.8867 6.68151 11.7695C6.5643 11.6523 6.40533 11.5865 6.23957 11.5865H2.48957C2.45184 11.5867 2.41421 11.5902 2.37707 11.5969H2.36978C2.3342 11.6046 2.29935 11.6154 2.26561 11.6292H2.25728C2.22087 11.6433 2.18597 11.6611 2.15311 11.6823H2.14582C2.11136 11.7055 2.07926 11.732 2.04999 11.7615C2.0212 11.7904 1.99538 11.8222 1.9729 11.8562V11.8635C1.95272 11.8968 1.93531 11.9316 1.92082 11.9677V11.976C1.90715 12.0098 1.89635 12.0446 1.88853 12.0802C1.88853 12.0802 1.88853 12.0802 1.88853 12.0865C1.88187 12.1243 1.87839 12.1626 1.87811 12.201V15.951C1.87811 16.1168 1.94396 16.2758 2.06117 16.393C2.17838 16.5102 2.33735 16.576 2.50311 16.576C2.66887 16.576 2.82784 16.5102 2.94505 16.393C3.06226 16.2758 3.12811 16.1168 3.12811 15.951V13.7198L4.71457 15.3021L4.72499 15.3115C6.13167 16.7076 8.03378 17.4902 10.0157 17.4882C11.9976 17.4863 13.8981 16.6999 15.3021 15.301C15.3608 15.2431 15.4076 15.1742 15.4396 15.0981C15.4716 15.0221 15.4882 14.9405 15.4885 14.858C15.4888 14.7754 15.4727 14.6937 15.4412 14.6174C15.4098 14.5412 15.3635 14.4719 15.3052 14.4136C15.2468 14.3553 15.1774 14.3091 15.1011 14.2777C15.0248 14.2464 14.9431 14.2304 14.8606 14.2308C14.7781 14.2312 14.6965 14.2479 14.6204 14.28C14.5444 14.312 14.4755 14.3589 14.4177 14.4177H14.4167Z" fill="#666666"/>
</svg>
