<svg width="20" height="20" viewBox="0 0 20 20" fill="none" xmlns="http://www.w3.org/2000/svg">
<path d="M18.0208 8.47084V8.46459C18.0423 8.43173 18.0604 8.39684 18.075 8.36042C18.0755 8.35801 18.0755 8.35554 18.075 8.35313C18.0892 8.31956 18.1 8.28467 18.1073 8.24896C18.1079 8.24729 18.1079 8.24543 18.1073 8.24375C18.1148 8.20567 18.1187 8.16695 18.1187 8.12813C18.1187 8.08965 18.1148 8.05128 18.1073 8.01355C18.1078 8.01149 18.1078 8.00935 18.1073 8.0073C18.1001 7.97158 18.0892 7.93668 18.075 7.90313C18.0755 7.90037 18.0755 7.89755 18.075 7.89479C18.0602 7.85848 18.042 7.82361 18.0208 7.79063V7.78438C17.997 7.74977 17.9702 7.71735 17.9406 7.6875L14.1906 3.9375C14.0721 3.8271 13.9154 3.767 13.7535 3.76986C13.5916 3.77271 13.4371 3.83831 13.3226 3.95282C13.2081 4.06733 13.1425 4.22182 13.1396 4.38373C13.1368 4.54565 13.1969 4.70236 13.3073 4.82084L15.9896 7.50417H10C7.84588 7.50665 5.78069 8.36347 4.2575 9.88667C2.7343 11.4099 1.87748 13.475 1.875 15.6292C1.875 15.7949 1.94085 15.9539 2.05806 16.0711C2.17527 16.1883 2.33424 16.2542 2.5 16.2542C2.66576 16.2542 2.82473 16.1883 2.94194 16.0711C3.05915 15.9539 3.125 15.7949 3.125 15.6292C3.12721 13.8065 3.85224 12.0591 5.14108 10.7702C6.42991 9.48141 8.17731 8.75637 10 8.75417H15.9906L13.3083 11.4333C13.2469 11.4906 13.1977 11.5596 13.1635 11.6362C13.1294 11.7129 13.111 11.7957 13.1095 11.8796C13.108 11.9635 13.1235 12.0468 13.1549 12.1247C13.1863 12.2025 13.2331 12.2732 13.2925 12.3325C13.3518 12.3919 13.4225 12.4387 13.5003 12.4701C13.5782 12.5015 13.6615 12.517 13.7454 12.5155C13.8294 12.514 13.9121 12.4956 13.9888 12.4615C14.0654 12.4273 14.1344 12.3781 14.1917 12.3167L17.9417 8.56667C17.9713 8.53755 17.9978 8.50543 18.0208 8.47084Z" fill="#666666"/>
</svg>
