<svg width="20" height="20" viewBox="0 0 20 20" fill="none" xmlns="http://www.w3.org/2000/svg">
<path d="M16.8635 3.63541V3.62916C16.8554 3.59368 16.8446 3.55886 16.8312 3.52499V3.51666C16.8164 3.48057 16.7986 3.44574 16.7781 3.4125C16.7778 3.41042 16.7778 3.40832 16.7781 3.40625C16.7312 3.33749 16.6719 3.27812 16.6031 3.23124H16.5958C16.5627 3.21051 16.5279 3.19273 16.4917 3.17812H16.4844C16.4504 3.16493 16.4156 3.15414 16.3802 3.14583H16.375C16.3369 3.1383 16.2982 3.13446 16.2594 3.13437H12.5C12.3342 3.13437 12.1753 3.20022 12.0581 3.31743C11.9408 3.43464 11.875 3.59361 11.875 3.75937C11.875 3.92513 11.9408 4.0841 12.0581 4.20131C12.1753 4.31852 12.3342 4.38437 12.5 4.38437H14.7417L11.4333 7.6927C11.3719 7.74992 11.3227 7.81892 11.2885 7.89559C11.2544 7.97225 11.236 8.05502 11.2345 8.13893C11.233 8.22285 11.2485 8.30621 11.2799 8.38403C11.3113 8.46186 11.3581 8.53255 11.4175 8.5919C11.4768 8.65125 11.5475 8.69804 11.6253 8.72947C11.7032 8.76091 11.7865 8.77634 11.8704 8.77486C11.9544 8.77338 12.0371 8.75501 12.1138 8.72085C12.1904 8.68669 12.2594 8.63744 12.3167 8.57604L15.625 5.26041V7.49999C15.625 7.66575 15.6908 7.82473 15.8081 7.94194C15.9253 8.05915 16.0842 8.12499 16.25 8.12499C16.4158 8.12499 16.5747 8.05915 16.6919 7.94194C16.8092 7.82473 16.875 7.66575 16.875 7.49999V3.74999C16.875 3.71152 16.8711 3.67314 16.8635 3.63541Z" fill="#666666"/>
<path d="M7.68333 11.4333L4.375 14.7396V12.5C4.375 12.3342 4.30915 12.1753 4.19194 12.0581C4.07473 11.9408 3.91576 11.875 3.75 11.875C3.58424 11.875 3.42527 11.9408 3.30806 12.0581C3.19085 12.1753 3.125 12.3342 3.125 12.5V16.25C3.12504 16.2885 3.12888 16.3269 3.13646 16.3646V16.3708C3.14461 16.4063 3.1554 16.4411 3.16875 16.475V16.4833C3.18336 16.5195 3.20114 16.5544 3.22187 16.5875V16.5948C3.26875 16.6635 3.32811 16.7229 3.39688 16.7698H3.40417C3.43726 16.7905 3.47212 16.8083 3.50833 16.8229H3.51667C3.55053 16.8363 3.58535 16.8471 3.62083 16.8552H3.62708C3.66481 16.8628 3.70319 16.8666 3.74167 16.8667H7.49167C7.65743 16.8667 7.8164 16.8008 7.93361 16.6836C8.05082 16.5664 8.11667 16.4074 8.11667 16.2417C8.11667 16.0759 8.05082 15.9169 7.93361 15.7997C7.8164 15.6825 7.65743 15.6167 7.49167 15.6167H5.25833L8.56667 12.3083C8.67707 12.1898 8.73717 12.0331 8.73431 11.8712C8.73145 11.7093 8.66586 11.5548 8.55135 11.4403C8.43684 11.3258 8.28235 11.2602 8.12043 11.2573C7.95852 11.2545 7.80181 11.3146 7.68333 11.425V11.4333Z" fill="#666666"/>
</svg>
