<svg width="20" height="20" viewBox="0 0 20 20" fill="none" xmlns="http://www.w3.org/2000/svg">
<path d="M17.9417 8.93333L10.4417 1.43333C10.3836 1.37522 10.3147 1.32913 10.2388 1.29767C10.1629 1.26622 10.0816 1.25003 9.99948 1.25003C9.91735 1.25003 9.83602 1.26622 9.76015 1.29767C9.68427 1.32913 9.61534 1.37522 9.5573 1.43333L2.0573 8.93333C1.96994 9.0208 1.91048 9.13221 1.88644 9.25348C1.8624 9.37474 1.87487 9.50041 1.92226 9.61458C1.96964 9.72876 2.04983 9.82632 2.15267 9.89493C2.25551 9.96353 2.37638 10.0001 2.5 10H5.625V11.875C5.625 12.0408 5.69085 12.1997 5.80806 12.3169C5.92527 12.4342 6.08424 12.5 6.25 12.5H13.75C13.9158 12.5 14.0747 12.4342 14.1919 12.3169C14.3092 12.1997 14.375 12.0408 14.375 11.875V10H17.5C17.6235 9.99989 17.7443 9.96318 17.8469 9.89449C17.9496 9.82581 18.0297 9.72824 18.0769 9.6141C18.1242 9.49997 18.1365 9.37439 18.1125 9.25322C18.0884 9.13205 18.029 9.02074 17.9417 8.93333ZM13.75 8.75C13.5842 8.75 13.4253 8.81585 13.3081 8.93306C13.1909 9.05027 13.125 9.20924 13.125 9.375V11.25H6.875V9.375C6.875 9.20924 6.80916 9.05027 6.69195 8.93306C6.57474 8.81585 6.41577 8.75 6.25 8.75H4.00834L10 2.75938L15.9906 8.75H13.75Z" fill="#666666"/>
<path d="M13.75 16.25H6.25C6.08424 16.25 5.92527 16.3159 5.80806 16.4331C5.69085 16.5503 5.625 16.7092 5.625 16.875C5.625 17.0408 5.69085 17.1997 5.80806 17.3169C5.92527 17.4342 6.08424 17.5 6.25 17.5H13.75C13.9158 17.5 14.0747 17.4342 14.1919 17.3169C14.3092 17.1997 14.375 17.0408 14.375 16.875C14.375 16.7092 14.3092 16.5503 14.1919 16.4331C14.0747 16.3159 13.9158 16.25 13.75 16.25Z" fill="#666666"/>
<path d="M13.75 13.75H6.25C6.08424 13.75 5.92527 13.8159 5.80806 13.9331C5.69085 14.0503 5.625 14.2092 5.625 14.375C5.625 14.5408 5.69085 14.6997 5.80806 14.8169C5.92527 14.9342 6.08424 15 6.25 15H13.75C13.9158 15 14.0747 14.9342 14.1919 14.8169C14.3092 14.6997 14.375 14.5408 14.375 14.375C14.375 14.2092 14.3092 14.0503 14.1919 13.9331C14.0747 13.8159 13.9158 13.75 13.75 13.75Z" fill="#666666"/>
</svg>
