<svg width="20" height="20" viewBox="0 0 20 20" fill="none" xmlns="http://www.w3.org/2000/svg">
<path d="M17.3167 13.3083C17.1995 13.1913 17.0406 13.1255 16.875 13.1255C16.7094 13.1255 16.5505 13.1913 16.4333 13.3083L13.75 15.9896V6.875C13.75 5.54892 13.2232 4.27715 12.2855 3.33947C11.3479 2.40178 10.0761 1.875 8.75 1.875C7.42392 1.875 6.15215 2.40178 5.21447 3.33947C4.27678 4.27715 3.75 5.54892 3.75 6.875V13.75C3.75 13.9158 3.81585 14.0747 3.93306 14.1919C4.05027 14.3092 4.20924 14.375 4.375 14.375C4.54076 14.375 4.69973 14.3092 4.81694 14.1919C4.93415 14.0747 5 13.9158 5 13.75V6.875C5 5.88044 5.39509 4.92661 6.09835 4.22335C6.80161 3.52009 7.75544 3.125 8.75 3.125C9.74456 3.125 10.6984 3.52009 11.4016 4.22335C12.1049 4.92661 12.5 5.88044 12.5 6.875V15.9896L9.81667 13.3073C9.69819 13.1969 9.54148 13.1368 9.37956 13.1396C9.21765 13.1425 9.06316 13.2081 8.94865 13.3226C8.83414 13.4371 8.76854 13.5916 8.76569 13.7535C8.76283 13.9154 8.82293 14.0721 8.93333 14.1906L12.6833 17.9406C12.713 17.9704 12.7454 17.9973 12.7802 18.0208H12.7865C12.8194 18.042 12.8543 18.0602 12.8906 18.075H12.8979C12.9318 18.0882 12.9666 18.099 13.0021 18.1073H13.0083C13.084 18.1226 13.1619 18.1226 13.2375 18.1073H13.2438C13.2792 18.099 13.314 18.0882 13.3479 18.075H13.3552C13.3915 18.0602 13.4264 18.042 13.4594 18.0208H13.4656C13.5004 17.9973 13.5329 17.9704 13.5625 17.9406L17.3125 14.1906C17.4298 14.074 17.4961 13.9157 17.4968 13.7503C17.4976 13.585 17.4328 13.426 17.3167 13.3083Z" fill="#666666"/>
</svg>
