<svg width="20" height="20" viewBox="0 0 20 20" fill="none" xmlns="http://www.w3.org/2000/svg">
<path d="M16.8281 13.9875C16.8281 13.9875 16.8281 13.9823 16.8281 13.9802C16.8425 13.9449 16.8533 13.9083 16.8604 13.8708C16.8609 13.8688 16.8609 13.8666 16.8604 13.8646C16.8757 13.789 16.8757 13.7111 16.8604 13.6354C16.8609 13.6334 16.8609 13.6312 16.8604 13.6292C16.8533 13.5917 16.8425 13.5551 16.8281 13.5198C16.8281 13.5198 16.8281 13.5146 16.8281 13.5125C16.8129 13.4764 16.7948 13.4416 16.774 13.4083C16.7743 13.4063 16.7743 13.4042 16.774 13.4021C16.7511 13.3671 16.7246 13.3346 16.6948 13.3052L14.1948 10.8052C14.0773 10.6895 13.9189 10.6249 13.754 10.6255C13.5891 10.626 13.4312 10.6918 13.3145 10.8083C13.1979 10.9248 13.132 11.0827 13.1312 11.2476C13.1304 11.4124 13.1948 11.5709 13.3104 11.6885L14.7438 13.1219H3.75C3.58424 13.1219 3.42527 13.1877 3.30806 13.3049C3.19085 13.4222 3.125 13.5811 3.125 13.7469C3.125 13.9126 3.19085 14.0716 3.30806 14.1888C3.42527 14.306 3.58424 14.3719 3.75 14.3719H14.7406L13.3073 15.8052C13.2485 15.8631 13.2018 15.9321 13.1698 16.0081C13.1378 16.0842 13.1212 16.1658 13.1209 16.2483C13.1206 16.3308 13.1367 16.4125 13.1681 16.4888C13.1996 16.5651 13.2458 16.6344 13.3042 16.6927C13.3626 16.751 13.4319 16.7971 13.5082 16.8285C13.5845 16.8599 13.6663 16.8758 13.7488 16.8755C13.8313 16.8751 13.9129 16.8584 13.9889 16.8263C14.0649 16.7942 14.1338 16.7474 14.1917 16.6885L16.6917 14.1885C16.7214 14.1592 16.748 14.1267 16.7708 14.0917V14.0854C16.7924 14.0543 16.8116 14.0216 16.8281 13.9875Z" fill="#666666"/>
<path d="M3.25729 5.86667L3.23021 5.90209C3.22817 5.90647 3.22573 5.91066 3.22292 5.91459C3.21458 5.92813 3.20625 5.94063 3.19896 5.95521C3.1984 5.95796 3.1984 5.9608 3.19896 5.96355C3.19082 5.97876 3.18351 5.99441 3.17708 6.01042C3.17708 6.01042 3.17708 6.01042 3.17708 6.01563C3.16975 6.03258 3.16349 6.04998 3.15833 6.06771C3.15833 6.06771 3.15833 6.06771 3.15833 6.07396C3.15833 6.08021 3.14896 6.10938 3.14479 6.12709C3.14529 6.13194 3.14529 6.13682 3.14479 6.14167C3.14479 6.15626 3.13958 6.17188 3.13854 6.18751C3.1375 6.20313 3.13854 6.22917 3.13854 6.25001C3.13854 6.27084 3.13854 6.29167 3.13854 6.31251C3.13854 6.33334 3.13854 6.34375 3.14479 6.35834C3.15104 6.37292 3.14479 6.36876 3.14479 6.37292C3.14479 6.37709 3.15312 6.40834 3.15833 6.42605V6.4323C3.15833 6.45001 3.16979 6.46667 3.17604 6.48334V6.48959C3.18227 6.50535 3.18958 6.52066 3.19792 6.53542C3.19752 6.53854 3.19752 6.54168 3.19792 6.5448L3.22083 6.58438L3.22917 6.59792L3.25417 6.63126L3.26562 6.64688C3.27604 6.66042 3.28854 6.67188 3.3 6.68438L3.30625 6.69167L5.80625 9.19167C5.92371 9.30738 6.08214 9.37198 6.24702 9.37141C6.4119 9.37084 6.56988 9.30514 6.68653 9.18862C6.80319 9.0721 6.86908 8.9142 6.86984 8.74932C6.87061 8.58444 6.80619 8.42594 6.69062 8.30834L5.25729 6.87501H16.25C16.4158 6.87501 16.5747 6.80916 16.6919 6.69195C16.8092 6.57474 16.875 6.41577 16.875 6.25001C16.875 6.08425 16.8092 5.92527 16.6919 5.80806C16.5747 5.69085 16.4158 5.62501 16.25 5.62501H5.25833L6.69167 4.19167C6.75044 4.13377 6.79718 4.06481 6.82917 3.98877C6.86116 3.91272 6.87778 3.83109 6.87806 3.74858C6.87835 3.66608 6.8623 3.58434 6.83084 3.50807C6.79937 3.4318 6.75312 3.36252 6.69475 3.30421C6.63637 3.24591 6.56704 3.19974 6.49073 3.16836C6.41442 3.13699 6.33266 3.12104 6.25016 3.12142C6.16766 3.1218 6.08605 3.13852 6.01004 3.1706C5.93403 3.20268 5.86512 3.24949 5.80729 3.30834L3.30729 5.80834V5.81459C3.29479 5.82709 3.28333 5.83959 3.27187 5.85313L3.25729 5.86667Z" fill="#666666"/>
</svg>
