<svg width="20" height="20" viewBox="0 0 20 20" fill="none" xmlns="http://www.w3.org/2000/svg">
<path d="M9.55729 14.8167C9.58698 14.8461 9.61942 14.8726 9.65417 14.8958H9.66042C9.69354 14.9165 9.72839 14.9343 9.76458 14.949H9.77188C9.80578 14.9622 9.84059 14.973 9.87604 14.9812H9.88542C9.96139 14.9965 10.0396 14.9965 10.1156 14.9812H10.1219C10.1574 14.9731 10.1922 14.9623 10.226 14.949H10.2344C10.2705 14.9341 10.3053 14.9163 10.3385 14.8958H10.3458C10.3801 14.8723 10.4121 14.8458 10.4417 14.8167L16.0667 9.19167C16.1254 9.13377 16.1722 9.06481 16.2042 8.98876C16.2362 8.91271 16.2528 8.83108 16.2531 8.74858C16.2533 8.66607 16.2373 8.58433 16.2058 8.50806C16.1744 8.43179 16.1281 8.36251 16.0697 8.30421C16.0114 8.2459 15.942 8.19973 15.8657 8.16836C15.7894 8.13698 15.7077 8.12103 15.6252 8.12141C15.5427 8.1218 15.461 8.13851 15.385 8.17059C15.309 8.20267 15.2401 8.24949 15.1823 8.30833L10.625 12.8656V2.5C10.625 2.33424 10.5592 2.17527 10.4419 2.05806C10.3247 1.94085 10.1658 1.875 10 1.875C9.83424 1.875 9.67527 1.94085 9.55806 2.05806C9.44085 2.17527 9.375 2.33424 9.375 2.5V12.8656L4.81667 8.30833C4.75884 8.24949 4.68993 8.20267 4.61392 8.17059C4.53791 8.13851 4.4563 8.1218 4.3738 8.12141C4.2913 8.12103 4.20953 8.13698 4.13323 8.16836C4.05692 8.19973 3.98758 8.2459 3.92921 8.30421C3.87084 8.36251 3.82459 8.43179 3.79312 8.50806C3.76166 8.58433 3.74561 8.66607 3.7459 8.74858C3.74618 8.83108 3.7628 8.91271 3.79479 8.98876C3.82678 9.06481 3.87352 9.13377 3.93229 9.19167L9.55729 14.8167Z" fill="#666666"/>
<path d="M16.875 16.25H3.125C2.95924 16.25 2.80027 16.3158 2.68306 16.4331C2.56585 16.5503 2.5 16.7092 2.5 16.875C2.5 17.0408 2.56585 17.1997 2.68306 17.3169C2.80027 17.4342 2.95924 17.5 3.125 17.5H16.875C17.0408 17.5 17.1997 17.4342 17.3169 17.3169C17.4342 17.1997 17.5 17.0408 17.5 16.875C17.5 16.7092 17.4342 16.5503 17.3169 16.4331C17.1997 16.3158 17.0408 16.25 16.875 16.25Z" fill="#666666"/>
</svg>
