<svg width="20" height="20" viewBox="0 0 20 20" fill="none" xmlns="http://www.w3.org/2000/svg">
<path d="M17.251 13.749C16.7875 12.9479 16.2344 11.4292 16.2344 8.74896V8.19896C16.2344 4.73959 13.4573 1.90417 10.0437 1.87813H9.99895C8.34424 1.88254 6.75881 2.54297 5.59031 3.71459C4.42181 4.88622 3.76562 6.47341 3.76562 8.12813V8.75313C3.76562 11.4323 3.2125 12.951 2.74791 13.7531C2.6383 13.943 2.58055 14.1583 2.58044 14.3775C2.58034 14.5968 2.6379 14.8122 2.74733 15.0021C2.85677 15.1921 3.01424 15.3499 3.20394 15.4598C3.39364 15.5697 3.6089 15.6277 3.82812 15.6281H6.875C6.875 16.4569 7.20424 17.2518 7.79029 17.8378C8.37634 18.4239 9.1712 18.7531 10 18.7531C10.8288 18.7531 11.6237 18.4239 12.2097 17.8378C12.7958 17.2518 13.125 16.4569 13.125 15.6281H16.1729C16.392 15.6274 16.607 15.569 16.7964 15.459C16.9858 15.349 17.143 15.1911 17.2521 15.0012C17.3613 14.8113 17.4187 14.5961 17.4185 14.377C17.4183 14.158 17.3606 13.9428 17.251 13.7531V13.749ZM10 17.499C9.50272 17.499 9.0258 17.3014 8.67417 16.9498C8.32254 16.5982 8.125 16.1212 8.125 15.624H11.875C11.8751 15.8703 11.8267 16.1142 11.7326 16.3418C11.6384 16.5694 11.5003 16.7762 11.3262 16.9505C11.1521 17.1247 10.9453 17.2629 10.7178 17.3572C10.4902 17.4515 10.2463 17.5 10 17.5V17.499ZM12.5 14.374H3.82916C4.37083 13.4365 5.01562 11.7052 5.01562 8.74896V8.12396C5.01562 6.80058 5.54025 5.53117 6.47456 4.59394C7.40886 3.6567 8.67662 3.1281 10 3.12396H10.0344C12.7635 3.14479 14.9844 5.41563 14.9844 8.19479V8.74896C14.9844 11.7063 15.6292 13.4365 16.1719 14.374H12.5Z" fill="#666666"/>
</svg>
