<svg width="20" height="20" viewBox="0 0 20 20" fill="none" xmlns="http://www.w3.org/2000/svg">
<path d="M16.25 4.37503H14.0859L13.0234 2.78128C12.9669 2.69414 12.8893 2.62268 12.7978 2.57351C12.7063 2.52435 12.6039 2.49907 12.5 2.50003H7.5C7.39613 2.49907 7.29371 2.52435 7.20221 2.57351C7.11071 2.62268 7.0331 2.69414 6.97656 2.78128L5.91406 4.37503H3.75C3.25335 4.37708 2.77763 4.57529 2.42645 4.92647C2.07526 5.27766 1.87706 5.75338 1.875 6.25003V15C1.87706 15.4967 2.07526 15.9724 2.42645 16.3236C2.77763 16.6748 3.25335 16.873 3.75 16.875H16.25C16.7466 16.873 17.2224 16.6748 17.5736 16.3236C17.9247 15.9724 18.1229 15.4967 18.125 15V6.25003C18.1229 5.75338 17.9247 5.27766 17.5736 4.92647C17.2224 4.57529 16.7466 4.37708 16.25 4.37503ZM12.8125 10.3125C12.8125 10.8688 12.6475 11.4126 12.3385 11.8751C12.0295 12.3376 11.5902 12.6981 11.0763 12.9109C10.5624 13.1238 9.99688 13.1795 9.45131 13.071C8.90574 12.9625 8.4046 12.6946 8.01126 12.3013C7.61793 11.9079 7.35006 11.4068 7.24154 10.8612C7.13302 10.3156 7.18872 9.75015 7.40159 9.23623C7.61446 8.72231 7.97495 8.28306 8.43746 7.97402C8.89997 7.66498 9.44374 7.50003 10 7.50003C10.7459 7.50003 11.4613 7.79634 11.9887 8.32379C12.5162 8.85123 12.8125 9.56661 12.8125 10.3125Z" fill="#A4A4A4"/>
</svg>
