<svg width="20" height="20" viewBox="0 0 20 20" fill="none" xmlns="http://www.w3.org/2000/svg">
<path d="M7.50001 16.875C7.37638 16.8751 7.25551 16.8385 7.15267 16.7699C7.04983 16.7013 6.96965 16.6038 6.92226 16.4896C6.87487 16.3754 6.8624 16.2497 6.88644 16.1285C6.91048 16.0072 6.96994 15.8958 7.0573 15.8083L12.8656 9.99999L7.0573 4.19166C6.94173 4.07406 6.87731 3.91556 6.87808 3.75068C6.87885 3.5858 6.94473 3.4279 7.06139 3.31138C7.17805 3.19486 7.33602 3.12916 7.5009 3.12859C7.66578 3.12802 7.82421 3.19262 7.94167 3.30833L14.1917 9.55833C14.3087 9.67551 14.3745 9.83437 14.3745 9.99999C14.3745 10.1656 14.3087 10.3245 14.1917 10.4417L7.94167 16.6917C7.82457 16.8089 7.66571 16.8748 7.50001 16.875Z" fill="#666666"/>
</svg>
