<svg width="20" height="20" viewBox="0 0 20 20" fill="none" xmlns="http://www.w3.org/2000/svg">
<path d="M16.8282 7.25782C16.7804 7.14406 16.7 7.04701 16.5971 6.97889C16.4943 6.91076 16.3735 6.87462 16.2501 6.875H3.75012C3.62673 6.87462 3.50599 6.91076 3.40311 6.97889C3.30023 7.04701 3.21981 7.14406 3.172 7.25782C3.12697 7.37326 3.11555 7.49909 3.13905 7.62076C3.16255 7.74242 3.22002 7.85495 3.30481 7.94532L9.55481 14.1953C9.67427 14.3108 9.83395 14.3754 10.0001 14.3754C10.1663 14.3754 10.326 14.3108 10.4454 14.1953L16.6954 7.94532C16.7802 7.85495 16.8377 7.74242 16.8612 7.62076C16.8847 7.49909 16.8733 7.37326 16.8282 7.25782Z" fill="#666666"/>
</svg>
