<svg width="20" height="20" viewBox="0 0 20 20" fill="none" xmlns="http://www.w3.org/2000/svg">
<path d="M7.13333 9.99999L12.9417 4.19166C13.0031 4.13444 13.0523 4.06544 13.0865 3.98878C13.1206 3.91211 13.139 3.82935 13.1405 3.74543C13.142 3.66151 13.1265 3.57815 13.0951 3.50033C13.0637 3.42251 13.0169 3.35181 12.9575 3.29246C12.8982 3.23311 12.8275 3.18633 12.7497 3.15489C12.6718 3.12346 12.5885 3.10802 12.5046 3.1095C12.4206 3.11098 12.3379 3.12935 12.2612 3.16351C12.1846 3.19767 12.1156 3.24692 12.0583 3.30833L5.80833 9.55833C5.69129 9.67552 5.62555 9.83437 5.62555 9.99999C5.62555 10.1656 5.69129 10.3245 5.80833 10.4417L12.0583 16.6917C12.1768 16.8021 12.3335 16.8622 12.4954 16.8593C12.6574 16.8565 12.8118 16.7909 12.9264 16.6763C13.0409 16.5618 13.1065 16.4073 13.1093 16.2454C13.1122 16.0835 13.0521 15.9268 12.9417 15.8083L7.13333 9.99999Z" fill="#666666"/>
</svg>
