<svg width="20" height="20" viewBox="0 0 20 20" fill="none" xmlns="http://www.w3.org/2000/svg">
<path d="M16.25 13.125C16.0843 13.1248 15.9254 13.0589 15.8083 12.9417L9.99997 7.13333L4.19163 12.9469C4.13441 13.0083 4.06541 13.0575 3.98875 13.0917C3.91208 13.1258 3.82932 13.1442 3.7454 13.1457C3.66148 13.1472 3.57812 13.1317 3.5003 13.1003C3.42248 13.0689 3.35178 13.0221 3.29243 12.9627C3.23309 12.9034 3.1863 12.8327 3.15486 12.7549C3.12343 12.677 3.10799 12.5937 3.10947 12.5098C3.11095 12.4258 3.12932 12.3431 3.16348 12.2664C3.19764 12.1898 3.24689 12.1208 3.3083 12.0635L9.5583 5.81353C9.67549 5.69649 9.83434 5.63075 9.99997 5.63075C10.1656 5.63075 10.3244 5.69649 10.4416 5.81353L16.6916 12.0635C16.7789 12.1509 16.8384 12.2623 16.8624 12.3834C16.8865 12.5046 16.8741 12.6302 16.8269 12.7443C16.7796 12.8584 16.6996 12.956 16.5969 13.0247C16.4942 13.0934 16.3735 13.1301 16.25 13.1302V13.125Z" fill="#666666"/>
</svg>
