<svg width="20" height="20" viewBox="0 0 20 20" fill="none" xmlns="http://www.w3.org/2000/svg">
<path d="M16.8281 7.25782C16.7803 7.14406 16.6999 7.04701 16.597 6.97889C16.4941 6.91076 16.3734 6.87462 16.25 6.875H3.75C3.62661 6.87462 3.50587 6.91076 3.40298 6.97889C3.3001 7.04701 3.21969 7.14406 3.17188 7.25782C3.12685 7.37326 3.11542 7.49909 3.13893 7.62076C3.16243 7.74242 3.2199 7.85495 3.30469 7.94532L9.55469 14.1953C9.67415 14.3108 9.83383 14.3754 10 14.3754C10.1662 14.3754 10.3259 14.3108 10.4453 14.1953L16.6953 7.94532C16.7801 7.85495 16.8376 7.74242 16.8611 7.62076C16.8846 7.49909 16.8732 7.37326 16.8281 7.25782Z" fill="#666666"/>
</svg>
