<svg width="20" height="20" viewBox="0 0 20 20" fill="none" xmlns="http://www.w3.org/2000/svg">
<path d="M16.25 16.875C16.0843 16.8748 15.9254 16.8089 15.8083 16.6917L9.99997 10.8802L4.19164 16.6885C4.07316 16.7989 3.91646 16.859 3.75454 16.8562C3.59262 16.8533 3.43813 16.7877 3.32362 16.6732C3.20911 16.5587 3.14352 16.4042 3.14066 16.2423C3.1378 16.0804 3.19791 15.9237 3.30831 15.8052L9.55831 9.55521C9.6755 9.43816 9.83435 9.37242 9.99997 9.37242C10.1656 9.37242 10.3245 9.43816 10.4416 9.55521L16.6916 15.8052C16.7789 15.8926 16.8384 16.0039 16.8624 16.1251C16.8865 16.2463 16.8741 16.3718 16.8269 16.486C16.7796 16.6001 16.6996 16.6977 16.5969 16.7664C16.4942 16.835 16.3735 16.8718 16.25 16.8719V16.875Z" fill="#666666"/>
<path d="M16.25 10.625C16.0843 10.6249 15.9254 10.5589 15.8083 10.4417L9.99997 4.63021L4.19164 10.4385C4.07316 10.5489 3.91646 10.609 3.75454 10.6062C3.59262 10.6033 3.43813 10.5377 3.32362 10.4232C3.20911 10.3087 3.14352 10.1542 3.14066 9.99231C3.1378 9.83039 3.19791 9.67368 3.30831 9.55521L9.55831 3.30521C9.6755 3.18816 9.83435 3.12242 9.99997 3.12242C10.1656 3.12242 10.3245 3.18816 10.4416 3.30521L16.6916 9.55521C16.7789 9.64261 16.8384 9.75393 16.8624 9.87509C16.8865 9.99626 16.8741 10.1218 16.8269 10.236C16.7796 10.3501 16.6996 10.4477 16.5969 10.5164C16.4942 10.585 16.3735 10.6218 16.25 10.6219V10.625Z" fill="#666666"/>
</svg>
