<svg width="20" height="20" viewBox="0 0 20 20" fill="none" xmlns="http://www.w3.org/2000/svg">
<path d="M9.99996 14.375C9.91773 14.3751 9.8363 14.3589 9.76034 14.3275C9.68437 14.296 9.61536 14.2499 9.55725 14.1917L3.30725 7.94167C3.24847 7.88377 3.20174 7.81481 3.16975 7.73877C3.13776 7.66272 3.12114 7.58109 3.12085 7.49858C3.12057 7.41608 3.13662 7.33434 3.16808 7.25807C3.19954 7.1818 3.2458 7.11252 3.30417 7.05421C3.36254 6.99591 3.43188 6.94974 3.50819 6.91836C3.58449 6.88699 3.66625 6.87104 3.74876 6.87142C3.83126 6.8718 3.91287 6.88852 3.98888 6.9206C4.06489 6.95268 4.1338 6.99949 4.19162 7.05834L9.99996 12.8656L15.8073 7.05834C15.8651 6.99949 15.934 6.95268 16.01 6.9206C16.086 6.88852 16.1676 6.8718 16.2501 6.87142C16.3326 6.87104 16.4144 6.88699 16.4907 6.91836C16.567 6.94974 16.6363 6.99591 16.6947 7.05421C16.7531 7.11252 16.7993 7.1818 16.8308 7.25807C16.8623 7.33434 16.8783 7.41608 16.878 7.49858C16.8777 7.58109 16.8611 7.66272 16.8291 7.73877C16.7971 7.81481 16.7504 7.88377 16.6916 7.94167L10.4416 14.1917C10.3245 14.3089 10.1657 14.3749 9.99996 14.375Z" fill="#666666"/>
</svg>
