<svg width="21" height="20" viewBox="0 0 21 20" fill="none" xmlns="http://www.w3.org/2000/svg">
<g clip-path="url(#clip0_4232_13802)">
<path d="M18.38 4.37C18.15 4.14 17.83 4 17.5 4H3.75C3.42 4 3.1 4.13 2.87 4.37C2.64 4.6 2.5 4.92 2.5 5.25V15.25C2.5 15.58 2.63 15.9 2.87 16.13C3.11 16.36 3.42 16.5 3.75 16.5H17.5C17.83 16.5 18.15 16.37 18.38 16.13C18.61 15.9 18.75 15.58 18.75 15.25V5.25C18.75 4.92 18.62 4.6 18.38 4.37ZM8.75 5.25H12.5V7.75H8.75V5.25ZM7.5 15.25H3.75V12.75H7.5V15.25ZM7.5 11.5H3.75V9H7.5V11.5ZM7.5 7.75H3.75V5.25H7.5V7.75ZM12.5 15.25H8.75V12.75H12.5V15.25ZM17.5 15.25H13.75V12.75H17.5V15.25ZM17.5 11.5H13.75V9H17.5V11.5ZM17.5 7.75H13.75V5.25H17.5V7.75Z" fill="#697586"/>
</g>
<defs>
<clipPath id="clip0_4232_13802">
<rect width="16.25" height="12.5" fill="white" transform="translate(2.5 4)"/>
</clipPath>
</defs>
</svg>
