<svg width="20" height="20" viewBox="0 0 20 20" fill="none" xmlns="http://www.w3.org/2000/svg">
<g id="cell-style">
<path id="Vector" d="M10.91 14.25H8.25V11.75H10.83C11.11 11.5 11.47 11.37 11.86 11.37H13.19L13.47 10.5H13.25V8H17V10.5H16.77L17.05 11.37H18.25V4.25C18.25 3.92 18.12 3.6 17.88 3.37C17.65 3.13 17.33 3 17 3H3.25C2.92 3 2.6 3.13 2.37 3.37C2.13 3.6 2 3.92 2 4.25V14.25C2 14.58 2.13 14.9 2.37 15.13C2.6 15.37 2.92 15.5 3.25 15.5H11.85L12 15.04L10.92 14.26H10.91V14.25ZM13.25 4.25H17V6.75H13.25V4.25ZM8.25 4.25H12V6.75H8.25V4.25ZM7 14.25H3.25V11.75H7V14.25ZM7 10.5H3.25V8H7V10.5ZM7 6.75H3.25V4.25H7V6.75ZM18.45 13.04L16.49 14.46L17.24 16.76C17.24 16.76 17.26 16.84 17.2 16.88C17.14 16.92 17.1 16.88 17.08 16.87L15.13 15.45L13.18 16.87C13.18 16.87 13.12 16.92 13.06 16.88C13 16.84 13.01 16.79 13.02 16.76L13.77 14.46L11.81 13.04C11.81 13.04 11.76 13 11.78 12.94C11.8 12.87 11.84 12.87 11.87 12.87H14.28L15.03 10.57C15.03 10.57 15.21 10.52 15.23 10.57L15.97 12.87H18.39C18.39 12.87 18.46 12.87 18.48 12.94C18.5 13 18.47 13.03 18.45 13.04Z" fill="#697586"/>
</g>
</svg>
