<svg width="17" height="13" viewBox="0 0 17 13" fill="none" xmlns="http://www.w3.org/2000/svg">
<g id="ceel 1" clip-path="url(#clip0_4232_13799)">
<g id="Calque 1">
<path id="Vector" d="M15.88 0.37C15.65 0.14 15.33 0 15 0H1.25C0.92 0 0.6 0.13 0.37 0.37C0.14 0.6 0 0.92 0 1.25V11.25C0 11.58 0.13 11.9 0.37 12.13C0.61 12.36 0.92 12.5 1.25 12.5H15C15.33 12.5 15.65 12.37 15.88 12.13C16.11 11.9 16.25 11.58 16.25 11.25V1.25C16.25 0.92 16.12 0.6 15.88 0.37ZM6.25 1.25H10V3.75H6.25V1.25ZM5 11.25H1.25V8.75H5V11.25ZM5 7.5H1.25V5H5V7.5ZM5 3.75H1.25V1.25H5V3.75ZM10 11.25H6.25V8.75H10V11.25ZM15 11.25H11.25V8.75H15V11.25ZM15 7.5H11.25V5H15V7.5ZM15 3.75H11.25V1.25H15V3.75Z" fill="#697586"/>
</g>
</g>
<defs>
<clipPath id="clip0_4232_13799">
<rect width="16.25" height="12.5" fill="white"/>
</clipPath>
</defs>
</svg>
