<svg width="20" height="20" viewBox="0 0 20 20" fill="none" xmlns="http://www.w3.org/2000/svg">
<path d="M17.5 15.625H3.125V12.7833L7.53021 8.92917L12.125 12.375C12.2397 12.4609 12.3804 12.5047 12.5236 12.4992C12.6668 12.4937 12.8037 12.4392 12.9115 12.3448L17.9115 7.96979C18.0239 7.85759 18.0894 7.70679 18.0946 7.54804C18.0998 7.38929 18.0444 7.2345 17.9396 7.11513C17.8349 6.99576 17.6886 6.92076 17.5305 6.90537C17.3724 6.88999 17.2144 6.93537 17.0885 7.03229L12.4698 11.074L7.875 7.62813C7.76042 7.54211 7.61977 7.49807 7.4766 7.50338C7.33343 7.50869 7.19643 7.56303 7.08854 7.65729L3.125 11.126V3.75C3.125 3.58424 3.05915 3.42527 2.94194 3.30806C2.82473 3.19085 2.66576 3.125 2.5 3.125C2.33424 3.125 2.17527 3.19085 2.05806 3.30806C1.94085 3.42527 1.875 3.58424 1.875 3.75V16.25C1.875 16.4158 1.94085 16.5747 2.05806 16.6919C2.17527 16.8092 2.33424 16.875 2.5 16.875H17.5C17.6658 16.875 17.8247 16.8092 17.9419 16.6919C18.0592 16.5747 18.125 16.4158 18.125 16.25C18.125 16.0842 18.0592 15.9253 17.9419 15.8081C17.8247 15.6909 17.6658 15.625 17.5 15.625Z" fill="#666666"/>
</svg>
