<svg width="20" height="20" viewBox="0 0 20 20" fill="none" xmlns="http://www.w3.org/2000/svg">
<path d="M3.125 18.65C2.79546 18.65 2.47924 18.5199 2.24514 18.2879C2.01105 18.056 1.87802 17.741 1.875 17.4115V5C1.875 4.66848 2.0067 4.35054 2.24112 4.11612C2.47554 3.8817 2.79348 3.75 3.125 3.75H16.875C17.2065 3.75 17.5245 3.8817 17.7589 4.11612C17.9933 4.35054 18.125 4.66848 18.125 5V15C18.125 15.3315 17.9933 15.6495 17.7589 15.8839C17.5245 16.1183 17.2065 16.25 16.875 16.25H6.45104L3.92708 18.3594C3.70208 18.5473 3.41817 18.6502 3.125 18.65ZM3.125 5.00417V17.4062L5.64271 15.2969C5.86633 15.1051 6.15125 14.9998 6.44583 15H16.875V5L3.125 5.00417Z" fill="#666666"/>
</svg>
