<svg width="20" height="20" viewBox="0 0 20 20" fill="none" xmlns="http://www.w3.org/2000/svg">
<path d="M8.12503 15C7.95933 14.9998 7.80047 14.9339 7.68337 14.8167L3.30837 10.4417C3.19797 10.3232 3.13787 10.1665 3.14072 10.0046C3.14358 9.84264 3.20917 9.68815 3.32368 9.57364C3.43819 9.45913 3.59268 9.39354 3.7546 9.39068C3.91652 9.38783 4.07322 9.44793 4.1917 9.55833L8.12503 13.4896L16.4334 5.18229C16.5518 5.07189 16.7086 5.01178 16.8705 5.01464C17.0324 5.0175 17.1869 5.08309 17.3014 5.1976C17.4159 5.31211 17.4815 5.4666 17.4843 5.62852C17.4872 5.79043 17.4271 5.94714 17.3167 6.06562L8.5667 14.8156C8.5088 14.8739 8.44 14.9201 8.36422 14.9518C8.28843 14.9834 8.20716 14.9998 8.12503 15Z" fill="#666666"/>
</svg>
