<svg width="20" height="20" viewBox="0 0 20 20" fill="none" xmlns="http://www.w3.org/2000/svg">
<path d="M9.98957 18.1219C8.137 18.1187 6.34114 17.4825 4.8997 16.3188C3.45825 15.1551 2.45777 13.5337 2.06411 11.7234C1.67044 9.91314 1.90724 8.02271 2.73523 6.36546C3.56323 4.70822 4.93271 3.3837 6.61665 2.61146C6.69127 2.57726 6.7719 2.55809 6.85393 2.55506C6.93595 2.55202 7.01778 2.56516 7.09473 2.59375C7.17167 2.62233 7.24224 2.66579 7.30239 2.72164C7.36254 2.77749 7.4111 2.84465 7.4453 2.91927C7.4795 2.99389 7.49866 3.07452 7.5017 3.15654C7.50474 3.23857 7.49159 3.3204 7.46301 3.39734C7.43443 3.47429 7.39097 3.54485 7.33512 3.605C7.27926 3.66515 7.21211 3.71372 7.13749 3.74791C5.71145 4.40154 4.55182 5.52319 3.8511 6.92668C3.15037 8.33017 2.95069 9.93109 3.28519 11.4637C3.6197 12.9963 4.46827 14.3685 5.69006 15.3523C6.91185 16.3362 8.43337 16.8727 10.0021 16.8727C11.5708 16.8727 13.0923 16.3362 14.3141 15.3523C15.5359 14.3685 16.3844 12.9963 16.7189 11.4637C17.0535 9.93109 16.8538 8.33017 16.153 6.92668C15.4523 5.52319 14.2927 4.40154 12.8667 3.74791C12.792 3.71372 12.7249 3.66515 12.669 3.605C12.6132 3.54485 12.5697 3.47429 12.5411 3.39734C12.5125 3.3204 12.4994 3.23857 12.5024 3.15654C12.5055 3.07452 12.5246 2.99389 12.5588 2.91927C12.593 2.84465 12.6416 2.77749 12.7018 2.72164C12.7619 2.66579 12.8325 2.62233 12.9094 2.59375C12.9864 2.56516 13.0682 2.55202 13.1502 2.55506C13.2322 2.55809 13.3129 2.57726 13.3875 2.61146C15.0734 3.38459 16.444 4.71126 17.2717 6.37106C18.0994 8.03085 18.3343 9.92387 17.9374 11.7356C17.5405 13.5474 16.5356 15.1688 15.0898 16.3305C13.644 17.4923 11.8443 18.1244 9.98957 18.1219Z" fill="#666666"/>
</svg>
