<svg width="20" height="20" viewBox="0 0 20 20" fill="none" xmlns="http://www.w3.org/2000/svg">
<path d="M5.48024 6.47501C5.37415 6.34766 5.22181 6.26766 5.05674 6.25262C4.89168 6.23758 4.72739 6.28872 4.60003 6.3948L0.85003 9.5198C0.779619 9.57846 0.722968 9.65188 0.684091 9.73486C0.645213 9.81785 0.625061 9.90837 0.625061 10C0.625061 10.0917 0.645213 10.1822 0.684091 10.2652C0.722968 10.3481 0.779619 10.4216 0.85003 10.4802L4.60003 13.6052C4.66299 13.6585 4.73589 13.6988 4.8145 13.7238C4.89312 13.7488 4.97591 13.758 5.0581 13.7508C5.14028 13.7437 5.22024 13.7203 5.29335 13.6821C5.36647 13.6439 5.43129 13.5916 5.48409 13.5282C5.53689 13.4648 5.57662 13.3916 5.60099 13.3128C5.62535 13.234 5.63387 13.1511 5.62606 13.069C5.61824 12.9869 5.59425 12.9071 5.55545 12.8343C5.51666 12.7615 5.46384 12.6971 5.40003 12.6448L2.22607 10L5.40003 7.35522C5.52738 7.24913 5.60738 7.0968 5.62242 6.93173C5.63747 6.76666 5.58632 6.60237 5.48024 6.47501Z" fill="#666666"/>
<path d="M19.15 9.5198L15.4 6.3948C15.3371 6.3415 15.2642 6.30119 15.1856 6.27619C15.1069 6.2512 15.0241 6.24201 14.942 6.24917C14.8598 6.25633 14.7798 6.27969 14.7067 6.3179C14.6336 6.35611 14.5688 6.40842 14.516 6.4718C14.4632 6.53519 14.4234 6.6084 14.3991 6.68722C14.3747 6.76603 14.3662 6.84889 14.374 6.93102C14.3818 7.01314 14.4058 7.09291 14.4446 7.16572C14.4834 7.23852 14.5362 7.30293 14.6 7.35522L17.7719 10L14.5979 12.6448C14.5341 12.6971 14.4813 12.7615 14.4425 12.8343C14.4037 12.9071 14.3797 12.9869 14.3719 13.069C14.3641 13.1511 14.3726 13.234 14.397 13.3128C14.4214 13.3916 14.4611 13.4648 14.5139 13.5282C14.5667 13.5916 14.6315 13.6439 14.7046 13.6821C14.7777 13.7203 14.8577 13.7437 14.9399 13.7509C15.0221 13.758 15.1049 13.7488 15.1835 13.7238C15.2621 13.6988 15.335 13.6585 15.3979 13.6052L19.1479 10.4802C19.2184 10.4216 19.275 10.3481 19.3139 10.2652C19.3528 10.1822 19.3729 10.0917 19.3729 10C19.3729 9.90837 19.3528 9.81785 19.3139 9.73487C19.275 9.65188 19.2184 9.57846 19.1479 9.5198H19.15Z" fill="#666666"/>
<path d="M12.7136 2.53751C12.6364 2.50945 12.5545 2.49687 12.4725 2.50048C12.3905 2.50409 12.31 2.52382 12.2356 2.55855C12.1612 2.59328 12.0944 2.64232 12.0389 2.70287C11.9835 2.76343 11.9406 2.83431 11.9125 2.91147L6.91253 16.6615C6.88447 16.7386 6.87189 16.8205 6.8755 16.9026C6.87911 16.9846 6.89884 17.0651 6.93357 17.1395C6.9683 17.2138 7.01734 17.2807 7.07789 17.3361C7.13845 17.3915 7.20933 17.4345 7.28649 17.4625C7.35335 17.4866 7.42377 17.4992 7.49482 17.5C7.62377 17.4996 7.74945 17.4594 7.85463 17.3848C7.95981 17.3102 8.03934 17.2049 8.08232 17.0833L13.0823 3.33335C13.1376 3.17884 13.13 3.00878 13.061 2.85988C12.992 2.71098 12.8672 2.59519 12.7136 2.53751Z" fill="#666666"/>
</svg>
