<svg width="20" height="20" viewBox="0 0 20 20" fill="none" xmlns="http://www.w3.org/2000/svg">
<g id="colomun">
<path id="Vector" d="M17.88 4.37C17.64 4.13 17.33 4 17 4H3.24C2.91 4 2.6 4.13 2.36 4.37C2.12 4.61 2 4.92 2 5.25V15.25C2 15.58 2.13 15.9 2.36 16.13C2.59 16.36 2.91 16.5 3.24 16.5H17C17.33 16.5 17.64 16.37 17.88 16.13C18.12 15.89 18.24 15.58 18.24 15.25V5.25C18.24 4.92 18.11 4.6 17.88 4.37ZM7 15.25H3.24V12.75H7V15.25ZM7 11.5H3.24V9H7V11.5ZM7 7.75H3.24V5.25H7V7.75ZM17 15.25H13.24V12.75H17V15.25ZM17 11.5H13.24V9H17V11.5ZM17 7.75H13.24V5.25H17V7.75Z" fill="#697586"/>
</g>
</svg>
