<svg width="20" height="20" viewBox="0 0 20 20" fill="none" xmlns="http://www.w3.org/2000/svg">
<path d="M9.55472 5.5781L11.1016 4.03123C11.7565 3.43429 12.6163 3.11266 13.5022 3.13317C14.3881 3.15368 15.232 3.51475 15.8586 4.14136C16.4853 4.76796 16.8463 5.61191 16.8668 6.49782C16.8873 7.38373 16.5657 8.24349 15.9688 8.89841L13.7578 11.1015C13.4392 11.4214 13.0605 11.6752 12.6436 11.8483C12.2267 12.0215 11.7796 12.1106 11.3282 12.1106C10.8767 12.1106 10.4297 12.0215 10.0127 11.8483C9.59576 11.6752 9.21711 11.4214 8.89847 11.1015" stroke="#666666" stroke-width="1.4" stroke-linecap="round" stroke-linejoin="round"/>
<path d="M10.4454 14.4218L8.89849 15.9687C8.24356 16.5656 7.38381 16.8873 6.4979 16.8668C5.61198 16.8463 4.76804 16.4852 4.14143 15.8586C3.51483 15.232 3.15376 14.388 3.13325 13.5021C3.11274 12.6162 3.43437 11.7565 4.0313 11.1015L6.24224 8.8984C6.56088 8.57857 6.93954 8.32479 7.35648 8.15163C7.77342 7.97847 8.22046 7.88933 8.67193 7.88933C9.1234 7.88933 9.57043 7.97847 9.98738 8.15163C10.4043 8.32479 10.783 8.57857 11.1016 8.8984" stroke="#666666" stroke-width="1.4" stroke-linecap="round" stroke-linejoin="round"/>
</svg>
