<svg width="20" height="20" viewBox="0 0 20 20" fill="none" xmlns="http://www.w3.org/2000/svg">
<g id="corners-in">
<path id="Vector" d="M11.875 7.5V3.75C11.875 3.58424 11.9408 3.42527 12.0581 3.30806C12.1753 3.19085 12.3342 3.125 12.5 3.125C12.6658 3.125 12.8247 3.19085 12.9419 3.30806C13.0592 3.42527 13.125 3.58424 13.125 3.75V6.875H16.25C16.4158 6.875 16.5747 6.94085 16.6919 7.05806C16.8092 7.17527 16.875 7.33424 16.875 7.5C16.875 7.66576 16.8092 7.82473 16.6919 7.94194C16.5747 8.05915 16.4158 8.125 16.25 8.125H12.5C12.3342 8.125 12.1753 8.05915 12.0581 7.94194C11.9408 7.82473 11.875 7.66576 11.875 7.5ZM7.5 11.875H3.75C3.58424 11.875 3.42527 11.9408 3.30806 12.0581C3.19085 12.1753 3.125 12.3342 3.125 12.5C3.125 12.6658 3.19085 12.8247 3.30806 12.9419C3.42527 13.0592 3.58424 13.125 3.75 13.125H6.875V16.25C6.875 16.4158 6.94085 16.5747 7.05806 16.6919C7.17527 16.8092 7.33424 16.875 7.5 16.875C7.66576 16.875 7.82473 16.8092 7.94194 16.6919C8.05915 16.5747 8.125 16.4158 8.125 16.25V12.5C8.125 12.3342 8.05915 12.1753 7.94194 12.0581C7.82473 11.9408 7.66576 11.875 7.5 11.875ZM16.25 11.875H12.5C12.3342 11.875 12.1753 11.9408 12.0581 12.0581C11.9408 12.1753 11.875 12.3342 11.875 12.5V16.25C11.875 16.4158 11.9408 16.5747 12.0581 16.6919C12.1753 16.8092 12.3342 16.875 12.5 16.875C12.6658 16.875 12.8247 16.8092 12.9419 16.6919C13.0592 16.5747 13.125 16.4158 13.125 16.25V13.125H16.25C16.4158 13.125 16.5747 13.0592 16.6919 12.9419C16.8092 12.8247 16.875 12.6658 16.875 12.5C16.875 12.3342 16.8092 12.1753 16.6919 12.0581C16.5747 11.9408 16.4158 11.875 16.25 11.875ZM7.5 3.125C7.33424 3.125 7.17527 3.19085 7.05806 3.30806C6.94085 3.42527 6.875 3.58424 6.875 3.75V6.875H3.75C3.58424 6.875 3.42527 6.94085 3.30806 7.05806C3.19085 7.17527 3.125 7.33424 3.125 7.5C3.125 7.66576 3.19085 7.82473 3.30806 7.94194C3.42527 8.05915 3.58424 8.125 3.75 8.125H7.5C7.66576 8.125 7.82473 8.05915 7.94194 7.94194C8.05915 7.82473 8.125 7.66576 8.125 7.5V3.75C8.125 3.58424 8.05915 3.42527 7.94194 3.30806C7.82473 3.19085 7.66576 3.125 7.5 3.125Z" fill="#697586"/>
</g>
</svg>
