<svg width="20" height="20" viewBox="0 0 20 20" fill="none" xmlns="http://www.w3.org/2000/svg">
<path d="M16.25 3.125H13.125C12.9592 3.125 12.8003 3.19085 12.6831 3.30806C12.5658 3.42527 12.5 3.58424 12.5 3.75C12.5 3.91576 12.5658 4.07473 12.6831 4.19194C12.8003 4.30915 12.9592 4.375 13.125 4.375H15.625V6.875C15.625 7.04076 15.6908 7.19973 15.8081 7.31694C15.9253 7.43415 16.0842 7.5 16.25 7.5C16.4158 7.5 16.5747 7.43415 16.6919 7.31694C16.8092 7.19973 16.875 7.04076 16.875 6.875V3.75C16.875 3.58424 16.8092 3.42527 16.6919 3.30806C16.5747 3.19085 16.4158 3.125 16.25 3.125Z" fill="#666666"/>
<path d="M6.875 15.625H4.375V13.125C4.375 12.9592 4.30915 12.8003 4.19194 12.6831C4.07473 12.5658 3.91576 12.5 3.75 12.5C3.58424 12.5 3.42527 12.5658 3.30806 12.6831C3.19085 12.8003 3.125 12.9592 3.125 13.125V16.25C3.125 16.4158 3.19085 16.5747 3.30806 16.6919C3.42527 16.8091 3.58424 16.875 3.75 16.875H6.875C7.04076 16.875 7.19973 16.8091 7.31694 16.6919C7.43415 16.5747 7.5 16.4158 7.5 16.25C7.5 16.0842 7.43415 15.9253 7.31694 15.8081C7.19973 15.6908 7.04076 15.625 6.875 15.625Z" fill="#666666"/>
<path d="M16.25 12.5C16.0842 12.5 15.9253 12.5658 15.8081 12.6831C15.6908 12.8003 15.625 12.9592 15.625 13.125V15.625H13.125C12.9592 15.625 12.8003 15.6908 12.6831 15.8081C12.5658 15.9253 12.5 16.0842 12.5 16.25C12.5 16.4158 12.5658 16.5747 12.6831 16.6919C12.8003 16.8091 12.9592 16.875 13.125 16.875H16.25C16.4158 16.875 16.5747 16.8091 16.6919 16.6919C16.8092 16.5747 16.875 16.4158 16.875 16.25V13.125C16.875 12.9592 16.8092 12.8003 16.6919 12.6831C16.5747 12.5658 16.4158 12.5 16.25 12.5Z" fill="#666666"/>
<path d="M6.875 3.125H3.75C3.58424 3.125 3.42527 3.19085 3.30806 3.30806C3.19085 3.42527 3.125 3.58424 3.125 3.75V6.875C3.125 7.04076 3.19085 7.19973 3.30806 7.31694C3.42527 7.43415 3.58424 7.5 3.75 7.5C3.91576 7.5 4.07473 7.43415 4.19194 7.31694C4.30915 7.19973 4.375 7.04076 4.375 6.875V4.375H6.875C7.04076 4.375 7.19973 4.30915 7.31694 4.19194C7.43415 4.07473 7.5 3.91576 7.5 3.75C7.5 3.58424 7.43415 3.42527 7.31694 3.30806C7.19973 3.19085 7.04076 3.125 6.875 3.125Z" fill="#666666"/>
</svg>
