<svg width="20" height="20" viewBox="0 0 20 20" fill="none" xmlns="http://www.w3.org/2000/svg">
<path d="M17.9989 5.61042C17.9874 5.57884 17.9735 5.5482 17.9573 5.51876C17.9363 5.48157 17.9115 5.44666 17.8833 5.41459C17.7782 5.26785 17.6429 5.14531 17.4864 5.05521L10.6166 1.19272C10.4301 1.08601 10.219 1.02988 10.0041 1.02988C9.78928 1.02988 9.57814 1.08601 9.39164 1.19272L2.51664 5.06147C2.36006 5.15089 2.22467 5.27313 2.11977 5.4198C2.09121 5.45181 2.06607 5.48672 2.04477 5.52396C2.02947 5.55249 2.01624 5.58208 2.00519 5.61251C1.92482 5.77968 1.88215 5.96245 1.88019 6.14793V13.8563C1.88161 14.0773 1.94117 14.294 2.05289 14.4847C2.16461 14.6754 2.32455 14.8334 2.51664 14.9427L9.3854 18.8063C9.57394 18.9148 9.78766 18.9719 10.0052 18.9719C10.2189 18.9721 10.429 18.9164 10.6146 18.8104L17.4896 14.9417C17.6816 14.8323 17.8415 14.6743 17.9532 14.4836C18.0649 14.2929 18.1245 14.0762 18.126 13.8552V6.14688C18.1241 5.96083 18.0807 5.77756 17.9989 5.61042ZM9.99998 2.27709L16.2271 5.78022L10.0677 9.27917L3.78019 5.77605L9.99998 2.27709ZM3.12498 6.84168L9.4406 10.3625L9.38227 17.3698L3.12393 13.8479L3.12498 6.84168ZM16.875 13.85L10.6354 17.3604L10.6937 10.3625L16.8771 6.85001V13.8479H17.5021L16.875 13.85Z" fill="#666666"/>
</svg>
