<svg width="20" height="20" viewBox="0 0 20 20" fill="none" xmlns="http://www.w3.org/2000/svg">
<path d="M13.75 18.75H6.25C5.75272 18.75 5.27581 18.5525 4.92418 18.2008C4.57255 17.8492 4.375 17.3723 4.375 16.875V3.125C4.375 2.62772 4.57255 2.15081 4.92418 1.79918C5.27581 1.44755 5.75272 1.25 6.25 1.25H13.75C14.2473 1.25 14.7242 1.44755 15.0758 1.79918C15.4275 2.15081 15.625 2.62772 15.625 3.125V16.875C15.625 17.3723 15.4275 17.8492 15.0758 18.2008C14.7242 18.5525 14.2473 18.75 13.75 18.75ZM6.25 2.5C6.08424 2.5 5.92527 2.56585 5.80806 2.68306C5.69085 2.80027 5.625 2.95924 5.625 3.125V16.875C5.625 17.0408 5.69085 17.1997 5.80806 17.3169C5.92527 17.4342 6.08424 17.5 6.25 17.5H13.75C13.9158 17.5 14.0747 17.4342 14.1919 17.3169C14.3092 17.1997 14.375 17.0408 14.375 16.875V3.125C14.375 2.95924 14.3092 2.80027 14.1919 2.68306C14.0747 2.56585 13.9158 2.5 13.75 2.5H6.25Z" fill="#666666"/>
<path d="M10 16.6667C10.5178 16.6667 10.9375 16.2469 10.9375 15.7292C10.9375 15.2114 10.5178 14.7917 10 14.7917C9.48223 14.7917 9.0625 15.2114 9.0625 15.7292C9.0625 16.2469 9.48223 16.6667 10 16.6667Z" fill="#666666"/>
</svg>
