<svg width="20" height="20" viewBox="0 0 20 20" fill="none" xmlns="http://www.w3.org/2000/svg">
<path d="M18.1187 4.28959V4.27396C18.1137 4.23852 18.1054 4.20364 18.0937 4.16979L18.0885 4.15521C18.0758 4.12177 18.0605 4.08938 18.0427 4.05834L18.0344 4.04584C18.0152 4.01381 17.9929 3.9838 17.9677 3.95625V3.95H17.9625C17.9372 3.92266 17.9093 3.89789 17.8792 3.87605L17.8677 3.86771C17.8384 3.84612 17.807 3.82762 17.7739 3.8125L17.7625 3.80625C17.7289 3.79158 17.694 3.78007 17.6583 3.77188H17.6458C17.6116 3.76389 17.5767 3.75901 17.5417 3.75729H2.46353C2.42844 3.75901 2.39357 3.76389 2.35936 3.77188H2.34582C2.31009 3.78 2.27521 3.79151 2.24165 3.80625L2.22915 3.8125C2.19678 3.82791 2.16576 3.84603 2.13645 3.86667L2.12395 3.87605C2.09402 3.89817 2.06613 3.92292 2.04061 3.95L2.03541 3.95625C2.01088 3.98433 1.98859 4.01428 1.96874 4.04584L1.96145 4.05834C1.94346 4.08964 1.92813 4.12239 1.91561 4.15625C1.91326 4.1605 1.9115 4.16506 1.9104 4.16979C1.89894 4.20376 1.89023 4.23859 1.88436 4.27396C1.88487 4.27916 1.88487 4.28439 1.88436 4.28959C1.88017 4.31787 1.87808 4.34641 1.87811 4.375V15C1.87811 15.3315 2.00981 15.6495 2.24423 15.8839C2.47865 16.1183 2.79659 16.25 3.12811 16.25H16.8781C17.2096 16.25 17.5276 16.1183 17.762 15.8839C17.9964 15.6495 18.1281 15.3315 18.1281 15V4.375C18.1266 4.34638 18.1235 4.31786 18.1187 4.28959ZM15.8927 5L9.99999 10.4021L4.10624 5H15.8927ZM3.12499 15V5.79584L9.57707 11.7135C9.69235 11.8192 9.84306 11.8779 9.99947 11.8779C10.1559 11.8779 10.3066 11.8192 10.4219 11.7135L16.875 5.79896V15.0031L3.12499 15Z" fill="#666666"/>
</svg>
