<svg width="20" height="20" viewBox="0 0 20 20" fill="none" xmlns="http://www.w3.org/2000/svg">
<path d="M18.1188 4.28959V4.27396C18.1138 4.23852 18.1054 4.20364 18.0938 4.16979L18.0886 4.15521C18.0759 4.12177 18.0605 4.08938 18.0428 4.05834L18.0344 4.04584C18.0153 4.01381 17.9929 3.9838 17.9678 3.95625V3.95H17.9625C17.9373 3.92266 17.9094 3.89789 17.8792 3.87605L17.8678 3.86771C17.8385 3.84612 17.8071 3.82762 17.774 3.8125L17.7625 3.80625C17.729 3.79158 17.6941 3.78007 17.6584 3.77188H17.6459C17.6117 3.76389 17.5768 3.75901 17.5417 3.75729H2.46359C2.4285 3.75901 2.39364 3.76389 2.35942 3.77188H2.34588C2.31015 3.78 2.27527 3.79151 2.24171 3.80625L2.22922 3.8125C2.19684 3.82791 2.16583 3.84603 2.13651 3.86667L2.12401 3.87605C2.09408 3.89817 2.06619 3.92292 2.04067 3.95L2.03547 3.95625C2.01094 3.98433 1.98865 4.01428 1.9688 4.04584L1.96151 4.05834C1.94352 4.08964 1.92819 4.12239 1.91568 4.15625C1.91332 4.1605 1.91156 4.16506 1.91047 4.16979C1.899 4.20376 1.89029 4.23859 1.88442 4.27396C1.88493 4.27916 1.88493 4.28439 1.88442 4.28959C1.88023 4.31787 1.87814 4.34641 1.87817 4.375V15C1.87817 15.3315 2.00987 15.6495 2.24429 15.8839C2.47871 16.1183 2.79665 16.25 3.12817 16.25H16.8782C17.2097 16.25 17.5276 16.1183 17.7621 15.8839C17.9965 15.6495 18.1282 15.3315 18.1282 15V4.375C18.1266 4.34638 18.1235 4.31786 18.1188 4.28959ZM15.8928 5L10 10.4021L4.1063 5H15.8928ZM3.12505 15V5.79584L9.57713 11.7135C9.69241 11.8192 9.84313 11.8779 9.99953 11.8779C10.1559 11.8779 10.3066 11.8192 10.4219 11.7135L16.875 5.79896V15.0031L3.12505 15Z" fill="#666666"/>
</svg>
