<svg width="20" height="20" viewBox="0 0 20 20" fill="none" xmlns="http://www.w3.org/2000/svg">
<path d="M8.36456 7.27186C8.36423 7.27014 8.36423 7.26838 8.36456 7.26666L4.21977 2.70728C4.10816 2.58462 3.95239 2.51132 3.78674 2.5035C3.62108 2.49569 3.4591 2.554 3.33644 2.66561C3.21378 2.77723 3.14048 2.933 3.13266 3.09865C3.12485 3.26431 3.18316 3.42629 3.29478 3.54895L4.79165 5.19895C3.02496 6.30346 1.60089 7.8783 0.67915 9.74687C0.643689 9.82673 0.625366 9.91313 0.625366 10.0005C0.625366 10.0879 0.643689 10.1743 0.67915 10.2542C1.22533 11.3686 1.95573 12.3829 2.83957 13.2542C4.79894 15.2146 7.27498 16.25 9.99478 16.25H10.0739C11.4478 16.2476 12.8062 15.9592 14.0625 15.4031L15.7833 17.2958C15.8949 17.4185 16.0507 17.4918 16.2164 17.4996C16.382 17.5074 16.544 17.4491 16.6666 17.3375C16.7893 17.2259 16.8626 17.0701 16.8704 16.9045C16.8782 16.7388 16.8199 16.5768 16.7083 16.4542L8.36456 7.27186ZM7.9104 8.62603L11.1656 12.2073C10.8097 12.3968 10.4126 12.4958 10.0094 12.4958H9.99998C9.54936 12.4955 9.10719 12.3734 8.72027 12.1424C8.33335 11.9114 8.01605 11.5802 7.80194 11.1836C7.58784 10.7871 7.48488 10.3401 7.50398 9.88991C7.52307 9.43969 7.66349 9.00299 7.9104 8.62603ZM9.99998 15C7.59582 15 5.49373 14.126 3.75519 12.4021C3.04045 11.6927 2.43207 10.8836 1.94894 9.99999C2.31873 9.31249 3.49477 7.38437 5.6479 6.14582L7.05102 7.68957C6.61822 8.24289 6.34953 8.90665 6.27558 9.60523C6.20163 10.3038 6.32539 11.0091 6.63276 11.6408C6.94012 12.2725 7.41873 12.8051 8.01406 13.178C8.60939 13.5509 9.2975 13.7491 9.99998 13.75L10.0135 13.75C10.7277 13.7502 11.4268 13.5444 12.0271 13.1573L13.1729 14.4208C12.1613 14.8123 11.0847 15.0088 9.99998 15Z" fill="#666666"/>
<path d="M19.3208 9.74583C18.7746 8.63137 18.0442 7.61712 17.1604 6.74583C15.201 4.78541 12.725 3.74999 9.99998 3.74999C9.4231 3.74972 8.84719 3.7971 8.27811 3.89166C8.11722 3.92199 7.97466 4.01423 7.88107 4.14857C7.78748 4.2829 7.75034 4.4486 7.77763 4.61003C7.80492 4.77146 7.89446 4.91573 8.02701 5.01184C8.15956 5.10794 8.32452 5.1482 8.48644 5.12395C8.98665 5.04081 9.49291 4.99934 9.99998 4.99999C12.4041 4.99999 14.5052 5.87395 16.2448 7.59791C16.9595 8.30733 17.5679 9.1164 18.051 9.99999C17.4872 11.0307 16.7533 11.9587 15.8802 12.7448C15.819 12.7995 15.7691 12.8657 15.7335 12.9397C15.6979 13.0137 15.6772 13.094 15.6726 13.1759C15.668 13.2579 15.6796 13.34 15.7067 13.4175C15.7339 13.495 15.776 13.5664 15.8307 13.6276C15.8854 13.6888 15.9517 13.7387 16.0256 13.7743C16.0996 13.8099 16.1799 13.8306 16.2619 13.8352C16.3438 13.8398 16.4259 13.8282 16.5034 13.801C16.5809 13.7739 16.6523 13.7318 16.7135 13.6771C17.7949 12.7154 18.6793 11.5529 19.3177 10.2542C19.3538 10.1744 19.3727 10.0879 19.3733 10.0003C19.3738 9.91275 19.3559 9.82605 19.3208 9.74583Z" fill="#666666"/>
<path d="M12.4875 9.76145C12.5021 9.9169 12.5743 10.0613 12.6899 10.1661C12.8056 10.271 12.9564 10.3288 13.1125 10.3281H13.1719C13.3367 10.3125 13.4887 10.2322 13.5944 10.1046C13.7 9.97708 13.7508 9.81282 13.7354 9.64791C13.6585 8.83959 13.3217 8.07794 12.7757 7.47703C12.2296 6.87612 11.5035 6.46827 10.7062 6.31457C10.6251 6.29817 10.5416 6.29803 10.4604 6.31417C10.3793 6.33031 10.3021 6.3624 10.2335 6.40858C10.1648 6.45476 10.106 6.51411 10.0605 6.5832C10.015 6.65228 9.98359 6.72971 9.96821 6.81101C9.95284 6.89231 9.95376 6.97586 9.97092 7.0568C9.98808 7.13774 10.0211 7.21447 10.0682 7.28254C10.1152 7.3506 10.1753 7.40865 10.245 7.45331C10.3146 7.49797 10.3925 7.52835 10.4739 7.5427C11.0042 7.64539 11.4869 7.91705 11.8499 8.31702C12.2129 8.71698 12.4366 9.22374 12.4875 9.76145Z" fill="#666666"/>
</svg>
