<svg width="20" height="20" viewBox="0 0 20 20" fill="none" xmlns="http://www.w3.org/2000/svg">
<path d="M19.3209 9.74583C18.7742 8.63166 18.0439 7.61748 17.1605 6.74583C15.2011 4.78541 12.724 3.75 10 3.75C7.27608 3.75 4.79899 4.78541 2.83858 6.74583C1.95555 7.61781 1.22525 8.63192 0.67816 9.74583C0.642548 9.82584 0.624146 9.91243 0.624146 10C0.624146 10.0876 0.642548 10.1742 0.67816 10.2542C1.22525 11.3681 1.95555 12.3822 2.83858 13.2542C4.79899 15.2146 7.27504 16.25 10 16.25C12.725 16.25 15.2011 15.2146 17.1605 13.2542C18.0439 12.3825 18.7742 11.3683 19.3209 10.2542C19.3565 10.1742 19.3749 10.0876 19.3749 10C19.3749 9.91243 19.3565 9.82584 19.3209 9.74583ZM16.2448 12.4021C14.5052 14.126 12.4042 15 10 15C7.59587 15 5.49379 14.126 3.75004 12.4021C3.035 11.6929 2.42659 10.8838 1.94378 10C2.42659 9.1162 3.035 8.30709 3.75004 7.59792C5.48858 5.87396 7.58962 5 10 5C12.4105 5 14.5052 5.87396 16.2448 7.59792C16.9597 8.30699 17.5678 9.11613 18.05 10C17.5674 10.8836 16.9593 11.6927 16.2448 12.4021Z" fill="#666666"/>
<path d="M10 6.25C9.25836 6.25 8.53333 6.46993 7.91665 6.88199C7.29996 7.29404 6.81932 7.87971 6.53549 8.56494C6.25166 9.25016 6.17739 10.0042 6.32209 10.7316C6.46678 11.459 6.82394 12.1272 7.34839 12.6517C7.87283 13.1761 8.54102 13.5332 9.26845 13.6779C9.99588 13.8226 10.7499 13.7484 11.4351 13.4645C12.1203 13.1807 12.706 12.7001 13.118 12.0834C13.5301 11.4667 13.75 10.7417 13.75 10C13.75 9.00544 13.3549 8.05161 12.6517 7.34835C11.9484 6.64509 10.9946 6.25 10 6.25ZM10 12.5C9.50558 12.5 9.02223 12.3534 8.61111 12.0787C8.19999 11.804 7.87955 11.4135 7.69034 10.9567C7.50112 10.4999 7.45161 9.99722 7.54807 9.51227C7.64454 9.02732 7.88264 8.58186 8.23227 8.23223C8.5819 7.8826 9.02736 7.6445 9.51231 7.54804C9.99726 7.45157 10.4999 7.50108 10.9567 7.6903C11.4136 7.87952 11.804 8.19995 12.0787 8.61108C12.3534 9.0222 12.5 9.50555 12.5 10C12.5 10.663 12.2366 11.2989 11.7678 11.7678C11.299 12.2366 10.6631 12.5 10 12.5Z" fill="#666666"/>
</svg>
