<svg width="20" height="20" viewBox="0 0 20 20" fill="none" xmlns="http://www.w3.org/2000/svg">
<path d="M19.3208 9.74583C18.7742 8.63166 18.0438 7.61748 17.1604 6.74583C15.201 4.78541 12.7239 3.75 9.99998 3.75C7.27602 3.75 4.79893 4.78541 2.83852 6.74583C1.95549 7.61781 1.22519 8.63192 0.678099 9.74583C0.642487 9.82584 0.624084 9.91243 0.624084 10C0.624084 10.0876 0.642487 10.1742 0.678099 10.2542C1.22519 11.3681 1.95549 12.3822 2.83852 13.2542C4.79893 15.2146 7.27497 16.25 9.99998 16.25C12.725 16.25 15.201 15.2146 17.1604 13.2542C18.0438 12.3825 18.7742 11.3683 19.3208 10.2542C19.3564 10.1742 19.3748 10.0876 19.3748 10C19.3748 9.91243 19.3564 9.82584 19.3208 9.74583ZM16.2448 12.4021C14.5052 14.126 12.4041 15 9.99998 15C7.59581 15 5.49372 14.126 3.74997 12.4021C3.03494 11.6929 2.42653 10.8838 1.94372 10C2.42653 9.1162 3.03494 8.30709 3.74997 7.59792C5.48852 5.87396 7.58956 5 9.99998 5C12.4104 5 14.5052 5.87396 16.2448 7.59792C16.9596 8.30699 17.5677 9.11613 18.05 10C17.5673 10.8836 16.9593 11.6927 16.2448 12.4021Z" fill="#666666"/>
<path d="M9.99998 6.25C9.2583 6.25 8.53327 6.46993 7.91658 6.88199C7.2999 7.29404 6.81925 7.87971 6.53543 8.56494C6.2516 9.25016 6.17733 10.0042 6.32203 10.7316C6.46672 11.459 6.82388 12.1272 7.34832 12.6517C7.87277 13.1761 8.54096 13.5332 9.26839 13.6779C9.99581 13.8226 10.7498 13.7484 11.435 13.4645C12.1203 13.1807 12.7059 12.7001 13.118 12.0834C13.53 11.4667 13.75 10.7417 13.75 10C13.75 9.00544 13.3549 8.05161 12.6516 7.34835C11.9484 6.64509 10.9945 6.25 9.99998 6.25ZM9.99998 12.5C9.50552 12.5 9.02217 12.3534 8.61105 12.0787C8.19993 11.804 7.87949 11.4135 7.69027 10.9567C7.50106 10.4999 7.45155 9.99722 7.54801 9.51227C7.64447 9.02732 7.88258 8.58186 8.23221 8.23223C8.58184 7.8826 9.0273 7.6445 9.51225 7.54804C9.9972 7.45157 10.4999 7.50108 10.9567 7.6903C11.4135 7.87952 11.8039 8.19995 12.0786 8.61108C12.3534 9.0222 12.5 9.50555 12.5 10C12.5 10.663 12.2366 11.2989 11.7677 11.7678C11.2989 12.2366 10.663 12.5 9.99998 12.5Z" fill="#666666"/>
</svg>
