<svg width="20" height="20" viewBox="0 0 20 20" fill="none" xmlns="http://www.w3.org/2000/svg">
<path d="M17.4958 5.23751C17.4867 4.86864 17.4044 4.50525 17.2539 4.16839C17.1033 3.83152 16.8874 3.52787 16.6187 3.27501C15.5271 2.23334 13.7541 2.26876 12.6677 3.35522L10.9541 5.07084C10.596 4.74989 10.1291 4.57731 9.64833 4.58814C9.16755 4.59898 8.70891 4.79242 8.36559 5.12918L7.81872 5.67605L7.8083 5.68543C7.57623 5.92109 7.44702 6.23913 7.44898 6.56987C7.45093 6.90061 7.58388 7.2171 7.81872 7.45001L7.97809 7.60939L4.04476 11.5396C3.84964 11.7331 3.68115 11.9517 3.54372 12.1896L3.53226 12.2094C3.1639 12.8553 3.039 13.6117 3.18018 14.3417L2.42184 16.0833C2.33292 16.2832 2.30702 16.5054 2.34759 16.7204C2.38816 16.9353 2.49327 17.1328 2.64893 17.2865C2.82695 17.4603 3.05281 17.5771 3.29758 17.6218C3.54235 17.6665 3.79489 17.6372 4.02289 17.5375L5.66143 16.8229C6.16222 16.9193 6.67905 16.8908 7.16616 16.7398C7.65328 16.5888 8.09566 16.32 8.45414 15.9573L11.4187 12.9938C11.4596 12.9612 11.4966 12.9242 11.5291 12.8833L12.3875 12.025L12.5468 12.1844L12.5573 12.1948C12.7929 12.4269 13.111 12.5561 13.4417 12.5541C13.7724 12.5522 14.0889 12.4192 14.3218 12.1844L14.8718 11.6344C15.2069 11.2906 15.3989 10.8323 15.4089 10.3524C15.419 9.87239 15.2464 9.40652 14.926 9.04897L16.6833 7.30001L16.7323 7.24897C16.9861 6.98076 17.1843 6.66491 17.3153 6.31966C17.4464 5.97441 17.5077 5.60661 17.4958 5.23751ZM7.5708 15.0761C7.33992 15.3097 7.05109 15.4778 6.73389 15.5631C6.41669 15.6484 6.08252 15.6478 5.7656 15.5615C5.62735 15.5235 5.48024 15.5341 5.34893 15.5917L3.67601 16.3208L4.40518 14.6458C4.46274 14.5145 4.47341 14.3674 4.43539 14.2292C4.33591 13.8636 4.35119 13.4764 4.47914 13.1198H9.51872L7.5708 15.0761ZM10.7718 11.875H5.47706L8.85935 8.49376L11.5062 11.1406L10.7718 11.875ZM15.8198 6.38959L13.6052 8.60522C13.5471 8.66326 13.501 8.73219 13.4695 8.80807C13.4381 8.88394 13.4219 8.96527 13.4219 9.04741C13.4219 9.12954 13.4381 9.21087 13.4695 9.28675C13.501 9.36262 13.5471 9.43155 13.6052 9.4896L13.9843 9.86876C14.0998 9.98722 14.1644 10.1461 14.1644 10.3115C14.1644 10.4769 14.0998 10.6357 13.9843 10.7542L13.4312 11.3011L8.69684 6.55939L9.23956 6.01564C9.35859 5.89901 9.51874 5.8339 9.68539 5.83438C9.84963 5.83369 10.0075 5.89768 10.125 6.01251L10.5083 6.3948C10.6255 6.51184 10.7843 6.57759 10.95 6.57759C11.1156 6.57759 11.2745 6.51184 11.3916 6.3948L13.551 4.23751C13.8394 3.94323 14.231 3.77262 14.6429 3.76173C15.0548 3.75085 15.4548 3.90054 15.7583 4.17918C16.0592 4.46392 16.2347 4.85651 16.2462 5.27062C16.2578 5.68473 16.1044 6.08647 15.8198 6.38751V6.38959Z" fill="#666666"/>
</svg>
