<svg width="20" height="20" viewBox="0 0 20 20" fill="none" xmlns="http://www.w3.org/2000/svg">
<path d="M17.4959 5.23751C17.4867 4.86864 17.4045 4.50525 17.2539 4.16839C17.1034 3.83152 16.8875 3.52787 16.6188 3.27501C15.5271 2.23334 13.7542 2.26876 12.6677 3.35522L10.9542 5.07084C10.5961 4.74989 10.1292 4.57731 9.64839 4.58814C9.16761 4.59898 8.70897 4.79242 8.36566 5.12918L7.81878 5.67605L7.80836 5.68543C7.57629 5.92109 7.44709 6.23913 7.44904 6.56987C7.45099 6.90061 7.58394 7.2171 7.81878 7.45001L7.97816 7.60939L4.04482 11.5396C3.8497 11.7331 3.68121 11.9517 3.54378 12.1896L3.53232 12.2094C3.16396 12.8553 3.03906 13.6117 3.18024 14.3417L2.42191 16.0833C2.33298 16.2832 2.30708 16.5054 2.34765 16.7204C2.38822 16.9353 2.49334 17.1328 2.64899 17.2865C2.82701 17.4603 3.05287 17.5771 3.29764 17.6218C3.54241 17.6665 3.79495 17.6372 4.02295 17.5375L5.66149 16.8229C6.16228 16.9193 6.67911 16.8908 7.16622 16.7398C7.65334 16.5888 8.09572 16.32 8.4542 15.9573L11.4188 12.9938C11.4596 12.9612 11.4967 12.9242 11.5292 12.8833L12.3875 12.025L12.5469 12.1844L12.5573 12.1948C12.793 12.4269 13.111 12.5561 13.4418 12.5541C13.7725 12.5522 14.089 12.4192 14.3219 12.1844L14.8719 11.6344C15.207 11.2906 15.3989 10.8323 15.409 10.3524C15.419 9.87239 15.2464 9.40652 14.9261 9.04897L16.6834 7.30001L16.7323 7.24897C16.9862 6.98076 17.1844 6.66491 17.3154 6.31966C17.4465 5.97441 17.5078 5.60661 17.4959 5.23751ZM7.57086 15.0761C7.33998 15.3097 7.05115 15.4778 6.73395 15.5631C6.41675 15.6484 6.08258 15.6478 5.76566 15.5615C5.62741 15.5235 5.4803 15.5341 5.34899 15.5917L3.67607 16.3208L4.40524 14.6458C4.4628 14.5145 4.47347 14.3674 4.43545 14.2292C4.33598 13.8636 4.35125 13.4764 4.4792 13.1198H9.51878L7.57086 15.0761ZM10.7719 11.875H5.47712L8.85941 8.49376L11.5063 11.1406L10.7719 11.875ZM15.8198 6.38959L13.6052 8.60522C13.5471 8.66326 13.501 8.73219 13.4696 8.80807C13.4381 8.88394 13.4219 8.96527 13.4219 9.04741C13.4219 9.12954 13.4381 9.21087 13.4696 9.28675C13.501 9.36262 13.5471 9.43155 13.6052 9.4896L13.9844 9.86876C14.0998 9.98722 14.1644 10.1461 14.1644 10.3115C14.1644 10.4769 14.0998 10.6357 13.9844 10.7542L13.4313 11.3011L8.69691 6.55939L9.23962 6.01564C9.35865 5.89901 9.5188 5.8339 9.68545 5.83438C9.84969 5.83369 10.0076 5.89768 10.125 6.01251L10.5084 6.3948C10.6256 6.51184 10.7844 6.57759 10.95 6.57759C11.1157 6.57759 11.2745 6.51184 11.3917 6.3948L13.5511 4.23751C13.8395 3.94323 14.231 3.77262 14.6429 3.76173C15.0548 3.75085 15.4548 3.90054 15.7584 4.17918C16.0593 4.46392 16.2348 4.85651 16.2463 5.27062C16.2578 5.68473 16.1044 6.08647 15.8198 6.38751V6.38959Z" fill="#666666"/>
</svg>
