<svg width="20" height="20" viewBox="0 0 20 20" fill="none" xmlns="http://www.w3.org/2000/svg">
<path d="M16.8719 6.81249C16.8719 6.7979 16.8719 6.78228 16.8646 6.7677C16.8573 6.75311 16.8646 6.75728 16.8646 6.75207C16.8612 6.73478 16.8566 6.71773 16.851 6.70103C16.851 6.70103 16.851 6.69582 16.851 6.6927C16.8459 6.67564 16.8396 6.65894 16.8323 6.64269C16.8324 6.64027 16.8324 6.63783 16.8323 6.6354C16.826 6.61978 16.8177 6.60415 16.8104 6.58957C16.81 6.58646 16.81 6.58331 16.8104 6.58019L16.7854 6.53957C16.7834 6.53519 16.7809 6.531 16.7781 6.52707C16.7694 6.51408 16.76 6.50156 16.75 6.48957C16.7476 6.48551 16.7448 6.48168 16.7417 6.47811C16.7292 6.46222 16.7156 6.44725 16.701 6.43332L12.326 2.05832C12.3115 2.04364 12.2962 2.02973 12.2802 2.01665L12.2708 2.00936L12.2312 1.98019L12.2219 1.97499L12.1792 1.94894H12.1719C12.1563 1.94046 12.1403 1.93281 12.1239 1.92603C12.1062 1.91978 12.0885 1.91249 12.0698 1.90728C12.052 1.90179 12.0339 1.89727 12.0156 1.89374H12.0021L11.9552 1.88644H11.8927H4.3927C4.06118 1.88644 3.74324 2.01814 3.50882 2.25256C3.2744 2.48698 3.1427 2.80492 3.1427 3.13644V16.8864C3.1427 17.218 3.2744 17.5359 3.50882 17.7703C3.74324 18.0047 4.06118 18.1364 4.3927 18.1364H15.6427C15.9742 18.1364 16.2922 18.0047 16.5266 17.7703C16.761 17.5359 16.8927 17.218 16.8927 16.8864V6.88644C16.8809 6.85867 16.874 6.83401 16.8719 6.81249ZM12.4969 4.00936L14.7375 6.24999H12.5L12.4969 4.00936ZM4.37187 16.875V3.12499H11.2469V6.87499C11.2469 7.04075 11.3127 7.19972 11.4299 7.31693C11.5471 7.43414 11.7061 7.49999 11.8719 7.49999H15.6219V16.875H4.37187Z" fill="#666666"/>
</svg>
