<svg width="20" height="20" viewBox="0 0 20 20" fill="none" xmlns="http://www.w3.org/2000/svg">
<path d="M17.1365 6.25314L13.7448 2.86147C13.6295 2.74623 13.4926 2.65496 13.3419 2.59292C13.1912 2.53088 13.0296 2.4993 12.8667 2.50001H3.75C3.41848 2.50001 3.10054 2.63171 2.86612 2.86613C2.6317 3.10055 2.5 3.41849 2.5 3.75001V16.25C2.5 16.5815 2.6317 16.8995 2.86612 17.1339C3.10054 17.3683 3.41848 17.5 3.75 17.5H16.25C16.5815 17.5 16.8995 17.3683 17.1339 17.1339C17.3683 16.8995 17.5 16.5815 17.5 16.25V7.13334C17.4991 6.80358 17.3686 6.48739 17.1365 6.25314ZM13.125 16.2531H6.875V11.8781H13.125V16.2531ZM16.25 16.2531H14.375V11.8781C14.375 11.5466 14.2433 11.2287 14.0089 10.9943C13.7745 10.7598 13.4565 10.6281 13.125 10.6281H6.875C6.54348 10.6281 6.22554 10.7598 5.99112 10.9943C5.7567 11.2287 5.625 11.5466 5.625 11.8781V16.2531H3.75V3.75314H12.8625L16.25 7.14064V16.2531Z" fill="#666666"/>
<path d="M11.875 5.00001H7.5C7.33424 5.00001 7.17527 5.06586 7.05806 5.18307C6.94085 5.30028 6.875 5.45925 6.875 5.62501C6.875 5.79077 6.94085 5.94974 7.05806 6.06696C7.17527 6.18417 7.33424 6.25001 7.5 6.25001H11.875C12.0408 6.25001 12.1997 6.18417 12.3169 6.06696C12.4342 5.94974 12.5 5.79077 12.5 5.62501C12.5 5.45925 12.4342 5.30028 12.3169 5.18307C12.1997 5.06586 12.0408 5.00001 11.875 5.00001Z" fill="#666666"/>
</svg>
