<svg width="20" height="20" viewBox="0 0 20 20" fill="none" xmlns="http://www.w3.org/2000/svg">
<path d="M10 5.625C9.13473 5.625 8.28887 5.88159 7.5694 6.36232C6.84994 6.84305 6.28918 7.52633 5.95805 8.32576C5.62692 9.12518 5.54028 10.0049 5.70909 10.8535C5.8779 11.7022 6.29458 12.4817 6.90643 13.0936C7.51829 13.7054 8.29784 14.1221 9.14651 14.2909C9.99517 14.4597 10.8748 14.3731 11.6743 14.042C12.4737 13.7108 13.157 13.1501 13.6377 12.4306C14.1184 11.7112 14.375 10.8653 14.375 10C14.375 8.83967 13.9141 7.72688 13.0936 6.9064C12.2731 6.08593 11.1603 5.625 10 5.625ZM10 13.125C9.38196 13.125 8.77777 12.9417 8.26387 12.5983C7.74996 12.255 7.34943 11.7669 7.1129 11.1959C6.87638 10.6249 6.81449 9.99653 6.93507 9.39034C7.05565 8.78415 7.35328 8.22733 7.79032 7.79029C8.22736 7.35325 8.78418 7.05562 9.39037 6.93504C9.99656 6.81446 10.6249 6.87635 11.1959 7.11287C11.7669 7.3494 12.255 7.74994 12.5984 8.26384C12.9417 8.77775 13.125 9.38193 13.125 10C13.125 10.8288 12.7958 11.6237 12.2097 12.2097C11.6237 12.7958 10.8288 13.125 10 13.125Z" fill="#666666"/>
<path d="M18.3438 11.749L17.1813 10.2021C17.1813 10.0635 17.1813 9.91771 17.1813 9.80104L18.3469 8.25C18.4041 8.17406 18.4432 8.08609 18.4612 7.99277C18.4793 7.89945 18.4758 7.80323 18.4511 7.71146C18.2552 6.98713 17.9667 6.2911 17.5927 5.64062C17.5454 5.55857 17.4799 5.48836 17.4014 5.4353C17.3229 5.38225 17.2334 5.34774 17.1396 5.33437L15.2229 5.06042C15.1323 4.96562 15.0386 4.87292 14.9438 4.78125L14.6698 2.86458C14.6565 2.77078 14.6219 2.68124 14.5689 2.60274C14.5158 2.52424 14.4456 2.45883 14.3636 2.41146C13.7129 2.03606 13.0161 1.74716 12.2906 1.55208C12.199 1.52752 12.103 1.52413 12.0099 1.54218C11.9168 1.56023 11.829 1.59924 11.7532 1.65625L10.2115 2.81458C10.074 2.80937 9.9344 2.80937 9.79482 2.81458L8.24586 1.65625C8.17004 1.59924 8.08225 1.56023 7.98912 1.54218C7.896 1.52413 7.79998 1.52752 7.70836 1.55208C6.98522 1.74802 6.29054 2.03689 5.64169 2.41146C5.55964 2.45883 5.48943 2.52424 5.43637 2.60274C5.38332 2.68124 5.3488 2.77078 5.33544 2.86458L5.06148 4.78437C4.96773 4.875 4.87607 4.96667 4.78544 5.06042L2.86565 5.33437C2.77185 5.34774 2.68231 5.38225 2.60381 5.4353C2.52531 5.48836 2.4599 5.55857 2.41252 5.64062C2.03713 6.29091 1.74824 6.98742 1.55315 7.7125C1.52858 7.80412 1.5252 7.90014 1.54324 7.99326C1.56129 8.08639 1.6003 8.17418 1.65732 8.25L2.81982 9.79791C2.81982 9.93541 2.81982 10.0823 2.81982 10.199L1.65523 11.749C1.59806 11.8249 1.55896 11.9129 1.54091 12.0062C1.52286 12.0995 1.52634 12.1957 1.55107 12.2875C1.74743 13.0121 2.037 13.7082 2.41252 14.3583C2.45978 14.4406 2.52514 14.511 2.60365 14.5642C2.68216 14.6175 2.77175 14.6521 2.86565 14.6656L4.7844 14.9427C4.87502 15.0354 4.96669 15.1281 5.06044 15.2187L5.3344 17.1385C5.34791 17.2322 5.38249 17.3215 5.43554 17.3998C5.48859 17.4781 5.55872 17.5434 5.64065 17.5906C6.29073 17.9664 6.98729 18.2554 7.71253 18.45C7.80415 18.4746 7.90016 18.4779 7.99329 18.4599C8.08641 18.4419 8.17421 18.4028 8.25003 18.3458L9.79273 17.1875C9.93023 17.1927 10.0688 17.1927 10.2094 17.1875L11.7511 18.3458C11.8595 18.4272 11.9915 18.4711 12.1271 18.4708C12.182 18.4708 12.2367 18.4634 12.2896 18.449C13.0139 18.2531 13.71 17.9646 14.3604 17.5906C14.4427 17.5434 14.5131 17.478 14.5663 17.3995C14.6196 17.321 14.6543 17.2314 14.6677 17.1375L14.9417 15.2177C15.0365 15.125 15.1365 15.0229 15.2156 14.9417L17.1375 14.6677C17.2311 14.6542 17.3205 14.6196 17.3988 14.5666C17.4771 14.5135 17.5423 14.4434 17.5896 14.3615C17.9654 13.711 18.2544 13.0141 18.449 12.2885C18.4737 12.1965 18.4771 12.1001 18.4589 12.0066C18.4407 11.913 18.4013 11.8249 18.3438 11.749ZM16.65 13.4719L14.8261 13.7323C14.6874 13.752 14.5594 13.8176 14.4625 13.9187C14.3646 14.0229 14.0761 14.3177 13.9281 14.4542C13.8219 14.5518 13.7527 14.6832 13.7323 14.826L13.4719 16.649C13.0806 16.8543 12.6717 17.0241 12.25 17.1562L10.774 16.0469C10.6507 15.9542 10.4974 15.9104 10.3438 15.924C10.1151 15.9448 9.88497 15.9448 9.65628 15.924C9.50262 15.9104 9.34939 15.9542 9.22607 16.0469L7.74898 17.1562C7.32731 17.0246 6.91836 16.8551 6.52711 16.65L6.26669 14.826C6.2469 14.6864 6.18046 14.5575 6.07815 14.4604C5.89378 14.2854 5.71252 14.1052 5.53961 13.9219C5.44226 13.8197 5.31358 13.753 5.17398 13.7323L3.35002 13.4719C3.14559 13.0803 2.97618 12.6714 2.84378 12.25L3.95315 10.776C4.03993 10.6601 4.08375 10.5176 4.07711 10.3729C4.06878 10.1833 4.06148 9.82187 4.07711 9.65833C4.09063 9.50467 4.04685 9.35145 3.95419 9.22812L2.84482 7.75104C2.97605 7.32868 3.14514 6.91904 3.35002 6.52708L5.17398 6.26666C5.3129 6.24643 5.44096 6.18001 5.53752 6.07812C5.71148 5.89375 5.89273 5.7125 6.07607 5.53958C6.17837 5.44248 6.24482 5.31362 6.26461 5.17396L6.52503 3.35C6.91695 3.14554 7.32618 2.97613 7.74794 2.84375L9.22398 3.95312C9.34718 4.04595 9.50061 4.08942 9.65419 4.075C9.88293 4.05521 10.113 4.05521 10.3417 4.075C10.4952 4.08882 10.6484 4.04541 10.7719 3.95312L12.249 2.84375C12.6704 2.97525 13.079 3.1447 13.4698 3.35L13.7302 5.17396C13.7506 5.3168 13.8198 5.4482 13.9261 5.54583C14.1094 5.71458 14.2865 5.89167 14.4521 6.06667C14.5493 6.17347 14.6809 6.24278 14.824 6.2625L16.6469 6.52292C16.8519 6.91435 17.0217 7.32325 17.1542 7.74479L16.0448 9.22187C15.9577 9.33769 15.9135 9.4802 15.9198 9.625C15.9282 9.81458 15.9365 10.176 15.9198 10.3385C15.906 10.4925 15.9498 10.6462 16.0427 10.7698L17.1521 12.2469C17.0222 12.6696 16.8541 13.0796 16.65 13.4719Z" fill="#666666"/>
</svg>
