<svg width="20" height="20" viewBox="0 0 20 20" fill="none" xmlns="http://www.w3.org/2000/svg">
<path d="M17.6688 12.6802C18.2771 10.9452 18.2771 9.0548 17.6688 7.31978C17.6688 7.31249 17.6688 7.3052 17.6615 7.29686C17.1019 5.71197 16.0645 4.33962 14.6924 3.36893C13.3202 2.39824 11.6808 1.87698 10 1.87698C8.31924 1.87698 6.67982 2.39824 5.30767 3.36893C3.93551 4.33962 2.89817 5.71197 2.33857 7.29686C2.33857 7.3052 2.33336 7.31249 2.33128 7.31978C1.72291 9.0548 1.72291 10.9452 2.33128 12.6802C2.33128 12.6875 2.33128 12.6948 2.33857 12.7021C2.89817 14.287 3.93551 15.6593 5.30767 16.63C6.67982 17.6007 8.31924 18.1219 10 18.1219C11.6808 18.1219 13.3202 17.6007 14.6924 16.63C16.0645 15.6593 17.1019 14.287 17.6615 12.7021C17.6636 12.6948 17.6667 12.6875 17.6688 12.6802ZM10 16.6719C9.17399 16.6719 8.28024 15.2729 7.81774 13.125H12.1823C11.7198 15.2729 10.8261 16.6719 10 16.6719ZM7.61044 11.875C7.46322 10.6293 7.46322 9.37065 7.61044 8.12499H12.3896C12.5368 9.37065 12.5368 10.6293 12.3896 11.875H7.61044ZM3.12503 9.99999C3.1253 9.36592 3.21329 8.73494 3.38649 8.12499H6.34794C6.21739 9.37158 6.21739 10.6284 6.34794 11.875H3.38649C3.21329 11.265 3.1253 10.6341 3.12503 9.99999ZM10 3.32811C10.8261 3.32811 11.7198 4.72707 12.1875 6.87499H7.82295C8.28024 4.72707 9.17399 3.32811 10 3.32811ZM13.6521 8.12499H16.6125C16.9625 9.35049 16.9625 10.6495 16.6125 11.875H13.6521C13.7827 10.6284 13.7827 9.37158 13.6521 8.12499ZM16.1209 6.87499H13.4677C13.2011 5.48436 12.7563 4.3177 12.1865 3.48436C13.8891 4.05969 15.3004 5.27598 16.1209 6.87499ZM7.81357 3.48436C7.24378 4.3177 6.79899 5.4854 6.53232 6.87603H3.87919C4.6994 5.27663 6.11077 4.05994 7.81357 3.48436ZM3.87919 13.126H6.53232C6.79899 14.5156 7.24378 15.6823 7.81357 16.5177C6.11081 15.9415 4.69954 14.7245 3.87919 13.125V13.126ZM12.1865 16.5177C12.7563 15.6844 13.2011 14.5156 13.4677 13.126H16.1209C15.3001 14.7248 13.8889 15.9409 12.1865 16.5167V16.5177Z" fill="#666666"/>
</svg>
