<svg width="20" height="20" viewBox="0 0 20 20" fill="none" xmlns="http://www.w3.org/2000/svg">
<path d="M10.1208 1.875H10.001C7.85658 1.87494 5.79906 2.72267 4.27705 4.23336C2.75504 5.74405 1.89198 7.79519 1.87604 9.93958V14.375C1.87604 14.8723 2.07358 15.3492 2.42521 15.7008C2.77684 16.0525 3.25376 16.25 3.75104 16.25H5.00104C5.49832 16.25 5.97523 16.0525 6.32686 15.7008C6.67849 15.3492 6.87604 14.8723 6.87604 14.375V11.25C6.87604 10.7527 6.67849 10.2758 6.32686 9.92418C5.97523 9.57255 5.49832 9.375 5.00104 9.375H3.15312C3.30992 7.65663 4.10715 6.06005 5.38654 4.90223C6.66593 3.74441 8.33393 3.11002 10.0594 3.125H10.1208C11.8353 3.12707 13.4873 3.7689 14.7535 4.92489C16.0197 6.08087 16.8089 7.66777 16.9667 9.375H15.1208C14.6235 9.375 14.1466 9.57255 13.795 9.92418C13.4434 10.2758 13.2458 10.7527 13.2458 11.25V14.375C13.2458 14.8723 13.4434 15.3492 13.795 15.7008C14.1466 16.0525 14.6235 16.25 15.1208 16.25H16.3708C16.5836 16.2514 16.795 16.2161 16.9958 16.1458V16.25C16.9958 16.7473 16.7983 17.2242 16.4467 17.5758C16.095 17.9275 15.6181 18.125 15.1208 18.125H10.625C10.4592 18.125 10.3003 18.1909 10.1831 18.3081C10.0658 18.4253 9.99999 18.5842 9.99999 18.75C9.99999 18.9158 10.0658 19.0747 10.1831 19.1919C10.3003 19.3092 10.4592 19.375 10.625 19.375H15.1208C15.9496 19.375 16.7445 19.0458 17.3305 18.4597C17.9166 17.8737 18.2458 17.0788 18.2458 16.25V10C18.2433 7.84588 17.3865 5.78069 15.8633 4.2575C14.3401 2.7343 12.275 1.87748 10.1208 1.875ZM5.00312 10.625C5.16888 10.625 5.32785 10.6909 5.44506 10.8081C5.56227 10.9253 5.62812 11.0842 5.62812 11.25V14.375C5.62812 14.5408 5.56227 14.6997 5.44506 14.8169C5.32785 14.9342 5.16888 15 5.00312 15H3.75312C3.58736 15 3.42839 14.9342 3.31118 14.8169C3.19397 14.6997 3.12812 14.5408 3.12812 14.375V10.625H5.00312ZM16.3698 15H15.1208C14.9551 15 14.7961 14.9342 14.6789 14.8169C14.5617 14.6997 14.4958 14.5408 14.4958 14.375V11.25C14.4958 11.0842 14.5617 10.9253 14.6789 10.8081C14.7961 10.6909 14.9551 10.625 15.1208 10.625H16.9958V14.375C16.9958 14.5408 16.93 14.6997 16.8128 14.8169C16.6956 14.9342 16.5366 15 16.3708 15H16.3698Z" fill="#666666"/>
</svg>
