<svg width="20" height="20" viewBox="0 0 20 20" fill="none" xmlns="http://www.w3.org/2000/svg">
<path d="M16.25 17.5H3.75C3.41848 17.5 3.10054 17.3683 2.86612 17.1339C2.6317 16.8995 2.5 16.5815 2.5 16.25V9.02293C2.50207 8.85156 2.53843 8.68235 2.60695 8.52527C2.67547 8.36819 2.77476 8.22643 2.89896 8.10834L2.90729 8.10001L9.15729 2.4198C9.38688 2.20772 9.68796 2.08994 10.0005 2.08994C10.3131 2.08994 10.6142 2.20772 10.8438 2.4198L17.0938 8.09792L17.1031 8.10626C17.2265 8.22303 17.3253 8.36323 17.3938 8.51866C17.4623 8.6741 17.4991 8.84163 17.5021 9.01147V16.2479C17.5024 16.4124 17.4702 16.5754 17.4073 16.7274C17.3445 16.8794 17.2523 17.0176 17.136 17.1339C17.0196 17.2502 16.8815 17.3424 16.7295 17.4053C16.5774 17.4681 16.4145 17.5003 16.25 17.5ZM3.75625 9.01772C3.75226 9.02194 3.75003 9.02753 3.75 9.03334V16.25H16.25V9.02293C16.25 9.02293 16.25 9.02292 16.2437 9.01772L10.001 3.3448L3.75625 9.01772Z" fill="#666666"/>
</svg>
