<svg width="18" height="20" viewBox="0 0 18 20" fill="none" xmlns="http://www.w3.org/2000/svg">
<g id="image-legend">
<path id="Vector" d="M13.9 2H4.1C3.54 2 3.008 2.22261 2.616 2.61217C2.224 3.00174 2 3.53739 2 4.08696V13.8261C2 14.3826 2.224 14.9113 2.616 15.3009C3.008 15.6904 3.547 15.913 4.1 15.913H13.9C14.012 15.913 14.131 15.8991 14.243 15.8783L14.453 15.8296H14.537L14.796 15.7322L14.887 15.6835C14.957 15.6417 15.034 15.607 15.104 15.5583C15.195 15.4887 15.286 15.4122 15.37 15.3357L15.419 15.273C15.489 15.2035 15.552 15.127 15.608 15.0504L15.671 14.96C15.72 14.8835 15.762 14.8 15.797 14.7165C15.818 14.6817 15.832 14.647 15.846 14.6122C15.881 14.5287 15.902 14.4383 15.93 14.3478V14.2435C15.972 14.1043 15.993 13.9652 16 13.8261V4.08696C16 3.53043 15.776 3.00174 15.384 2.61217C14.992 2.22261 14.453 2 13.9 2ZM4.1 14.5217C3.911 14.5217 3.736 14.4452 3.603 14.32C3.47 14.1878 3.4 14.0139 3.4 13.8261V10.8278L5.703 8.53217C5.766 8.46957 5.843 8.41391 5.934 8.37913C6.025 8.34435 6.109 8.32348 6.2 8.32348C6.291 8.32348 6.382 8.34435 6.466 8.37913C6.55 8.41391 6.627 8.46957 6.697 8.53217L12.717 14.5217H4.1ZM14.6 13.8261C14.6 13.9096 14.586 14 14.551 14.0765C14.537 14.1113 14.516 14.1461 14.495 14.1739C14.474 14.2017 14.453 14.2296 14.432 14.2574L10.687 10.5357L11.303 9.92348C11.366 9.86087 11.443 9.80522 11.534 9.77043C11.618 9.73565 11.709 9.71478 11.8 9.71478C11.891 9.71478 11.982 9.73565 12.066 9.77043C12.15 9.80522 12.227 9.86087 12.297 9.92348L14.6 12.2191V13.8261ZM14.6 10.2504L13.284 8.95652C12.885 8.58087 12.353 8.36522 11.8 8.36522C11.247 8.36522 10.715 8.57391 10.316 8.95652L9.7 9.5687L7.684 7.56522C7.285 7.18957 6.753 6.97391 6.2 6.97391C5.647 6.97391 5.115 7.18261 4.716 7.56522L3.4 8.85913V4.08696C3.4 3.89913 3.477 3.72522 3.603 3.59304C3.736 3.46087 3.911 3.3913 4.1 3.3913H13.9C14.089 3.3913 14.264 3.46783 14.397 3.59304C14.53 3.72522 14.6 3.89913 14.6 4.08696V10.2504ZM10.05 4.78261C9.84 4.78261 9.637 4.84522 9.469 4.95652C9.294 5.06783 9.161 5.23478 9.084 5.42261C9.007 5.61044 8.986 5.82609 9.021 6.02783C9.063 6.22957 9.161 6.41739 9.308 6.56348C9.455 6.70957 9.644 6.80696 9.847 6.8487C10.05 6.89043 10.26 6.86957 10.456 6.78609C10.645 6.70957 10.813 6.57044 10.925 6.40348C11.037 6.22957 11.1 6.02783 11.1 5.82609C11.1 5.54783 10.988 5.28348 10.792 5.0887C10.596 4.89391 10.33 4.78261 10.05 4.78261ZM2 17.3043C2 16.9217 2.315 16.6087 2.7 16.6087H15.3C15.685 16.6087 16 16.9217 16 17.3043C16 17.687 15.685 18 15.3 18H2.7C2.315 18 2 17.687 2 17.3043Z" fill="#697586"/>
</g>
</svg>
