<svg width="20" height="20" viewBox="0 0 20 20" fill="none" xmlns="http://www.w3.org/2000/svg">
<path d="M16.25 3.125H3.75C3.40482 3.125 3.125 3.40482 3.125 3.75V16.25C3.125 16.5952 3.40482 16.875 3.75 16.875H16.25C16.5952 16.875 16.875 16.5952 16.875 16.25V3.75C16.875 3.40482 16.5952 3.125 16.25 3.125Z" stroke="#434343" stroke-width="1.4" stroke-linecap="round" stroke-linejoin="round"/>
<path d="M16.875 12.5L13.5703 9.19532C13.5122 9.13627 13.4428 9.08937 13.3664 9.05736C13.2899 9.02535 13.2079 9.00887 13.125 9.00887C13.0421 9.00887 12.9601 9.02535 12.8836 9.05736C12.8072 9.08937 12.7378 9.13627 12.6797 9.19532L9.19531 12.6797C9.13716 12.7387 9.06784 12.7856 8.99139 12.8177C8.91494 12.8497 8.83288 12.8662 8.75 12.8662C8.66712 12.8662 8.58506 12.8497 8.50861 12.8177C8.43216 12.7856 8.36284 12.7387 8.30469 12.6797L6.69531 11.0703C6.63716 11.0113 6.56784 10.9644 6.49139 10.9324C6.41494 10.9003 6.33288 10.8839 6.25 10.8839C6.16712 10.8839 6.08506 10.9003 6.00861 10.9324C5.93216 10.9644 5.86284 11.0113 5.80469 11.0703L3.125 13.75" stroke="#434343" stroke-width="1.4" stroke-linecap="round" stroke-linejoin="round"/>
<path d="M7.8125 8.125C8.33027 8.125 8.75 7.70527 8.75 7.1875C8.75 6.66973 8.33027 6.25 7.8125 6.25C7.29473 6.25 6.875 6.66973 6.875 7.1875C6.875 7.70527 7.29473 8.125 7.8125 8.125Z" fill="#434343"/>
</svg>
