<svg width="20" height="20" viewBox="0 0 20 20" fill="none" xmlns="http://www.w3.org/2000/svg">
<g id="image-position">
<path id="Vector" d="M2.49996 10H7.49996C7.72097 10 7.93293 9.91221 8.08921 9.75593C8.24549 9.59965 8.33329 9.38769 8.33329 9.16668V4.16668C8.33329 3.94566 8.24549 3.7337 8.08921 3.57742C7.93293 3.42114 7.72097 3.33334 7.49996 3.33334H2.49996C2.27895 3.33334 2.06698 3.42114 1.9107 3.57742C1.75442 3.7337 1.66663 3.94566 1.66663 4.16668V9.16668C1.66663 9.38769 1.75442 9.59965 1.9107 9.75593C2.06698 9.91221 2.27895 10 2.49996 10ZM3.33329 5.00001H6.66663V8.33334H3.33329V5.00001ZM10.8333 6.66668H17.5C17.721 6.66668 17.9329 6.57888 18.0892 6.4226C18.2455 6.26632 18.3333 6.05436 18.3333 5.83334C18.3333 5.61233 18.2455 5.40037 18.0892 5.24409C17.9329 5.08781 17.721 5.00001 17.5 5.00001H10.8333C10.6123 5.00001 10.4003 5.08781 10.244 5.24409C10.0878 5.40037 9.99996 5.61233 9.99996 5.83334C9.99996 6.05436 10.0878 6.26632 10.244 6.4226C10.4003 6.57888 10.6123 6.66668 10.8333 6.66668ZM10.8333 15H2.49996C2.27895 15 2.06698 15.0878 1.9107 15.2441C1.75442 15.4004 1.66663 15.6123 1.66663 15.8333C1.66663 16.0544 1.75442 16.2663 1.9107 16.4226C2.06698 16.5789 2.27895 16.6667 2.49996 16.6667H10.8333C11.0543 16.6667 11.2663 16.5789 11.4225 16.4226C11.5788 16.2663 11.6666 16.0544 11.6666 15.8333C11.6666 15.6123 11.5788 15.4004 11.4225 15.2441C11.2663 15.0878 11.0543 15 10.8333 15ZM17.5 11.6667H2.49996C2.27895 11.6667 2.06698 11.7545 1.9107 11.9108C1.75442 12.067 1.66663 12.279 1.66663 12.5C1.66663 12.721 1.75442 12.933 1.9107 13.0893C2.06698 13.2455 2.27895 13.3333 2.49996 13.3333H17.5C17.721 13.3333 17.9329 13.2455 18.0892 13.0893C18.2455 12.933 18.3333 12.721 18.3333 12.5C18.3333 12.279 18.2455 12.067 18.0892 11.9108C17.9329 11.7545 17.721 11.6667 17.5 11.6667ZM17.5 8.33334H10.8333C10.6123 8.33334 10.4003 8.42114 10.244 8.57742C10.0878 8.7337 9.99996 8.94566 9.99996 9.16668C9.99996 9.38769 10.0878 9.59965 10.244 9.75593C10.4003 9.91221 10.6123 10 10.8333 10H17.5C17.721 10 17.9329 9.91221 18.0892 9.75593C18.2455 9.59965 18.3333 9.38769 18.3333 9.16668C18.3333 8.94566 18.2455 8.7337 18.0892 8.57742C17.9329 8.42114 17.721 8.33334 17.5 8.33334Z" fill="#697586"/>
</g>
</svg>
