<svg width="21" height="20" viewBox="0 0 21 20" fill="none" xmlns="http://www.w3.org/2000/svg">
<path d="M15.4 2H5.6C5.04 2 4.508 2.22261 4.116 2.61217C3.724 3.00174 3.5 3.53739 3.5 4.08696V13.8261C3.5 14.3826 3.724 14.9113 4.116 15.3009C4.508 15.6904 5.047 15.913 5.6 15.913H15.4C15.512 15.913 15.631 15.8991 15.743 15.8783L15.953 15.8296H16.037L16.296 15.7322L16.387 15.6835C16.457 15.6417 16.534 15.607 16.604 15.5583C16.695 15.4887 16.786 15.4122 16.87 15.3357L16.919 15.273C16.989 15.2035 17.052 15.127 17.108 15.0504L17.171 14.96C17.22 14.8835 17.262 14.8 17.297 14.7165C17.318 14.6817 17.332 14.647 17.346 14.6122C17.381 14.5287 17.402 14.4383 17.43 14.3478V14.2435C17.472 14.1043 17.493 13.9652 17.5 13.8261V4.08696C17.5 3.53043 17.276 3.00174 16.884 2.61217C16.492 2.22261 15.953 2 15.4 2ZM5.6 14.5217C5.411 14.5217 5.236 14.4452 5.103 14.32C4.97 14.1878 4.9 14.0139 4.9 13.8261V10.8278L7.203 8.53217C7.266 8.46957 7.343 8.41391 7.434 8.37913C7.525 8.34435 7.609 8.32348 7.7 8.32348C7.791 8.32348 7.882 8.34435 7.966 8.37913C8.05 8.41391 8.127 8.46957 8.197 8.53217L14.217 14.5217H5.6ZM16.1 13.8261C16.1 13.9096 16.086 14 16.051 14.0765C16.037 14.1113 16.016 14.1461 15.995 14.1739C15.974 14.2017 15.953 14.2296 15.932 14.2574L12.187 10.5357L12.803 9.92348C12.866 9.86087 12.943 9.80522 13.034 9.77043C13.118 9.73565 13.209 9.71478 13.3 9.71478C13.391 9.71478 13.482 9.73565 13.566 9.77043C13.65 9.80522 13.727 9.86087 13.797 9.92348L16.1 12.2191V13.8261ZM16.1 10.2504L14.784 8.95652C14.385 8.58087 13.853 8.36522 13.3 8.36522C12.747 8.36522 12.215 8.57391 11.816 8.95652L11.2 9.5687L9.184 7.56522C8.785 7.18957 8.253 6.97391 7.7 6.97391C7.147 6.97391 6.615 7.18261 6.216 7.56522L4.9 8.85913V4.08696C4.9 3.89913 4.977 3.72522 5.103 3.59304C5.236 3.46087 5.411 3.3913 5.6 3.3913H15.4C15.589 3.3913 15.764 3.46783 15.897 3.59304C16.03 3.72522 16.1 3.89913 16.1 4.08696V10.2504ZM11.55 4.78261C11.34 4.78261 11.137 4.84522 10.969 4.95652C10.794 5.06783 10.661 5.23478 10.584 5.42261C10.507 5.61044 10.486 5.82609 10.521 6.02783C10.563 6.22957 10.661 6.41739 10.808 6.56348C10.955 6.70957 11.144 6.80696 11.347 6.8487C11.55 6.89043 11.76 6.86957 11.956 6.78609C12.145 6.70957 12.313 6.57044 12.425 6.40348C12.537 6.22957 12.6 6.02783 12.6 5.82609C12.6 5.54783 12.488 5.28348 12.292 5.0887C12.096 4.89391 11.83 4.78261 11.55 4.78261ZM3.5 17.3043C3.5 16.9217 3.815 16.6087 4.2 16.6087H16.8C17.185 16.6087 17.5 16.9217 17.5 17.3043C17.5 17.687 17.185 18 16.8 18H4.2C3.815 18 3.5 17.687 3.5 17.3043Z" fill="#697586"/>
</svg>
