<svg width="20" height="20" viewBox="0 0 20 20" fill="none" xmlns="http://www.w3.org/2000/svg">
<path d="M16.875 3.125H3.125C2.79348 3.125 2.47554 3.2567 2.24112 3.49112C2.0067 3.72554 1.875 4.04348 1.875 4.375V15.625C1.875 15.9565 2.0067 16.2745 2.24112 16.5089C2.47554 16.7433 2.79348 16.875 3.125 16.875H16.875C17.2065 16.875 17.5245 16.7433 17.7589 16.5089C17.9933 16.2745 18.125 15.9565 18.125 15.625V4.375C18.125 4.04348 17.9933 3.72554 17.7589 3.49112C17.5245 3.2567 17.2065 3.125 16.875 3.125ZM3.125 4.375H16.875V12.8656L14.6375 10.6281C14.6338 10.6249 14.6303 10.6214 14.6271 10.6177C14.3932 10.3874 14.0782 10.2583 13.75 10.2583H13.7406C13.5771 10.2592 13.4154 10.2923 13.2647 10.3557C13.114 10.4192 12.9773 10.5118 12.8625 10.6281L11.2469 12.2344L7.7625 8.75C7.75877 8.74679 7.75529 8.74331 7.75208 8.73959C7.51642 8.50752 7.19838 8.3783 6.86764 8.38026C6.5369 8.38221 6.22041 8.51516 5.9875 8.75L3.125 11.6135V4.375ZM3.125 15.625V13.3802L6.875 9.63021L10.3563 13.1104C10.471 13.228 10.6081 13.3215 10.7594 13.3855C10.9107 13.4495 11.0732 13.4828 11.2375 13.4833H11.2469C11.5753 13.4843 11.8907 13.3551 12.124 13.124L12.1344 13.1146L13.75 11.5052L16.875 14.6302V15.6219L3.125 15.625Z" fill="#666666"/>
<path d="M12.1875 8.75C12.7053 8.75 13.125 8.33027 13.125 7.8125C13.125 7.29473 12.7053 6.875 12.1875 6.875C11.6697 6.875 11.25 7.29473 11.25 7.8125C11.25 8.33027 11.6697 8.75 12.1875 8.75Z" fill="#666666"/>
</svg>
