<svg width="20" height="20" viewBox="0 0 20 20" fill="none" xmlns="http://www.w3.org/2000/svg">
<path d="M10 1.875C8.39303 1.875 6.82214 2.35152 5.48599 3.24431C4.14985 4.13709 3.10844 5.40605 2.49348 6.8907C1.87852 8.37535 1.71762 10.009 2.03112 11.5851C2.34463 13.1612 3.11846 14.6089 4.25476 15.7452C5.39106 16.8815 6.8388 17.6554 8.4149 17.9689C9.99099 18.2824 11.6247 18.1215 13.1093 17.5065C14.594 16.8916 15.8629 15.8502 16.7557 14.514C17.6485 13.1779 18.125 11.607 18.125 10C18.1225 7.84588 17.2657 5.78069 15.7425 4.2575C14.2193 2.7343 12.1541 1.87748 10 1.875ZM10 16.875C8.64026 16.875 7.31105 16.4718 6.18046 15.7164C5.04987 14.9609 4.16868 13.8872 3.64833 12.6309C3.12798 11.3747 2.99183 9.99237 3.2571 8.65875C3.52238 7.32513 4.17716 6.10013 5.13864 5.13864C6.10013 4.17715 7.32514 3.52237 8.65876 3.2571C9.99238 2.99183 11.3747 3.12798 12.631 3.64833C13.8872 4.16868 14.9609 5.04987 15.7164 6.18046C16.4718 7.31104 16.875 8.64025 16.875 10C16.8731 11.8228 16.1481 13.5703 14.8592 14.8592C13.5703 16.1481 11.8228 16.8731 10 16.875Z" fill="#666666"/>
<path d="M10.625 13.125V9.375C10.625 9.20924 10.5592 9.05027 10.4419 8.93306C10.3247 8.81585 10.1658 8.75 10 8.75H9.375C9.20924 8.75 9.05027 8.81585 8.93306 8.93306C8.81585 9.05027 8.75 9.20924 8.75 9.375C8.75 9.54076 8.81585 9.69973 8.93306 9.81694C9.05027 9.93415 9.20924 10 9.375 10V13.75C9.375 13.9158 9.44085 14.0747 9.55806 14.1919C9.67527 14.3092 9.83424 14.375 10 14.375H10.625C10.7908 14.375 10.9497 14.3092 11.0669 14.1919C11.1842 14.0747 11.25 13.9158 11.25 13.75C11.25 13.5842 11.1842 13.4253 11.0669 13.3081C10.9497 13.1908 10.7908 13.125 10.625 13.125Z" fill="#666666"/>
<path d="M9.84375 7.5C10.3615 7.5 10.7813 7.08027 10.7813 6.5625C10.7813 6.04473 10.3615 5.625 9.84375 5.625C9.32599 5.625 8.90625 6.04473 8.90625 6.5625C8.90625 7.08027 9.32599 7.5 9.84375 7.5Z" fill="#666666"/>
</svg>
