<svg width="20" height="20" viewBox="0 0 20 20" fill="none" xmlns="http://www.w3.org/2000/svg">
<path d="M12.2041 6.90208L6.90726 12.2073C6.84849 12.2652 6.80175 12.3341 6.76976 12.4102C6.73777 12.4862 6.72115 12.5679 6.72087 12.6504C6.72058 12.7329 6.73663 12.8146 6.76809 12.8909C6.79956 12.9672 6.84581 13.0364 6.90418 13.0948C6.96256 13.1531 7.03189 13.1992 7.1082 13.2306C7.18451 13.262 7.26627 13.2779 7.34877 13.2775C7.43127 13.2772 7.51288 13.2604 7.58889 13.2284C7.6649 13.1963 7.73381 13.1495 7.79164 13.0906L13.0885 7.78541C13.2041 7.66782 13.2685 7.50931 13.2677 7.34443C13.267 7.17955 13.2011 7.02166 13.0844 6.90514C12.9678 6.78862 12.8098 6.72292 12.6449 6.72234C12.48 6.72177 12.3216 6.78637 12.2041 6.90208Z" fill="#666666"/>
<path d="M10.8864 13.5344L8.67497 15.7458C8.08818 16.3321 7.29254 16.6612 6.46308 16.6608C5.63362 16.6604 4.83829 16.3305 4.25206 15.7438C3.66582 15.157 3.33669 14.3613 3.33708 13.5319C3.33747 12.7024 3.66735 11.9071 4.25414 11.3208L6.4656 9.10937C6.58117 8.99177 6.64558 8.83327 6.64481 8.66839C6.64405 8.50351 6.57816 8.34562 6.4615 8.2291C6.34485 8.11258 6.18687 8.04687 6.02199 8.0463C5.85711 8.04573 5.69869 8.11033 5.58122 8.22604L3.37081 10.4417C2.54974 11.2623 2.08831 12.3755 2.08801 13.5364C2.08772 14.6973 2.54859 15.8107 3.36924 16.6318C4.18989 17.4528 5.3031 17.9143 6.46397 17.9146C7.62484 17.9149 8.73828 17.454 9.55935 16.6333L11.7698 14.4219C11.8855 14.3044 11.9501 14.146 11.9495 13.9811C11.9489 13.8162 11.8832 13.6582 11.7667 13.5416C11.6502 13.4249 11.4923 13.359 11.3274 13.3583C11.1625 13.3575 11.004 13.4219 10.8864 13.5375V13.5344Z" fill="#666666"/>
<path d="M16.6291 3.37083C16.2229 2.96437 15.7405 2.64194 15.2096 2.42196C14.6786 2.20197 14.1096 2.08875 13.5349 2.08875C12.9602 2.08875 12.3911 2.20197 11.8602 2.42196C11.3293 2.64194 10.8469 2.96437 10.4406 3.37083L8.23018 5.58229C8.11978 5.70077 8.05968 5.85747 8.06253 6.01939C8.06539 6.18131 8.13098 6.3358 8.2455 6.45031C8.36001 6.56482 8.51449 6.63041 8.67641 6.63327C8.83833 6.63612 8.99503 6.57602 9.11351 6.46562L11.325 4.25521C11.9112 3.66897 12.7063 3.33962 13.5354 3.33962C14.3645 3.33962 15.1596 3.66897 15.7458 4.25521C16.332 4.84145 16.6614 5.63656 16.6614 6.46562C16.6614 7.29469 16.332 8.0898 15.7458 8.67604L13.5343 10.8865C13.4756 10.9444 13.4288 11.0133 13.3968 11.0894C13.3649 11.1654 13.3482 11.247 13.3479 11.3295C13.3477 11.412 13.3637 11.4938 13.3952 11.5701C13.4266 11.6463 13.4729 11.7156 13.5313 11.7739C13.5896 11.8322 13.659 11.8784 13.7353 11.9098C13.8116 11.9411 13.8933 11.9571 13.9759 11.9567C14.0584 11.9563 14.14 11.9396 14.216 11.9075C14.292 11.8754 14.3609 11.8286 14.4187 11.7698L16.6291 9.55937C17.0356 9.15309 17.358 8.67071 17.578 8.13979C17.798 7.60886 17.9112 7.0398 17.9112 6.4651C17.9112 5.89041 17.798 5.32134 17.578 4.79042C17.358 4.25949 17.0356 3.77711 16.6291 3.37083Z" fill="#666666"/>
</svg>
