<svg width="20" height="20" viewBox="0 0 20 20" fill="none" xmlns="http://www.w3.org/2000/svg">
<path d="M16.4302 3.83541C16.0701 3.44037 15.6357 3.12014 15.1519 2.89299C14.668 2.66584 14.1442 2.53623 13.6102 2.51157C13.0763 2.4869 12.5427 2.56766 12.0399 2.74923C11.5372 2.9308 11.0751 3.20963 10.6802 3.56979C10.6727 3.57584 10.6658 3.58246 10.6593 3.58958L9.11247 5.13646C9.05107 5.19367 9.00182 5.26267 8.96766 5.33934C8.9335 5.41601 8.91513 5.49877 8.91365 5.58269C8.91217 5.6666 8.92761 5.74996 8.95904 5.82779C8.99047 5.90561 9.03726 5.9763 9.09661 6.03565C9.15596 6.095 9.22665 6.14179 9.30448 6.17322C9.3823 6.20466 9.46566 6.2201 9.54958 6.21862C9.6335 6.21713 9.71626 6.19877 9.79292 6.16461C9.86959 6.13045 9.93859 6.08119 9.99581 6.01979L11.5323 4.48437C12.0687 3.99891 12.7712 3.7382 13.4944 3.75618C14.2177 3.77415 14.9064 4.06943 15.418 4.58094C15.9297 5.09245 16.2251 5.78105 16.2433 6.5043C16.2614 7.22755 16.0009 7.93012 15.5156 8.46666L13.3146 10.6604C12.7874 11.1858 12.0734 11.4809 11.3291 11.4809C10.5848 11.4809 9.8709 11.1858 9.34372 10.6604C9.2862 10.6019 9.21771 10.5552 9.14216 10.5231C9.06662 10.4911 8.98549 10.4742 8.90341 10.4735C8.82134 10.4727 8.73993 10.4882 8.66383 10.5189C8.58772 10.5497 8.51842 10.5951 8.45987 10.6526C8.40132 10.7101 8.35468 10.7786 8.3226 10.8542C8.29052 10.9297 8.27364 11.0108 8.27291 11.0929C8.27219 11.175 8.28763 11.2564 8.31837 11.3325C8.34911 11.4086 8.39453 11.4779 8.45206 11.5365L8.4656 11.55C9.2279 12.3059 10.2584 12.7293 11.3319 12.7277C12.4054 12.7261 13.4347 12.2997 14.1948 11.5417L16.4094 9.34479L16.4302 9.32395C17.1187 8.57592 17.5009 7.59637 17.5009 6.57968C17.5009 5.56299 17.1187 4.58345 16.4302 3.83541Z" fill="#666666"/>
<path d="M10.0031 13.9802L8.46664 15.5156C7.9305 16.0033 7.22714 16.2659 6.50255 16.2487C5.77796 16.2316 5.0878 15.9361 4.5753 15.4236C4.06279 14.9111 3.76731 14.221 3.75019 13.4964C3.73306 12.7718 3.99559 12.0684 4.48331 11.5323L6.68435 9.34479C7.21038 8.81967 7.9229 8.52414 8.66618 8.52277C9.40946 8.5214 10.1231 8.81432 10.651 9.3375L10.6666 9.35312C10.7861 9.46805 10.9464 9.5308 11.1121 9.52758C11.2779 9.52436 11.4356 9.45542 11.5505 9.33594C11.6654 9.21645 11.7282 9.0562 11.725 8.89045C11.7217 8.72469 11.6528 8.56701 11.5333 8.45208C10.771 7.69622 9.74052 7.27282 8.66701 7.27438C7.5935 7.27594 6.56424 7.70235 5.80414 8.46042L3.59268 10.6646L3.57185 10.6854C3.05122 11.2567 2.70402 11.9645 2.57083 12.7259C2.43765 13.4873 2.52399 14.2709 2.81976 14.985C3.11553 15.6991 3.60851 16.3143 4.24104 16.7586C4.87357 17.2028 5.61952 17.4578 6.39164 17.4937C6.45622 17.4937 6.52081 17.4937 6.58435 17.4937C7.59724 17.4943 8.5733 17.1139 9.31872 16.4281C9.32616 16.4221 9.33313 16.4155 9.33956 16.4083L10.8864 14.8656C10.9968 14.7471 11.0569 14.5904 11.0541 14.4285C11.0512 14.2666 10.9856 14.1121 10.8711 13.9976C10.7566 13.8831 10.6021 13.8175 10.4402 13.8146C10.2783 13.8118 10.1216 13.8719 10.0031 13.9823V13.9802Z" fill="#666666"/>
</svg>
