<svg width="20" height="20" viewBox="0 0 20 20" fill="none" xmlns="http://www.w3.org/2000/svg">
<path d="M6.875 5.625H16.875C17.0408 5.625 17.1997 5.55915 17.3169 5.44194C17.4342 5.32473 17.5 5.16576 17.5 5C17.5 4.83424 17.4342 4.67527 17.3169 4.55806C17.1997 4.44085 17.0408 4.375 16.875 4.375H6.875C6.70924 4.375 6.55027 4.44085 6.43306 4.55806C6.31585 4.67527 6.25 4.83424 6.25 5C6.25 5.16576 6.31585 5.32473 6.43306 5.44194C6.55027 5.55915 6.70924 5.625 6.875 5.625Z" fill="#666666"/>
<path d="M16.875 9.375H6.875C6.70924 9.375 6.55027 9.44085 6.43306 9.55806C6.31585 9.67527 6.25 9.83424 6.25 10C6.25 10.1658 6.31585 10.3247 6.43306 10.4419C6.55027 10.5592 6.70924 10.625 6.875 10.625H16.875C17.0408 10.625 17.1997 10.5592 17.3169 10.4419C17.4342 10.3247 17.5 10.1658 17.5 10C17.5 9.83424 17.4342 9.67527 17.3169 9.55806C17.1997 9.44085 17.0408 9.375 16.875 9.375Z" fill="#666666"/>
<path d="M16.875 14.375H6.875C6.70924 14.375 6.55027 14.4408 6.43306 14.5581C6.31585 14.6753 6.25 14.8342 6.25 15C6.25 15.1658 6.31585 15.3247 6.43306 15.4419C6.55027 15.5591 6.70924 15.625 6.875 15.625H16.875C17.0408 15.625 17.1997 15.5591 17.3169 15.4419C17.4342 15.3247 17.5 15.1658 17.5 15C17.5 14.8342 17.4342 14.6753 17.3169 14.5581C17.1997 14.4408 17.0408 14.375 16.875 14.375Z" fill="#666666"/>
<path d="M3.4375 5.9375C3.95527 5.9375 4.375 5.51777 4.375 5C4.375 4.48223 3.95527 4.0625 3.4375 4.0625C2.91973 4.0625 2.5 4.48223 2.5 5C2.5 5.51777 2.91973 5.9375 3.4375 5.9375Z" fill="#666666"/>
<path d="M3.4375 10.9375C3.95527 10.9375 4.375 10.5178 4.375 10C4.375 9.48223 3.95527 9.0625 3.4375 9.0625C2.91973 9.0625 2.5 9.48223 2.5 10C2.5 10.5178 2.91973 10.9375 3.4375 10.9375Z" fill="#666666"/>
<path d="M3.4375 15.9375C3.95527 15.9375 4.375 15.5178 4.375 15C4.375 14.4822 3.95527 14.0625 3.4375 14.0625C2.91973 14.0625 2.5 14.4822 2.5 15C2.5 15.5178 2.91973 15.9375 3.4375 15.9375Z" fill="#666666"/>
</svg>
