<svg width="20" height="20" viewBox="0 0 20 20" fill="none" xmlns="http://www.w3.org/2000/svg">
<path d="M16.8749 9.375H8.12494C7.95918 9.375 7.80021 9.44085 7.683 9.55806C7.56579 9.67527 7.49994 9.83424 7.49994 10C7.49994 10.1658 7.56579 10.3247 7.683 10.4419C7.80021 10.5592 7.95918 10.625 8.12494 10.625H16.8749C17.0407 10.625 17.1997 10.5592 17.3169 10.4419C17.4341 10.3247 17.4999 10.1658 17.4999 10C17.4999 9.83424 17.4341 9.67527 17.3169 9.55806C17.1997 9.44085 17.0407 9.375 16.8749 9.375Z" fill="#666666"/>
<path d="M8.12494 5.625H16.8749C17.0407 5.625 17.1997 5.55916 17.3169 5.44194C17.4341 5.32473 17.4999 5.16576 17.4999 5C17.4999 4.83424 17.4341 4.67527 17.3169 4.55806C17.1997 4.44085 17.0407 4.375 16.8749 4.375H8.12494C7.95918 4.375 7.80021 4.44085 7.683 4.55806C7.56579 4.67527 7.49994 4.83424 7.49994 5C7.49994 5.16576 7.56579 5.32473 7.683 5.44194C7.80021 5.55916 7.95918 5.625 8.12494 5.625Z" fill="#666666"/>
<path d="M16.8749 14.375H8.12494C7.95918 14.375 7.80021 14.4408 7.683 14.5581C7.56579 14.6753 7.49994 14.8342 7.49994 15C7.49994 15.1658 7.56579 15.3247 7.683 15.4419C7.80021 15.5592 7.95918 15.625 8.12494 15.625H16.8749C17.0407 15.625 17.1997 15.5592 17.3169 15.4419C17.4341 15.3247 17.4999 15.1658 17.4999 15C17.4999 14.8342 17.4341 14.6753 17.3169 14.5581C17.1997 14.4408 17.0407 14.375 16.8749 14.375Z" fill="#666666"/>
<path d="M3.40411 5.24688L3.74994 5.07396V8.4375C3.74994 8.60326 3.81579 8.76223 3.933 8.87944C4.05021 8.99665 4.20918 9.0625 4.37494 9.0625C4.5407 9.0625 4.69968 8.99665 4.81689 8.87944C4.9341 8.76223 4.99994 8.60326 4.99994 8.4375V4.0625C4.9998 3.95607 4.97248 3.85144 4.92057 3.75853C4.86866 3.66561 4.79388 3.5875 4.70333 3.53158C4.61277 3.47566 4.50943 3.44379 4.40311 3.43899C4.29679 3.43419 4.191 3.45663 4.09578 3.50417L2.84578 4.12917C2.76978 4.16424 2.7016 4.21422 2.64528 4.27615C2.58897 4.33807 2.54567 4.41067 2.51794 4.48965C2.49022 4.56863 2.47864 4.65237 2.4839 4.73591C2.48916 4.81944 2.51114 4.90107 2.54855 4.97595C2.58595 5.05083 2.63801 5.11743 2.70165 5.17181C2.76528 5.22618 2.83919 5.26723 2.91899 5.29249C2.99878 5.31776 3.08284 5.32674 3.16618 5.31891C3.24951 5.31107 3.33042 5.28658 3.40411 5.24688Z" fill="#666666"/>
<path d="M5.64161 13.3083C5.71366 13.2043 5.77377 13.0925 5.82078 12.975C5.98585 12.5534 5.97792 12.0837 5.7987 11.668C5.61948 11.2522 5.28345 10.9239 4.86361 10.7545C4.44376 10.585 3.97402 10.5881 3.55641 10.763C3.13881 10.9379 2.80707 11.2705 2.63328 11.6885C2.59639 11.7656 2.5757 11.8494 2.57247 11.9348C2.56925 12.0202 2.58356 12.1053 2.61453 12.1849C2.6455 12.2646 2.69247 12.337 2.75253 12.3977C2.81259 12.4585 2.88448 12.5063 2.96374 12.5382C3.043 12.5701 3.12796 12.5854 3.21337 12.5832C3.29878 12.5809 3.38282 12.5612 3.46031 12.5252C3.5378 12.4892 3.60708 12.4377 3.66388 12.3739C3.72069 12.3101 3.7638 12.2353 3.79057 12.1542C3.82502 12.068 3.88434 11.994 3.96098 11.9416C4.03762 11.8892 4.12811 11.8608 4.22093 11.8601C4.31376 11.8593 4.40471 11.8861 4.48222 11.9372C4.55974 11.9883 4.6203 12.0613 4.65619 12.1469C4.67992 12.2036 4.69213 12.2645 4.69213 12.326C4.69213 12.3876 4.67992 12.4485 4.65619 12.5052C4.64475 12.5345 4.63007 12.5625 4.61244 12.5885L2.62078 15.251C2.55143 15.3439 2.50927 15.4542 2.49901 15.5697C2.48875 15.6851 2.51078 15.8011 2.56266 15.9047C2.61453 16.0084 2.69419 16.0956 2.79275 16.1565C2.89131 16.2175 3.00488 16.2499 3.12077 16.25H5.30827C5.47404 16.25 5.63301 16.1842 5.75022 16.0669C5.86743 15.9497 5.93327 15.7908 5.93327 15.625C5.93327 15.4592 5.86743 15.3003 5.75022 15.1831C5.63301 15.0658 5.47404 15 5.30827 15H4.37077L5.62077 13.3281L5.64161 13.3083Z" fill="#666666"/>
</svg>
