<svg width="20" height="20" viewBox="0 0 20 20" fill="none" xmlns="http://www.w3.org/2000/svg">
<path d="M16.875 9.375H8.12501C7.95924 9.375 7.80027 9.44085 7.68306 9.55806C7.56585 9.67527 7.50001 9.83424 7.50001 10C7.50001 10.1658 7.56585 10.3247 7.68306 10.4419C7.80027 10.5592 7.95924 10.625 8.12501 10.625H16.875C17.0408 10.625 17.1997 10.5592 17.3169 10.4419C17.4342 10.3247 17.5 10.1658 17.5 10C17.5 9.83424 17.4342 9.67527 17.3169 9.55806C17.1997 9.44085 17.0408 9.375 16.875 9.375Z" fill="#666666"/>
<path d="M8.12501 5.625H16.875C17.0408 5.625 17.1997 5.55915 17.3169 5.44194C17.4342 5.32473 17.5 5.16576 17.5 5C17.5 4.83424 17.4342 4.67527 17.3169 4.55806C17.1997 4.44085 17.0408 4.375 16.875 4.375H8.12501C7.95924 4.375 7.80027 4.44085 7.68306 4.55806C7.56585 4.67527 7.50001 4.83424 7.50001 5C7.50001 5.16576 7.56585 5.32473 7.68306 5.44194C7.80027 5.55915 7.95924 5.625 8.12501 5.625Z" fill="#666666"/>
<path d="M16.875 14.375H8.12501C7.95924 14.375 7.80027 14.4408 7.68306 14.5581C7.56585 14.6753 7.50001 14.8342 7.50001 15C7.50001 15.1658 7.56585 15.3247 7.68306 15.4419C7.80027 15.5592 7.95924 15.625 8.12501 15.625H16.875C17.0408 15.625 17.1997 15.5592 17.3169 15.4419C17.4342 15.3247 17.5 15.1658 17.5 15C17.5 14.8342 17.4342 14.6753 17.3169 14.5581C17.1997 14.4408 17.0408 14.375 16.875 14.375Z" fill="#666666"/>
<path d="M3.40417 5.24688L3.75001 5.07396V8.4375C3.75001 8.60326 3.81585 8.76223 3.93306 8.87944C4.05027 8.99665 4.20924 9.0625 4.375 9.0625C4.54077 9.0625 4.69974 8.99665 4.81695 8.87944C4.93416 8.76223 5.00001 8.60326 5.00001 8.4375V4.0625C4.99986 3.95607 4.97254 3.85144 4.92063 3.75853C4.86872 3.66561 4.79394 3.5875 4.70339 3.53158C4.61283 3.47566 4.50949 3.44379 4.40317 3.43899C4.29685 3.43419 4.19106 3.45663 4.09584 3.50417L2.84584 4.12917C2.76984 4.16424 2.70166 4.21422 2.64534 4.27615C2.58903 4.33807 2.54573 4.41067 2.518 4.48965C2.49028 4.56863 2.4787 4.65237 2.48396 4.73591C2.48922 4.81944 2.5112 4.90107 2.54861 4.97595C2.58601 5.05083 2.63808 5.11743 2.70171 5.17181C2.76534 5.22618 2.83925 5.26723 2.91905 5.29249C2.99885 5.31776 3.0829 5.32674 3.16624 5.31891C3.24957 5.31107 3.33048 5.28658 3.40417 5.24688Z" fill="#666666"/>
<path d="M5.64167 13.3083C5.71372 13.2043 5.77383 13.0925 5.82084 12.975C5.98591 12.5534 5.97798 12.0837 5.79876 11.668C5.61954 11.2522 5.28351 10.9239 4.86367 10.7545C4.44383 10.585 3.97408 10.5881 3.55647 10.763C3.13887 10.9379 2.80714 11.2705 2.63334 11.6885C2.59645 11.7656 2.57576 11.8494 2.57253 11.9348C2.56931 12.0202 2.58362 12.1053 2.61459 12.1849C2.64556 12.2646 2.69253 12.337 2.75259 12.3977C2.81266 12.4585 2.88454 12.5063 2.9638 12.5382C3.04306 12.5701 3.12802 12.5854 3.21343 12.5832C3.29884 12.5809 3.38288 12.5612 3.46037 12.5252C3.53786 12.4892 3.60714 12.4377 3.66394 12.3739C3.72075 12.3101 3.76386 12.2353 3.79063 12.1542C3.82508 12.068 3.8844 11.994 3.96104 11.9416C4.03768 11.8892 4.12817 11.8608 4.22099 11.8601C4.31382 11.8593 4.40477 11.8861 4.48229 11.9372C4.5598 11.9883 4.62036 12.0613 4.65625 12.1469C4.67998 12.2036 4.69219 12.2645 4.69219 12.326C4.69219 12.3876 4.67998 12.4485 4.65625 12.5052C4.64481 12.5345 4.63013 12.5625 4.6125 12.5885L2.62084 15.251C2.55149 15.3439 2.50934 15.4542 2.49907 15.5697C2.48881 15.6851 2.51084 15.8011 2.56272 15.9047C2.61459 16.0084 2.69425 16.0956 2.79281 16.1565C2.89137 16.2175 3.00494 16.2499 3.12084 16.25H5.30834C5.4741 16.25 5.63307 16.1842 5.75028 16.0669C5.86749 15.9497 5.93334 15.7908 5.93334 15.625C5.93334 15.4592 5.86749 15.3003 5.75028 15.1831C5.63307 15.0658 5.4741 15 5.30834 15H4.37084L5.62084 13.3281L5.64167 13.3083Z" fill="#666666"/>
</svg>
