<svg width="20" height="20" viewBox="0 0 20 20" fill="none" xmlns="http://www.w3.org/2000/svg">
<path d="M17.9416 17.0583L14.5635 13.6802C15.7535 12.261 16.3496 10.4371 16.2277 8.58907C16.1058 6.741 15.2751 5.01133 13.909 3.76074C12.5429 2.51015 10.7467 1.83518 8.89512 1.87658C7.04349 1.91798 5.27932 2.67256 3.97046 3.98296C2.66161 5.29335 1.90912 7.05842 1.8699 8.91009C1.83068 10.7618 2.50777 12.5571 3.75996 13.9218C5.01216 15.2864 6.74281 16.115 8.59102 16.2347C10.4392 16.3545 12.2623 15.7562 13.6802 14.5646L17.0573 17.9417C17.1747 18.0574 17.3332 18.122 17.498 18.1214C17.6629 18.1208 17.8209 18.0551 17.9375 17.9386C18.0542 17.8221 18.1201 17.6642 18.1209 17.4993C18.1216 17.3344 18.0572 17.1759 17.9416 17.0583ZM3.12498 9.06249C3.12498 7.88816 3.4732 6.74021 4.12563 5.76379C4.77805 4.78737 5.70536 4.02635 6.79029 3.57695C7.87523 3.12756 9.06906 3.00998 10.2208 3.23908C11.3726 3.46818 12.4305 4.03367 13.2609 4.86404C14.0913 5.69442 14.6568 6.75238 14.8859 7.90414C15.115 9.0559 14.9974 10.2497 14.548 11.3347C14.0986 12.4196 13.3376 13.3469 12.3612 13.9993C11.3848 14.6518 10.2368 15 9.06248 15C7.48826 14.9983 5.97899 14.3722 4.86586 13.2591C3.75272 12.146 3.12663 10.6367 3.12498 9.06249Z" fill="#666666"/>
</svg>
