<svg width="20" height="20" viewBox="0 0 20 20" fill="none" xmlns="http://www.w3.org/2000/svg">
<path d="M4.39056 8.12501C4.38952 7.38406 4.53508 6.65022 4.81886 5.96576C5.10264 5.2813 5.51904 4.65975 6.04406 4.13691C6.56908 3.61407 7.19235 3.20026 7.87799 2.91933C8.56362 2.6384 9.29805 2.49589 10.039 2.50001C13.1327 2.52345 15.6093 5.09376 15.6093 8.19532V8.75001C15.6093 11.5469 16.1952 13.1719 16.7109 14.0625C16.7656 14.1574 16.7945 14.2649 16.7946 14.3745C16.7947 14.484 16.766 14.5916 16.7114 14.6866C16.6568 14.7815 16.5782 14.8604 16.4835 14.9155C16.3888 14.9705 16.2813 14.9996 16.1718 15H3.82806C3.71854 14.9996 3.61104 14.9705 3.51633 14.9155C3.42163 14.8604 3.34304 14.7815 3.28844 14.6866C3.23385 14.5916 3.20516 14.484 3.20526 14.3745C3.20536 14.2649 3.23423 14.1574 3.289 14.0625C3.80462 13.1719 4.39056 11.5469 4.39056 8.75001V8.12501Z" stroke="#666666" stroke-width="1.4" stroke-linecap="round" stroke-linejoin="round"/>
<path d="M7.5 15V15.625C7.5 16.288 7.76339 16.9239 8.23223 17.3928C8.70107 17.8616 9.33696 18.125 10 18.125C10.663 18.125 11.2989 17.8616 11.7678 17.3928C12.2366 16.9239 12.5 16.288 12.5 15.625V15" stroke="#666666" stroke-width="1.4" stroke-linecap="round" stroke-linejoin="round"/>
</svg>
