<svg width="20" height="20" viewBox="0 0 20 20" fill="none" xmlns="http://www.w3.org/2000/svg">
<path d="M17.175 5.21356L10.6125 1.50522C10.4255 1.39775 10.2136 1.34119 9.99793 1.34119C9.78225 1.34119 9.57034 1.39775 9.38335 1.50522L2.82085 5.21668C2.62822 5.32618 2.46793 5.4846 2.35617 5.67593C2.24441 5.86725 2.18515 6.08469 2.18439 6.30626V13.7021C2.18711 13.9236 2.24815 14.1404 2.36135 14.3308C2.47454 14.5211 2.63591 14.6783 2.82918 14.7865L9.39168 18.4938C9.57984 18.6023 9.79322 18.6594 10.0104 18.6594C10.225 18.6598 10.4359 18.6038 10.6219 18.4969L17.1844 14.7854C17.3764 14.676 17.5363 14.5181 17.648 14.3274C17.7597 14.1367 17.8193 13.92 17.8208 13.699V6.29689C17.8176 6.07554 17.7563 5.85894 17.6429 5.6688C17.5295 5.47865 17.3682 5.32166 17.175 5.21356ZM16.5594 13.6979L9.99689 17.4073L3.43439 13.6948V6.29897L9.99689 2.5896L16.5594 6.30106V13.6927H17.1844L16.5594 13.6979Z" fill="#666666"/>
<path d="M10 6.56251C9.32014 6.56251 8.65554 6.76412 8.09024 7.14184C7.52495 7.51956 7.08435 8.05642 6.82418 8.68454C6.564 9.31266 6.49593 10.0038 6.62856 10.6706C6.7612 11.3374 7.08859 11.95 7.56933 12.4307C8.05008 12.9114 8.66258 13.2388 9.32939 13.3715C9.9962 13.5041 10.6874 13.436 11.3155 13.1758C11.9436 12.9157 12.4805 12.4751 12.8582 11.9098C13.2359 11.3445 13.4375 10.6799 13.4375 10C13.4375 9.08833 13.0753 8.21399 12.4307 7.56933C11.786 6.92468 10.9117 6.56251 10 6.56251ZM10 12.1875C9.56737 12.1875 9.14444 12.0592 8.7847 11.8189C8.42497 11.5785 8.14459 11.2368 7.97903 10.8371C7.81346 10.4374 7.77014 9.99759 7.85454 9.57325C7.93895 9.14892 8.14729 8.75914 8.45322 8.45322C8.75914 8.14729 9.14892 7.93895 9.57325 7.85455C9.99759 7.77014 10.4374 7.81346 10.8371 7.97903C11.2368 8.14459 11.5785 8.42497 11.8189 8.7847C12.0592 9.14444 12.1875 9.56737 12.1875 10C12.1875 10.5802 11.957 11.1366 11.5468 11.5468C11.1366 11.957 10.5802 12.1875 10 12.1875Z" fill="#666666"/>
</svg>
