<svg width="20" height="20" viewBox="0 0 20 20" fill="none" xmlns="http://www.w3.org/2000/svg">
<path d="M17.175 5.21356L10.6125 1.50522C10.4255 1.39775 10.2135 1.34119 9.99787 1.34119C9.78219 1.34119 9.57028 1.39775 9.38329 1.50522L2.82079 5.21668C2.62816 5.32618 2.46787 5.4846 2.35611 5.67593C2.24435 5.86725 2.18509 6.08469 2.18433 6.30626V13.7021C2.18705 13.9236 2.24809 14.1404 2.36129 14.3308C2.47448 14.5211 2.63584 14.6783 2.82912 14.7865L9.39162 18.4938C9.57978 18.6023 9.79316 18.6594 10.0104 18.6594C10.2249 18.6598 10.4358 18.6038 10.6218 18.4969L17.1843 14.7854C17.3764 14.676 17.5362 14.5181 17.6479 14.3274C17.7597 14.1367 17.8193 13.92 17.8208 13.699V6.29689C17.8176 6.07554 17.7562 5.85894 17.6428 5.6688C17.5295 5.47865 17.3681 5.32166 17.175 5.21356ZM16.5593 13.6979L9.99683 17.4073L3.43433 13.6948V6.29897L9.99683 2.5896L16.5593 6.30106V13.6927H17.1843L16.5593 13.6979Z" fill="#666666"/>
<path d="M9.99995 6.56251C9.32008 6.56251 8.65547 6.76412 8.09018 7.14184C7.52489 7.51956 7.08429 8.05642 6.82412 8.68454C6.56394 9.31266 6.49587 10.0038 6.6285 10.6706C6.76114 11.3374 7.08853 11.95 7.56927 12.4307C8.05001 12.9114 8.66252 13.2388 9.32933 13.3715C9.99614 13.5041 10.6873 13.436 11.3154 13.1758C11.9435 12.9157 12.4804 12.4751 12.8581 11.9098C13.2358 11.3445 13.4375 10.6799 13.4375 10C13.4375 9.08833 13.0753 8.21399 12.4306 7.56933C11.786 6.92468 10.9116 6.56251 9.99995 6.56251ZM9.99995 12.1875C9.5673 12.1875 9.14438 12.0592 8.78464 11.8189C8.42491 11.5785 8.14453 11.2368 7.97897 10.8371C7.8134 10.4374 7.77008 9.99759 7.85448 9.57325C7.93889 9.14892 8.14723 8.75914 8.45316 8.45322C8.75908 8.14729 9.14886 7.93895 9.57319 7.85455C9.99753 7.77014 10.4374 7.81346 10.8371 7.97903C11.2368 8.14459 11.5784 8.42497 11.8188 8.7847C12.0592 9.14444 12.1875 9.56737 12.1875 10C12.1875 10.5802 11.957 11.1366 11.5467 11.5468C11.1365 11.957 10.5801 12.1875 9.99995 12.1875Z" fill="#666666"/>
</svg>
