<svg width="20" height="20" viewBox="0 0 20 20" fill="none" xmlns="http://www.w3.org/2000/svg">
<g clip-path="url(#clip0_670_15924)">
<path d="M18.0468 9.65418C18.0467 9.48847 17.9807 9.32961 17.8635 9.21251L9.46558 0.813555C9.40754 0.755444 9.33861 0.709344 9.26274 0.677891C9.18686 0.646439 9.10553 0.630249 9.0234 0.630249C8.94126 0.630249 8.85993 0.646439 8.78406 0.677891C8.70819 0.709344 8.63926 0.755444 8.58121 0.813555L5.44892 3.94585L3.40309 1.90001C3.28465 1.79176 3.12911 1.73322 2.96869 1.73649C2.80827 1.73976 2.65525 1.80461 2.54133 1.9176C2.4274 2.03058 2.36129 2.18306 2.3567 2.34345C2.3521 2.50384 2.40936 2.65985 2.51663 2.77918L4.5635 4.82605L1.05829 8.3271C0.712375 8.68077 0.518677 9.15582 0.518677 9.65053C0.518677 10.1452 0.712375 10.6203 1.05829 10.974L7.69475 17.6094C8.04812 17.9555 8.52305 18.1493 9.01767 18.1493C9.51229 18.1493 9.98722 17.9555 10.3406 17.6094L17.8562 10.0938C17.9153 10.0366 17.9626 9.9684 17.9953 9.89296C18.028 9.81753 18.0455 9.73639 18.0468 9.65418ZM9.46767 16.724C9.34908 16.8391 9.19028 16.9036 9.02496 16.9036C8.85965 16.9036 8.70084 16.8391 8.58225 16.724L1.95309 10.0938C1.83766 9.9753 1.77307 9.81645 1.77307 9.65105C1.77307 9.48566 1.83766 9.32681 1.95309 9.20835L5.45204 5.70939L7.76663 8.02397C7.51699 8.48633 7.44213 9.02309 7.55572 9.53611C7.6693 10.0491 7.96376 10.5041 8.38523 10.8179C8.80671 11.1317 9.32704 11.2832 9.85109 11.2449C10.3751 11.2066 10.8679 10.9809 11.2392 10.6091C11.6105 10.2374 11.8356 9.74435 11.8733 9.22026C11.9111 8.69617 11.7589 8.17601 11.4446 7.75491C11.1304 7.3338 10.675 7.03988 10.1619 6.9269C9.6487 6.81392 9.11203 6.88942 8.64996 7.13959L6.33642 4.82605L9.026 2.13543L16.5375 9.65418L9.46767 16.724ZM9.02809 8.40418L9.04579 8.38231C9.22228 8.22074 9.45523 8.13505 9.69435 8.14374C9.93347 8.15243 10.1596 8.2548 10.3239 8.42875C10.4882 8.60271 10.5775 8.83429 10.5725 9.07352C10.5675 9.31275 10.4687 9.54042 10.2973 9.70741C10.1259 9.87439 9.89578 9.96729 9.6565 9.96604C9.41723 9.9648 9.18804 9.86951 9.01841 9.70075C8.84878 9.53199 8.75232 9.3033 8.74984 9.06403C8.74736 8.82477 8.83907 8.59412 9.00517 8.42189C9.01246 8.4146 9.02079 8.41043 9.02809 8.40418Z" fill="#666666"/>
<path d="M18.2541 12.3708C18.1369 12.2538 17.9781 12.1881 17.8125 12.1881C17.6468 12.1881 17.488 12.2538 17.3708 12.3708C17.2989 12.4417 15.625 14.1417 15.625 15.9375C15.625 16.5177 15.8554 17.0741 16.2657 17.4843C16.6759 17.8945 17.2323 18.125 17.8125 18.125C18.3926 18.125 18.949 17.8945 19.3593 17.4843C19.7695 17.0741 20 16.5177 20 15.9375C20 14.1333 18.326 12.4417 18.2541 12.3708ZM17.8125 16.875C17.5638 16.875 17.3254 16.7762 17.1495 16.6004C16.9737 16.4246 16.875 16.1862 16.875 15.9375C16.875 15.1792 17.3823 14.3333 17.8125 13.7708C18.2427 14.3333 18.75 15.1792 18.75 15.9375C18.75 16.1862 18.6512 16.4246 18.4754 16.6004C18.2996 16.7762 18.0611 16.875 17.8125 16.875Z" fill="#666666"/>
</g>
<defs>
<clipPath id="clip0_670_15924">
<rect width="20" height="20" fill="white"/>
</clipPath>
</defs>
</svg>
