<svg width="20" height="20" viewBox="0 0 20 20" fill="none" xmlns="http://www.w3.org/2000/svg">
<g clip-path="url(#clip0_670_15924)">
<path d="M18.0469 9.65418C18.0468 9.48847 17.9808 9.32961 17.8636 9.21251L9.46565 0.813555C9.4076 0.755444 9.33867 0.709344 9.2628 0.677891C9.18692 0.646439 9.10559 0.630249 9.02346 0.630249C8.94132 0.630249 8.86 0.646439 8.78412 0.677891C8.70825 0.709344 8.63932 0.755444 8.58127 0.813555L5.44898 3.94585L3.40315 1.90001C3.28471 1.79176 3.12917 1.73322 2.96875 1.73649C2.80833 1.73976 2.65531 1.80461 2.54139 1.9176C2.42746 2.03058 2.36136 2.18306 2.35676 2.34345C2.35216 2.50384 2.40942 2.65985 2.51669 2.77918L4.56356 4.82605L1.05836 8.3271C0.712436 8.68077 0.518738 9.15582 0.518738 9.65053C0.518738 10.1452 0.712436 10.6203 1.05836 10.974L7.69481 17.6094C8.04818 17.9555 8.52311 18.1493 9.01773 18.1493C9.51235 18.1493 9.98728 17.9555 10.3406 17.6094L17.8563 10.0938C17.9154 10.0366 17.9627 9.9684 17.9954 9.89296C18.0281 9.81753 18.0456 9.73639 18.0469 9.65418ZM9.46773 16.724C9.34914 16.8391 9.19034 16.9036 9.02502 16.9036C8.85971 16.9036 8.7009 16.8391 8.58231 16.724L1.95315 10.0938C1.83772 9.9753 1.77313 9.81645 1.77313 9.65105C1.77313 9.48566 1.83772 9.32681 1.95315 9.20835L5.4521 5.70939L7.76669 8.02397C7.51705 8.48633 7.44219 9.02309 7.55578 9.53611C7.66936 10.0491 7.96382 10.5041 8.38529 10.8179C8.80677 11.1317 9.32711 11.2832 9.85115 11.2449C10.3752 11.2066 10.8679 10.9809 11.2393 10.6091C11.6106 10.2374 11.8357 9.74435 11.8734 9.22026C11.9111 8.69617 11.7589 8.17601 11.4447 7.75491C11.1304 7.3338 10.6751 7.03988 10.1619 6.9269C9.64876 6.81392 9.11209 6.88942 8.65002 7.13959L6.33648 4.82605L9.02606 2.13543L16.5375 9.65418L9.46773 16.724ZM9.02815 8.40418L9.04585 8.38231C9.22234 8.22074 9.45529 8.13505 9.69441 8.14374C9.93353 8.15243 10.1596 8.2548 10.3239 8.42875C10.4882 8.60271 10.5775 8.83429 10.5726 9.07352C10.5676 9.31275 10.4688 9.54042 10.2974 9.70741C10.126 9.87439 9.89584 9.96729 9.65656 9.96604C9.41729 9.9648 9.1881 9.86951 9.01847 9.70075C8.84884 9.53199 8.75238 9.3033 8.7499 9.06403C8.74742 8.82477 8.83913 8.59412 9.00523 8.42189C9.01252 8.4146 9.02086 8.41043 9.02815 8.40418Z" fill="#666666"/>
<path d="M18.2542 12.3708C18.137 12.2538 17.9781 12.1881 17.8125 12.1881C17.6469 12.1881 17.488 12.2538 17.3709 12.3708C17.299 12.4417 15.625 14.1417 15.625 15.9375C15.625 16.5177 15.8555 17.0741 16.2657 17.4843C16.676 17.8945 17.2324 18.125 17.8125 18.125C18.3927 18.125 18.9491 17.8945 19.3593 17.4843C19.7696 17.0741 20 16.5177 20 15.9375C20 14.1333 18.3261 12.4417 18.2542 12.3708ZM17.8125 16.875C17.5639 16.875 17.3254 16.7762 17.1496 16.6004C16.9738 16.4246 16.875 16.1862 16.875 15.9375C16.875 15.1792 17.3823 14.3333 17.8125 13.7708C18.2427 14.3333 18.75 15.1792 18.75 15.9375C18.75 16.1862 18.6512 16.4246 18.4754 16.6004C18.2996 16.7762 18.0612 16.875 17.8125 16.875Z" fill="#666666"/>
</g>
<defs>
<clipPath id="clip0_670_15924">
<rect width="20" height="20" fill="white"/>
</clipPath>
</defs>
</svg>
