<svg width="20" height="20" viewBox="0 0 20 20" fill="none" xmlns="http://www.w3.org/2000/svg">
<path d="M15.6927 4.21353C14.177 2.71064 12.1282 1.86845 9.99372 1.87082H9.91247C8.84547 1.88198 7.79111 2.10321 6.8096 2.52187C5.8281 2.94053 4.93867 3.54843 4.19211 4.31085C3.44556 5.07327 2.8565 5.97528 2.45856 6.96537C2.06063 7.95545 1.86161 9.01423 1.87289 10.0812C1.89484 11.7455 2.42562 13.3632 3.39392 14.7169C4.36222 16.0707 5.72164 17.0957 7.28956 17.6542C7.6664 17.7892 8.07021 17.8314 8.46683 17.7773C8.86345 17.7233 9.24123 17.5745 9.5682 17.3436C9.89516 17.1127 10.1617 16.8064 10.3453 16.4507C10.5289 16.095 10.6241 15.7003 10.6229 15.3V14.9875C10.6219 14.8241 10.6532 14.6622 10.7149 14.5109C10.7766 14.3596 10.8675 14.222 10.9824 14.1059C11.0974 13.9898 11.2341 13.8975 11.3847 13.8343C11.5354 13.7711 11.697 13.7382 11.8604 13.7375H15.4854C16.0487 13.7406 16.5964 13.5523 17.0389 13.2036C17.4813 12.8548 17.7922 12.3662 17.9208 11.8177C18.0605 11.2026 18.1287 10.5734 18.1239 9.9427C18.1189 8.87422 17.9014 7.81741 17.484 6.83382C17.0666 5.85023 16.4577 4.95951 15.6927 4.21353ZM16.7031 11.5292C16.6403 11.8048 16.4855 12.0509 16.2642 12.2268C16.0428 12.4028 15.7681 12.498 15.4854 12.4969H11.8562C11.1958 12.4999 10.5636 12.7649 10.0984 13.2336C9.63323 13.7023 9.37303 14.3365 9.37497 14.9969V15.3042C9.37599 15.4498 9.35094 15.5944 9.30101 15.7312C9.18751 16.0405 8.95652 16.2924 8.65828 16.4323C8.36003 16.5721 8.01863 16.5886 7.70831 16.4781C6.18523 15.9395 4.90047 14.8817 4.07947 13.4904C3.25846 12.099 2.95365 10.463 3.21851 8.86933C3.48338 7.27567 4.301 5.82619 5.52791 4.77521C6.75483 3.72422 8.31267 3.13887 9.9281 3.12186H9.99372C11.8067 3.12721 13.5447 3.84565 14.8323 5.12193C16.1199 6.39822 16.8536 8.12987 16.875 9.9427C16.8793 10.4774 16.8217 11.0109 16.7031 11.5323V11.5292Z" fill="#666666"/>
<path d="M9.99997 6.87499C10.5177 6.87499 10.9375 6.45526 10.9375 5.93749C10.9375 5.41972 10.5177 4.99999 9.99997 4.99999C9.48221 4.99999 9.06247 5.41972 9.06247 5.93749C9.06247 6.45526 9.48221 6.87499 9.99997 6.87499Z" fill="#666666"/>
<path d="M6.48435 8.90624C7.00212 8.90624 7.42185 8.48651 7.42185 7.96874C7.42185 7.45097 7.00212 7.03124 6.48435 7.03124C5.96658 7.03124 5.54685 7.45097 5.54685 7.96874C5.54685 8.48651 5.96658 8.90624 6.48435 8.90624Z" fill="#666666"/>
<path d="M6.48435 12.9687C7.00212 12.9687 7.42185 12.549 7.42185 12.0312C7.42185 11.5135 7.00212 11.0937 6.48435 11.0937C5.96658 11.0937 5.54685 11.5135 5.54685 12.0312C5.54685 12.549 5.96658 12.9687 6.48435 12.9687Z" fill="#666666"/>
<path d="M13.5156 8.90624C14.0334 8.90624 14.4531 8.48651 14.4531 7.96874C14.4531 7.45097 14.0334 7.03124 13.5156 7.03124C12.9978 7.03124 12.5781 7.45097 12.5781 7.96874C12.5781 8.48651 12.9978 8.90624 13.5156 8.90624Z" fill="#666666"/>
</svg>
