<svg width="20" height="20" viewBox="0 0 20 20" fill="none" xmlns="http://www.w3.org/2000/svg">
<path d="M17.6979 2.80105C17.562 2.55331 17.3458 2.35921 17.0849 2.25072C16.824 2.14223 16.534 2.12582 16.2625 2.20418L1.70208 6.30313C1.54346 6.3461 1.39487 6.41991 1.26481 6.52037C1.13474 6.62082 1.02577 6.74593 0.944109 6.88854C0.862451 7.03115 0.809715 7.18846 0.788919 7.35148C0.768123 7.51449 0.779674 7.68001 0.822913 7.83855C0.87009 8.01441 0.955523 8.17767 1.07311 8.31668C1.19069 8.4557 1.33753 8.56703 1.50312 8.64272L8.18958 11.8073L11.349 18.4854C11.4166 18.635 11.5132 18.7698 11.6331 18.8819C11.7531 18.994 11.8941 19.0812 12.0479 19.1386C12.1885 19.1911 12.3374 19.2183 12.4875 19.2188C12.7608 19.2186 13.0266 19.1289 13.2441 18.9634C13.4616 18.7978 13.6188 18.5655 13.6917 18.3021L17.7917 3.74584C17.8394 3.59 17.8557 3.42623 17.8396 3.26404C17.8235 3.10185 17.7753 2.94447 17.6979 2.80105ZM12.4896 17.9594L9.41874 11.4677L12.6396 8.24688C12.7553 8.12942 12.8199 7.971 12.8193 7.80612C12.8187 7.64124 12.753 7.48326 12.6365 7.3666C12.52 7.24995 12.3621 7.18406 12.1972 7.18329C12.0323 7.18253 11.8738 7.24694 11.7562 7.36251L8.53125 10.5844L2.03645 7.50834L16.5917 3.4073L12.4896 17.9594Z" fill="#666666"/>
</svg>
