<svg width="20" height="20" viewBox="0 0 20 20" fill="none" xmlns="http://www.w3.org/2000/svg">
<path d="M17.4958 5.9875L14.0167 2.50833L14.0021 2.49375C13.7666 2.26154 13.4486 2.13214 13.1179 2.1339C12.7871 2.13566 12.4706 2.26843 12.2375 2.50312L2.86251 11.8781C2.74715 11.9935 2.6558 12.1306 2.59376 12.2815C2.53172 12.4324 2.50021 12.5941 2.50105 12.7573V16.249C2.50105 16.5805 2.63275 16.8984 2.86717 17.1328C3.10159 17.3673 3.41953 17.499 3.75105 17.499H7.2448C7.57345 17.4981 7.88855 17.3679 8.12189 17.1365L17.4969 7.76145L17.5073 7.75104C17.7389 7.51528 17.8677 7.19739 17.8656 6.8669C17.8634 6.53641 17.7305 6.22022 17.4958 5.9875ZM7.24064 16.25H3.75001V12.7625L10.6313 5.8875L14.1198 9.37604L7.24064 16.25ZM16.6156 6.875L15 8.49166L11.5115 5.00312L13.1281 3.3875L16.6219 6.86875L16.6156 6.875Z" fill="#666666"/>
</svg>
