<svg width="20" height="20" viewBox="0 0 20 20" fill="none" xmlns="http://www.w3.org/2000/svg">
<path d="M16.0667 3.93333C15.9495 3.81629 15.7906 3.75055 15.625 3.75055C15.4594 3.75055 15.3005 3.81629 15.1833 3.93333L3.93333 15.1833C3.87193 15.2406 3.82267 15.3096 3.78851 15.3862C3.75435 15.4629 3.73599 15.5456 3.7345 15.6296C3.73302 15.7135 3.74846 15.7968 3.7799 15.8747C3.81133 15.9525 3.85812 16.0232 3.91747 16.0825C3.97682 16.1419 4.04751 16.1887 4.12533 16.2201C4.20316 16.2515 4.28651 16.267 4.37043 16.2655C4.45435 16.264 4.53711 16.2456 4.61378 16.2115C4.69045 16.1773 4.75945 16.1281 4.81666 16.0667L16.0667 4.81667C16.1837 4.69948 16.2494 4.54063 16.2494 4.375C16.2494 4.20937 16.1837 4.05052 16.0667 3.93333Z" fill="#666666"/>
<path d="M5.9375 8.75C6.49376 8.75 7.03753 8.58505 7.50004 8.27601C7.96255 7.96697 8.32304 7.52772 8.53591 7.0138C8.74878 6.49988 8.80448 5.93438 8.69596 5.38881C8.58744 4.84324 8.31957 4.3421 7.92624 3.94877C7.5329 3.55543 7.03177 3.28756 6.48619 3.17904C5.94062 3.07052 5.37512 3.12622 4.8612 3.33909C4.34729 3.55196 3.90803 3.91245 3.59899 4.37496C3.28995 4.83747 3.125 5.38124 3.125 5.9375C3.125 6.68342 3.42132 7.39879 3.94876 7.92624C4.47621 8.45369 5.19158 8.75 5.9375 8.75ZM5.9375 4.375C6.24653 4.375 6.54863 4.46664 6.80558 4.63833C7.06253 4.81002 7.2628 5.05405 7.38106 5.33956C7.49932 5.62507 7.53027 5.93923 7.46998 6.24233C7.40969 6.54543 7.26087 6.82384 7.04235 7.04236C6.82383 7.26088 6.54542 7.40969 6.24233 7.46998C5.93923 7.53027 5.62507 7.49933 5.33956 7.38106C5.05405 7.2628 4.81002 7.06253 4.63833 6.80558C4.46664 6.54863 4.375 6.24653 4.375 5.9375C4.375 5.5231 4.53962 5.12567 4.83265 4.83265C5.12567 4.53962 5.5231 4.375 5.9375 4.375Z" fill="#666666"/>
<path d="M14.0625 11.25C13.5062 11.25 12.9625 11.415 12.5 11.724C12.0374 12.033 11.677 12.4723 11.4641 12.9862C11.2512 13.5001 11.1955 14.0656 11.304 14.6112C11.4126 15.1568 11.6804 15.6579 12.0738 16.0512C12.4671 16.4446 12.9682 16.7124 13.5138 16.821C14.0594 16.9295 14.6249 16.8738 15.1388 16.6609C15.6527 16.448 16.092 16.0876 16.401 15.625C16.7101 15.1625 16.875 14.6188 16.875 14.0625C16.875 13.3166 16.5787 12.6012 16.0512 12.0738C15.5238 11.5463 14.8084 11.25 14.0625 11.25ZM14.0625 15.625C13.7535 15.625 13.4514 15.5334 13.1944 15.3617C12.9375 15.19 12.7372 14.946 12.6189 14.6604C12.5007 14.3749 12.4697 14.0608 12.53 13.7577C12.5903 13.4546 12.7391 13.1762 12.9576 12.9576C13.1762 12.7391 13.4546 12.5903 13.7577 12.53C14.0608 12.4697 14.3749 12.5007 14.6604 12.6189C14.946 12.7372 15.19 12.9375 15.3617 13.1944C15.5334 13.4514 15.625 13.7535 15.625 14.0625C15.625 14.4769 15.4604 14.8743 15.1674 15.1674C14.8743 15.4604 14.4769 15.625 14.0625 15.625Z" fill="#666666"/>
</svg>
