<svg width="20" height="20" viewBox="0 0 20 20" fill="none" xmlns="http://www.w3.org/2000/svg">
<path d="M6.25 18.124C5.91848 18.124 5.60054 17.9923 5.36612 17.7578C5.1317 17.5234 5 17.2055 5 16.874V3.12396C5.00006 2.90148 5.0595 2.68305 5.17217 2.49122C5.28485 2.29938 5.44669 2.14109 5.64097 2.0327C5.83526 1.9243 6.05495 1.86973 6.27738 1.8746C6.4998 1.87947 6.7169 1.94362 6.90625 2.06042L18.1469 8.93542C18.1696 8.94985 18.1915 8.9655 18.2125 8.98229C18.3395 9.08185 18.449 9.2019 18.5365 9.3375C18.7137 9.61682 18.773 9.955 18.7013 10.2779C18.6296 10.6009 18.4329 10.8823 18.1542 11.0604L6.90417 17.9354C6.70763 18.0559 6.48158 18.1197 6.25104 18.1198L6.25 18.124ZM6.25 3.12396V16.874L17.4781 10.0063C17.4722 9.99444 17.4636 9.98412 17.4531 9.97604L6.25 3.12396Z" fill="#666666"/>
</svg>
