<svg xmlns="http://www.w3.org/2000/svg" width="20" height="20" viewBox="0 0 20 20" fill="none">
  <path d="M18.5672 1.43282C18.5091 1.37471 18.4402 1.32861 18.3643 1.29715C18.2884 1.2657 18.2071 1.24951 18.125 1.24951C18.0428 1.24951 17.9615 1.2657 17.8856 1.29715C17.8098 1.32861 17.7408 1.37471 17.6828 1.43282L13.589 5.52735L13.1695 5.10703C12.7001 4.63903 12.0644 4.37621 11.4015 4.37621C10.7387 4.37621 10.1029 4.63903 9.63357 5.10703L7.81248 6.92891L7.31717 6.43282C7.19989 6.31554 7.04083 6.24966 6.87498 6.24966C6.70913 6.24966 6.55007 6.31554 6.43279 6.43282C6.31552 6.55009 6.24963 6.70915 6.24963 6.875C6.24963 7.04086 6.31552 7.19992 6.43279 7.31719L6.92889 7.8125L5.10701 9.6336C4.87481 9.86575 4.69061 10.1414 4.56493 10.4447C4.43926 10.7481 4.37458 11.0732 4.37458 11.4016C4.37458 11.7299 4.43926 12.0551 4.56493 12.3584C4.69061 12.6618 4.87481 12.9374 5.10701 13.1695L5.52733 13.5891L1.43279 17.6828C1.37472 17.7409 1.32866 17.8098 1.29724 17.8857C1.26581 17.9616 1.24963 18.0429 1.24963 18.125C1.24963 18.2071 1.26581 18.2884 1.29724 18.3643C1.32866 18.4402 1.37472 18.5091 1.43279 18.5672C1.55007 18.6845 1.70913 18.7504 1.87498 18.7504C1.9571 18.7504 2.03842 18.7342 2.11429 18.7027C2.19016 18.6713 2.2591 18.6253 2.31717 18.5672L6.41092 14.4727L6.83045 14.893C7.0626 15.1252 7.33823 15.3094 7.64158 15.4351C7.94493 15.5607 8.27007 15.6254 8.59842 15.6254C8.92677 15.6254 9.25191 15.5607 9.55526 15.4351C9.85861 15.3094 10.1342 15.1252 10.3664 14.893L12.1875 13.0711L12.6828 13.5672C12.7409 13.6253 12.8098 13.6713 12.8857 13.7027C12.9615 13.7342 13.0429 13.7504 13.125 13.7504C13.2071 13.7504 13.2884 13.7342 13.3643 13.7027C13.4402 13.6713 13.5091 13.6253 13.5672 13.5672C13.6252 13.5091 13.6713 13.4402 13.7027 13.3643C13.7342 13.2884 13.7503 13.2071 13.7503 13.125C13.7503 13.0429 13.7342 12.9616 13.7027 12.8857C13.6713 12.8098 13.6252 12.7409 13.5672 12.6828L13.0711 12.1875L14.893 10.3664C15.1252 10.1343 15.3094 9.85863 15.435 9.55528C15.5607 9.25193 15.6254 8.92679 15.6254 8.59844C15.6254 8.27009 15.5607 7.94495 15.435 7.6416C15.3094 7.33825 15.1252 7.06263 14.893 6.83047L14.4726 6.41094L18.5672 2.31719C18.6253 2.25915 18.6714 2.19021 18.7028 2.11434C18.7343 2.03847 18.7505 1.95714 18.7505 1.875C18.7505 1.79287 18.7343 1.71154 18.7028 1.63567C18.6714 1.55979 18.6253 1.49086 18.5672 1.43282ZM9.48201 14.0109C9.24762 14.2452 8.9298 14.3768 8.59842 14.3768C8.26704 14.3768 7.94922 14.2452 7.71483 14.0109L5.99139 12.2852C5.75714 12.0508 5.62556 11.7329 5.62556 11.4016C5.62556 11.0702 5.75714 10.7524 5.99139 10.518L7.81248 8.6961L11.3039 12.1875L9.48201 14.0109ZM14.0086 9.48438L12.1875 11.3039L8.69607 7.8125L10.518 5.99141C10.7523 5.75717 11.0702 5.62558 11.4015 5.62558C11.7329 5.62558 12.0507 5.75717 12.2851 5.99141L14.0086 7.71016C14.1253 7.82631 14.2179 7.96436 14.281 8.1164C14.3442 8.26844 14.3768 8.43146 14.3768 8.5961C14.3768 8.76074 14.3442 8.92376 14.281 9.07579C14.2179 9.22783 14.1253 9.36589 14.0086 9.48203V9.48438ZM6.90701 2.69766C6.85459 2.54039 6.86679 2.36875 6.94092 2.22048C7.01506 2.0722 7.14506 1.95946 7.30233 1.90703C7.45959 1.85461 7.63124 1.86681 7.77951 1.94095C7.92778 2.01508 8.04053 2.14508 8.09295 2.30235L8.71795 4.17735C8.74391 4.25522 8.75427 4.33744 8.74845 4.41931C8.74263 4.50119 8.72075 4.58112 8.68404 4.65453C8.64733 4.72795 8.59652 4.79342 8.53451 4.8472C8.4725 4.90098 8.40051 4.94202 8.32264 4.96797C8.16537 5.02039 7.99372 5.0082 7.84545 4.93406C7.77204 4.89735 7.70657 4.84654 7.65279 4.78453C7.59901 4.72252 7.55797 4.65053 7.53201 4.57266L6.90701 2.69766ZM1.90701 7.30235C1.93296 7.22447 1.974 7.15248 2.02778 7.09046C2.08156 7.02845 2.14703 6.97764 2.22045 6.94093C2.29386 6.90422 2.37379 6.88233 2.45567 6.87652C2.53755 6.8707 2.61977 6.88107 2.69764 6.90703L4.57264 7.53203C4.65051 7.55799 4.7225 7.59903 4.78451 7.65281C4.84652 7.70659 4.89733 7.77206 4.93404 7.84548C4.97075 7.91889 4.99263 7.99882 4.99845 8.08069C5.00427 8.16257 4.99391 8.24479 4.96795 8.32266C4.94199 8.40053 4.90095 8.47252 4.84717 8.53453C4.79339 8.59654 4.72793 8.64735 4.65451 8.68406C4.58109 8.72077 4.50117 8.74266 4.41929 8.74848C4.33741 8.75429 4.25519 8.74393 4.17733 8.71797L2.30233 8.09297C2.22445 8.06702 2.15245 8.02598 2.09044 7.9722C2.02843 7.91843 1.97762 7.85296 1.94091 7.77954C1.9042 7.70612 1.88231 7.62619 1.8765 7.54431C1.87068 7.46244 1.88105 7.38022 1.90701 7.30235ZM18.093 12.6977C18.067 12.7755 18.026 12.8475 17.9722 12.9095C17.9184 12.9716 17.8529 13.0224 17.7795 13.0591C17.7061 13.0958 17.6262 13.1177 17.5443 13.1235C17.4624 13.1293 17.3802 13.1189 17.3023 13.093L15.4273 12.468C15.2701 12.4155 15.1401 12.3028 15.0659 12.1545C14.9918 12.0063 14.9796 11.8346 15.032 11.6773C15.0844 11.5201 15.1972 11.3901 15.3455 11.3159C15.4937 11.2418 15.6654 11.2296 15.8226 11.282L17.6976 11.907C17.7755 11.933 17.8475 11.974 17.9095 12.0278C17.9715 12.0816 18.0223 12.147 18.0591 12.2205C18.0958 12.2939 18.1177 12.3738 18.1235 12.4557C18.1293 12.5376 18.1189 12.6198 18.093 12.6977ZM13.093 17.3023C13.1454 17.4596 13.1332 17.6313 13.059 17.7795C12.9849 17.9278 12.8549 18.0406 12.6976 18.093C12.5404 18.1454 12.3687 18.1332 12.2205 18.0591C12.0722 17.9849 11.9594 17.8549 11.907 17.6977L11.282 15.8227C11.2296 15.6654 11.2418 15.4937 11.3159 15.3455C11.3901 15.1972 11.5201 15.0845 11.6773 15.032C11.8346 14.9796 12.0062 14.9918 12.1545 15.0659C12.3028 15.1401 12.4155 15.2701 12.468 15.4273L13.093 17.3023Z" fill="#666666"/>
</svg>