<svg xmlns="http://www.w3.org/2000/svg" width="20" height="20" viewBox="0 0 20 20" fill="none">
  <path d="M11.6922 10.8078C11.6341 10.7497 11.5652 10.7036 11.4893 10.6722C11.4134 10.6407 11.3321 10.6245 11.25 10.6245C11.1678 10.6245 11.0865 10.6407 11.0106 10.6722C10.9348 10.7036 10.8658 10.7497 10.8078 10.8078L9.37498 12.2414L7.75857 10.625L9.19217 9.19219C9.30944 9.07492 9.37533 8.91586 9.37533 8.75C9.37533 8.58415 9.30944 8.42509 9.19217 8.30782C9.07489 8.19054 8.91583 8.12466 8.74998 8.12466C8.58413 8.12466 8.42507 8.19054 8.30779 8.30782L6.87498 9.74141L5.44217 8.30782C5.32489 8.19054 5.16583 8.12466 4.99998 8.12466C4.83413 8.12466 4.67507 8.19054 4.55779 8.30782C4.44052 8.42509 4.37463 8.58415 4.37463 8.75C4.37463 8.91586 4.44052 9.07492 4.55779 9.19219L5.05389 9.6875L3.23201 11.5086C2.99981 11.7408 2.81561 12.0164 2.68993 12.3197C2.56426 12.6231 2.49958 12.9482 2.49958 13.2766C2.49958 13.6049 2.56426 13.9301 2.68993 14.2334C2.81561 14.5368 2.99981 14.8124 3.23201 15.0445L3.65233 15.4641L1.43279 17.6828C1.37472 17.7409 1.32866 17.8098 1.29724 17.8857C1.26581 17.9616 1.24963 18.0429 1.24963 18.125C1.24963 18.2071 1.26581 18.2884 1.29724 18.3643C1.32866 18.4402 1.37472 18.5091 1.43279 18.5672C1.55007 18.6845 1.70913 18.7504 1.87498 18.7504C1.9571 18.7504 2.03842 18.7342 2.11429 18.7027C2.19016 18.6713 2.2591 18.6253 2.31717 18.5672L4.53592 16.3477L4.95545 16.768C5.1876 17.0002 5.46323 17.1844 5.76658 17.3101C6.06993 17.4357 6.39507 17.5004 6.72342 17.5004C7.05177 17.5004 7.37691 17.4357 7.68026 17.3101C7.98361 17.1844 8.25923 17.0002 8.49139 16.768L10.3125 14.9461L10.8078 15.4422C10.8659 15.5003 10.9348 15.5463 11.0107 15.5777C11.0865 15.6092 11.1679 15.6254 11.25 15.6254C11.3321 15.6254 11.4134 15.6092 11.4893 15.5777C11.5652 15.5463 11.6341 15.5003 11.6922 15.4422C11.7502 15.3841 11.7963 15.3152 11.8277 15.2393C11.8592 15.1634 11.8753 15.0821 11.8753 15C11.8753 14.9179 11.8592 14.8366 11.8277 14.7607C11.7963 14.6848 11.7502 14.6159 11.6922 14.5578L10.2586 13.125L11.6922 11.6922C11.7503 11.6341 11.7964 11.5652 11.8278 11.4893C11.8593 11.4135 11.8755 11.3321 11.8755 11.25C11.8755 11.1679 11.8593 11.0865 11.8278 11.0107C11.7964 10.9348 11.7503 10.8659 11.6922 10.8078ZM7.60701 15.8859C7.37262 16.1202 7.0548 16.2518 6.72342 16.2518C6.39204 16.2518 6.07422 16.1202 5.83983 15.8859L4.11639 14.1602C3.88214 13.9258 3.75056 13.6079 3.75056 13.2766C3.75056 12.9452 3.88214 12.6274 4.11639 12.393L5.93748 10.5711L9.42889 14.0625L7.60701 15.8859ZM18.5672 1.43282C18.5091 1.37471 18.4402 1.32861 18.3643 1.29715C18.2884 1.2657 18.2071 1.24951 18.125 1.24951C18.0428 1.24951 17.9615 1.2657 17.8856 1.29715C17.8098 1.32861 17.7408 1.37471 17.6828 1.43282L15.464 3.65235L15.0445 3.23203C14.5751 2.76403 13.9394 2.50121 13.2765 2.50121C12.6137 2.50121 11.9779 2.76403 11.5086 3.23203L9.68748 5.05391L9.19217 4.55782C9.07489 4.44054 8.91583 4.37466 8.74998 4.37466C8.58413 4.37466 8.42507 4.44054 8.30779 4.55782C8.19052 4.67509 8.12463 4.83415 8.12463 5C8.12463 5.16586 8.19052 5.32492 8.30779 5.44219L14.5578 11.6922C14.6159 11.7503 14.6848 11.7963 14.7607 11.8277C14.8365 11.8592 14.9179 11.8754 15 11.8754C15.0821 11.8754 15.1634 11.8592 15.2393 11.8277C15.3152 11.7963 15.3841 11.7503 15.4422 11.6922C15.5002 11.6341 15.5463 11.5652 15.5777 11.4893C15.6092 11.4134 15.6253 11.3321 15.6253 11.25C15.6253 11.1679 15.6092 11.0866 15.5777 11.0107C15.5463 10.9348 15.5002 10.8659 15.4422 10.8078L14.9461 10.3125L16.768 8.49141C17.0002 8.25926 17.1844 7.98363 17.31 7.68028C17.4357 7.37693 17.5004 7.05179 17.5004 6.72344C17.5004 6.39509 17.4357 6.06995 17.31 5.7666C17.1844 5.46325 17.0002 5.18763 16.768 4.95547L16.3476 4.53594L18.5672 2.31719C18.6253 2.25915 18.6714 2.19021 18.7028 2.11434C18.7343 2.03847 18.7505 1.95714 18.7505 1.875C18.7505 1.79287 18.7343 1.71154 18.7028 1.63567C18.6714 1.55979 18.6253 1.49086 18.5672 1.43282ZM15.8836 7.60469L14.0625 9.42891L10.5711 5.9375L12.393 4.11641C12.6273 3.88217 12.9452 3.75058 13.2765 3.75058C13.6079 3.75058 13.9257 3.88217 14.1601 4.11641L15.8836 5.83516C16.0003 5.95131 16.0929 6.08936 16.156 6.2414C16.2192 6.39344 16.2518 6.55646 16.2518 6.7211C16.2518 6.88574 16.2192 7.04876 16.156 7.20079C16.0929 7.35283 16.0003 7.49089 15.8836 7.60703V7.60469Z" fill="#697586"/>
</svg>