<svg width="20" height="20" viewBox="0 0 20 20" fill="none" xmlns="http://www.w3.org/2000/svg">
<path d="M15.7927 15.6896C17.2249 14.149 18.0039 12.1131 17.9658 10.0099C17.9276 7.9068 17.0753 5.90041 15.5881 4.41283C14.1009 2.92524 12.0948 2.07239 9.99167 2.03367C7.88855 1.99494 5.85237 2.77337 4.31143 4.20521C4.29164 4.22084 4.27185 4.23542 4.2531 4.25313C4.23435 4.27083 4.22081 4.29167 4.20518 4.31146C2.77012 5.85182 1.98897 7.88906 2.0263 9.99398C2.06363 12.0989 2.91653 14.1072 4.4053 15.5957C5.89408 17.0842 7.9025 17.9367 10.0074 17.9737C12.1124 18.0106 14.1495 17.2291 15.6896 15.7938C15.7083 15.7781 15.7281 15.7646 15.7469 15.7469C15.7656 15.7292 15.7781 15.7083 15.7927 15.6896ZM16.875 10C16.8762 11.6074 16.3116 13.164 15.2802 14.3969L5.6031 4.71979C6.60694 3.88467 7.82785 3.35271 9.12298 3.18614C10.4181 3.01956 11.7339 3.22528 12.9164 3.7792C14.0989 4.33313 15.0992 5.21236 15.8002 6.31402C16.5012 7.41568 16.874 8.6942 16.875 10ZM3.12497 10C3.12371 8.39257 3.6883 6.83598 4.71977 5.60313L14.3968 15.2802C13.393 16.1153 12.1721 16.6473 10.877 16.8139C9.58184 16.9804 8.26606 16.7747 7.08357 16.2208C5.90108 15.6669 4.9008 14.7876 4.19976 13.686C3.49872 12.5843 3.12592 11.3058 3.12497 10Z" fill="#666666"/>
</svg>
