<svg width="20" height="20" viewBox="0 0 20 20" fill="none" xmlns="http://www.w3.org/2000/svg">
<path d="M16.25 17.5H5C4.66848 17.5 4.35053 17.3683 4.11611 17.1339C3.88169 16.8995 3.75 16.5815 3.75 16.25V13.7323C3.57493 13.7514 3.39844 13.7538 3.22291 13.7396C2.48328 13.6788 1.79764 13.3282 1.31539 12.7641C0.833142 12.2001 0.593385 11.4683 0.648358 10.7282C0.703332 9.98809 1.04858 9.29973 1.60888 8.8131C2.16917 8.32647 2.89909 8.081 3.63958 8.1302L3.75 8.14062V5.62499C3.75 5.29347 3.88169 4.97553 4.11611 4.74111C4.35053 4.50669 4.66848 4.37499 5 4.37499H7.82916C7.78717 3.98705 7.82636 3.59461 7.94424 3.22264C8.06212 2.85066 8.25612 2.50728 8.5139 2.21434C8.77167 1.9214 9.08758 1.6853 9.44154 1.52106C9.79551 1.35682 10.1798 1.26803 10.5699 1.26034C10.96 1.25265 11.3475 1.32623 11.7077 1.47639C12.0678 1.62656 12.3928 1.85002 12.6619 2.13258C12.931 2.41514 13.1384 2.75061 13.2709 3.11765C13.4033 3.48469 13.4579 3.87528 13.4312 4.26458C13.4312 4.30103 13.425 4.33853 13.4208 4.37499H16.249C16.5805 4.37499 16.8984 4.50669 17.1328 4.74111C17.3673 4.97553 17.499 5.29347 17.499 5.62499V8.95832C17.499 9.06387 17.4723 9.16772 17.4214 9.26017C17.3705 9.35262 17.297 9.43067 17.2077 9.48704C17.1185 9.54341 17.0165 9.57626 16.9111 9.58254C16.8057 9.58881 16.7005 9.5683 16.6052 9.52291C16.3617 9.40685 16.0919 9.35691 15.8229 9.37812C15.4095 9.40781 15.0248 9.60054 14.7534 9.91388C14.4821 10.2272 14.3463 10.6355 14.376 11.049C14.4057 11.4624 14.5985 11.8471 14.9118 12.1184C15.2251 12.3898 15.6334 12.5255 16.0469 12.4958C16.2405 12.4814 16.4298 12.4312 16.6052 12.3479C16.7004 12.3026 16.8056 12.282 16.9108 12.2883C17.0161 12.2945 17.1181 12.3272 17.2073 12.3835C17.2965 12.4397 17.37 12.5177 17.421 12.61C17.472 12.7023 17.4988 12.806 17.499 12.9115V16.2448C17.4996 16.4093 17.4678 16.5723 17.4054 16.7245C17.343 16.8767 17.2511 17.0151 17.1351 17.1317C17.019 17.2483 16.8811 17.3408 16.7292 17.404C16.5774 17.4673 16.4145 17.4999 16.25 17.5ZM4.375 12.2917C4.54076 12.2917 4.69973 12.3575 4.81694 12.4747C4.93415 12.5919 5 12.7509 5 12.9167V16.25H16.25V13.7344C16.2135 13.7344 16.1771 13.7417 16.1396 13.7437C15.7503 13.7704 15.3597 13.7158 14.9927 13.5833C14.6256 13.4509 14.2901 13.2435 14.0076 12.9744C13.725 12.7053 13.5016 12.3803 13.3514 12.0202C13.2012 11.66 13.1277 11.2725 13.1353 10.8824C13.143 10.4923 13.2318 10.108 13.3961 9.75404C13.5603 9.40008 13.7964 9.08417 14.0893 8.82639C14.3823 8.56861 14.7257 8.37462 15.0976 8.25674C15.4696 8.13885 15.8621 8.09966 16.25 8.14166V5.62499H12.6042C12.4989 5.62515 12.3952 5.59869 12.3029 5.54808C12.2105 5.49747 12.1325 5.42435 12.0759 5.3355C12.0194 5.24665 11.9862 5.14496 11.9795 5.03987C11.9728 4.93478 11.9927 4.82969 12.0375 4.73437C12.1208 4.55897 12.171 4.36968 12.1854 4.17604C12.2017 3.93798 12.1632 3.69936 12.0729 3.47848C11.9826 3.2576 11.843 3.06034 11.6646 2.90181C11.4863 2.74328 11.274 2.6277 11.0441 2.56394C10.8141 2.50018 10.5726 2.48993 10.3381 2.53397C10.1036 2.57801 9.88231 2.67518 9.69118 2.81802C9.50004 2.96086 9.34416 3.14559 9.23549 3.35802C9.12682 3.57045 9.06825 3.80494 9.06426 4.04352C9.06028 4.2821 9.11098 4.51843 9.2125 4.73437C9.25788 4.82966 9.2784 4.93489 9.27212 5.04026C9.26585 5.14562 9.233 5.24767 9.17663 5.33691C9.12026 5.42614 9.04221 5.49965 8.94976 5.55057C8.8573 5.60149 8.75346 5.62817 8.64791 5.62812H5.00208V8.96145C5.00213 9.067 4.97546 9.17084 4.92454 9.26329C4.87361 9.35575 4.80011 9.4338 4.71087 9.49017C4.62164 9.54654 4.51958 9.57939 4.41422 9.58566C4.30886 9.59193 4.20362 9.57142 4.10833 9.52603C3.87018 9.4134 3.60741 9.36282 3.34447 9.37898C3.08152 9.39514 2.82693 9.47752 2.60436 9.61846C2.38179 9.75941 2.19847 9.95434 2.07145 10.1851C1.94442 10.4159 1.87781 10.6751 1.87781 10.9385C1.87781 11.202 1.94442 11.4611 2.07145 11.6919C2.19847 11.9227 2.38179 12.1177 2.60436 12.2586C2.82693 12.3996 3.08152 12.4819 3.34447 12.4981C3.60741 12.5143 3.87018 12.4637 4.10833 12.351C4.1915 12.3107 4.28258 12.2894 4.375 12.2885V12.2917Z" fill="#666666"/>
</svg>
