<svg width="20" height="20" viewBox="0 0 20 20" fill="none" xmlns="http://www.w3.org/2000/svg">
<path d="M5.9375 8.75H14.0625C14.2283 8.75 14.3872 8.68415 14.5044 8.56694C14.6217 8.44973 14.6875 8.29076 14.6875 8.125C14.6875 7.95924 14.6217 7.80027 14.5044 7.68306C14.3872 7.56585 14.2283 7.5 14.0625 7.5H5.9375C5.77174 7.5 5.61277 7.56585 5.49556 7.68306C5.37835 7.80027 5.3125 7.95924 5.3125 8.125C5.3125 8.29076 5.37835 8.44973 5.49556 8.56694C5.61277 8.68415 5.77174 8.75 5.9375 8.75Z" fill="#666666"/>
<path d="M5.9375 11.25H14.0625C14.2283 11.25 14.3872 11.1842 14.5044 11.0669C14.6217 10.9497 14.6875 10.7908 14.6875 10.625C14.6875 10.4592 14.6217 10.3003 14.5044 10.1831C14.3872 10.0659 14.2283 10 14.0625 10H5.9375C5.77174 10 5.61277 10.0659 5.49556 10.1831C5.37835 10.3003 5.3125 10.4592 5.3125 10.625C5.3125 10.7908 5.37835 10.9497 5.49556 11.0669C5.61277 11.1842 5.77174 11.25 5.9375 11.25Z" fill="#666666"/>
<path d="M16.875 3.125H3.125C2.79348 3.125 2.47554 3.2567 2.24112 3.49112C2.0067 3.72554 1.875 4.04348 1.875 4.375V16.25C1.87497 16.3565 1.90216 16.4613 1.954 16.5543C2.00583 16.6474 2.08059 16.7257 2.17118 16.7817C2.26176 16.8377 2.36517 16.8697 2.47157 16.8745C2.57798 16.8794 2.68386 16.857 2.77917 16.8094L5 15.699L7.22083 16.8094C7.30753 16.8527 7.4031 16.8752 7.5 16.8752C7.5969 16.8752 7.69247 16.8527 7.77917 16.8094L10 15.699L12.2208 16.8094C12.3075 16.8527 12.4031 16.8752 12.5 16.8752C12.5969 16.8752 12.6925 16.8527 12.7792 16.8094L15 15.699L17.2208 16.8094C17.3075 16.8526 17.4031 16.8751 17.5 16.875C17.616 16.8752 17.7297 16.8427 17.8281 16.7813C17.9188 16.7253 17.9936 16.6472 18.0456 16.5542C18.0975 16.4612 18.1249 16.3565 18.125 16.25V4.375C18.125 4.04348 17.9933 3.72554 17.7589 3.49112C17.5245 3.2567 17.2065 3.125 16.875 3.125ZM16.875 15.2385L15.2792 14.4406C15.1925 14.3973 15.0969 14.3748 15 14.3748C14.9031 14.3748 14.8075 14.3973 14.7208 14.4406L12.5 15.551L10.2792 14.4406C10.1925 14.3973 10.0969 14.3748 10 14.3748C9.9031 14.3748 9.80753 14.3973 9.72083 14.4406L7.5 15.551L5.27917 14.4406C5.19247 14.3973 5.0969 14.3748 5 14.3748C4.9031 14.3748 4.80753 14.3973 4.72083 14.4406L3.125 15.2385V4.375H16.875V15.2385Z" fill="#666666"/>
</svg>
