<svg width="20" height="20" viewBox="0 0 20 20" fill="none" xmlns="http://www.w3.org/2000/svg">
<path d="M6.23438 7.78906H2.48438V4.03906" stroke="#666666" stroke-width="1.4" stroke-linecap="round" stroke-linejoin="round"/>
<path d="M14.8594 5.14063C14.2216 4.50189 13.4641 3.99516 12.6303 3.64942C11.7965 3.30369 10.9027 3.12573 10 3.12573C9.09735 3.12573 8.20355 3.30369 7.36973 3.64942C6.53591 3.99516 5.77843 4.50189 5.14063 5.14063L2.48438 7.78907" stroke="#666666" stroke-width="1.4" stroke-linecap="round" stroke-linejoin="round"/>
<path d="M13.7656 12.2109H17.5156V15.9609" stroke="#666666" stroke-width="1.4" stroke-linecap="round" stroke-linejoin="round"/>
<path d="M5.14062 14.8594C5.77843 15.4981 6.53591 16.0048 7.36973 16.3506C8.20355 16.6963 9.09735 16.8743 10 16.8743C10.9027 16.8743 11.7965 16.6963 12.6303 16.3506C13.4641 16.0048 14.2216 15.4981 14.8594 14.8594L17.5156 12.2109" stroke="#666666" stroke-width="1.4" stroke-linecap="round" stroke-linejoin="round"/>
</svg>
