<svg width="20" height="20" viewBox="0 0 20 20" fill="none" xmlns="http://www.w3.org/2000/svg">
<path d="M7.35153 12.6484L12.6484 7.34375" stroke="#434343" stroke-width="1.4" stroke-linecap="round" stroke-linejoin="round"/>
<path d="M11.3282 13.9766L9.11725 16.1875C8.76894 16.5358 8.35544 16.8121 7.90035 17.0006C7.44526 17.1891 6.95749 17.2861 6.46491 17.2861C5.47009 17.2861 4.51601 16.8909 3.81256 16.1875C3.10912 15.4841 2.71393 14.53 2.71393 13.5352C2.71393 12.5403 3.10912 11.5863 3.81256 10.8828L6.0235 8.67188" stroke="#434343" stroke-width="1.4" stroke-linecap="round" stroke-linejoin="round"/>
<path d="M13.9766 11.3281L16.1875 9.11719C16.8909 8.41375 17.2861 7.45967 17.2861 6.46485C17.2861 5.47003 16.8909 4.51595 16.1875 3.8125C15.4841 3.10906 14.53 2.71387 13.5352 2.71387C12.5403 2.71387 11.5863 3.10906 10.8828 3.8125L8.67188 6.02344" stroke="#434343" stroke-width="1.4" stroke-linecap="round" stroke-linejoin="round"/>
</svg>
