<svg width="21" height="20" viewBox="0 0 21 20" fill="none" xmlns="http://www.w3.org/2000/svg">
<path d="M17.4219 9.64844L9.90623 17.1641C9.6709 17.3959 9.35379 17.5259 9.02342 17.5259C8.69304 17.5259 8.37593 17.3959 8.14061 17.1641L1.50779 10.5313C1.27592 10.2959 1.14594 9.97881 1.14594 9.64844C1.14594 9.31806 1.27592 9.00095 1.50779 8.76562L9.02342 1.25L17.4219 9.64844Z" stroke="#434343" stroke-width="1.4" stroke-linecap="round" stroke-linejoin="round"/>
<path d="M9.6875 10.625C10.5504 10.625 11.25 9.92544 11.25 9.0625C11.25 8.19956 10.5504 7.5 9.6875 7.5C8.82456 7.5 8.125 8.19956 8.125 9.0625C8.125 9.92544 8.82456 10.625 9.6875 10.625Z" stroke="#434343" stroke-width="1.4" stroke-linecap="round" stroke-linejoin="round"/>
<path d="M16.25 15.9375C16.25 14.375 17.8125 12.8125 17.8125 12.8125C17.8125 12.8125 19.375 14.375 19.375 15.9375C19.375 16.3519 19.2104 16.7493 18.9174 17.0424C18.6243 17.3354 18.2269 17.5 17.8125 17.5C17.3981 17.5 17.0007 17.3354 16.7076 17.0424C16.4146 16.7493 16.25 16.3519 16.25 15.9375Z" fill="#CC2929" stroke="#CC2929" stroke-width="1.4" stroke-linecap="round" stroke-linejoin="round"/>
<path d="M8.58597 7.96097L2.96097 2.33597" stroke="#434343" stroke-width="1.4" stroke-linecap="round" stroke-linejoin="round"/>
</svg>
