<svg width="20" height="20" viewBox="0 0 20 20" fill="none" xmlns="http://www.w3.org/2000/svg">
<path d="M8.125 10H16.875" stroke="#434343" stroke-width="1.4" stroke-linecap="round" stroke-linejoin="round"/>
<path d="M8.125 5H16.875" stroke="#434343" stroke-width="1.4" stroke-linecap="round" stroke-linejoin="round"/>
<path d="M8.125 15H16.875" stroke="#434343" stroke-width="1.4" stroke-linecap="round" stroke-linejoin="round"/>
<path d="M3.125 4.6875L4.375 4.0625V8.4375" stroke="#434343" stroke-width="1.4" stroke-linecap="round" stroke-linejoin="round"/>
<path d="M3.21094 11.9219C3.26853 11.7793 3.35555 11.6504 3.46632 11.5437C3.57708 11.4371 3.70911 11.3549 3.85377 11.3027C3.99843 11.2505 4.15248 11.2294 4.30586 11.2407C4.45923 11.2521 4.60849 11.2956 4.74389 11.3686C4.87928 11.4415 4.99777 11.5422 5.09162 11.6641C5.18547 11.7859 5.25256 11.9262 5.28853 12.0757C5.32449 12.2252 5.32852 12.3807 5.30034 12.5319C5.27216 12.6831 5.21242 12.8266 5.125 12.9532L3.125 15.625H5.3125" stroke="#434343" stroke-width="1.4" stroke-linecap="round" stroke-linejoin="round"/>
</svg>
