<svg width="20" height="20" viewBox="0 0 20 20" fill="none" xmlns="http://www.w3.org/2000/svg">
<path d="M8.10702 14.5266C8.07655 14.6477 7.31484 17.5 3.12499 17.5C2.95923 17.5 2.80026 17.4341 2.68305 17.3169C2.56584 17.1997 2.49999 17.0408 2.49999 16.875C2.49999 12.6852 5.35234 11.9234 5.47343 11.893C5.63432 11.8528 5.80459 11.8781 5.94678 11.9635C6.08897 12.0488 6.19144 12.1872 6.23163 12.348C6.27183 12.5089 6.24647 12.6792 6.16112 12.8214C6.07578 12.9636 5.93745 13.066 5.77655 13.1062C5.70624 13.1258 4.02499 13.6172 3.77968 16.2203C6.3828 15.975 6.87499 14.2969 6.8953 14.2187C6.93674 14.0581 7.04032 13.9204 7.18324 13.8361C7.32617 13.7518 7.49673 13.7277 7.65741 13.7691C7.8181 13.8106 7.95574 13.9142 8.04006 14.0571C8.12437 14.2 8.14846 14.3706 8.10702 14.5312V14.5266ZM15.3726 9.26093L15 9.63359V14.1906C15.0009 14.3554 14.9691 14.5187 14.9063 14.6711C14.8435 14.8235 14.7511 14.9618 14.6344 15.0781L11.9531 17.7578C11.8375 17.8743 11.7 17.9667 11.5484 18.0297C11.3969 18.0927 11.2344 18.1251 11.0703 18.125C10.9349 18.125 10.8003 18.1031 10.6719 18.0602C10.4513 17.9872 10.2556 17.854 10.1067 17.6756C9.95791 17.4973 9.86194 17.2808 9.82968 17.0508L9.41015 14.0437L5.95624 10.5898L2.95077 10.1703C2.72042 10.138 2.50364 10.0421 2.32484 9.89327C2.14604 9.74448 2.0123 9.54875 1.93867 9.3281C1.86504 9.10745 1.85443 8.87063 1.90805 8.64428C1.96167 8.41794 2.07739 8.21104 2.24218 8.04687L4.92187 5.36562C5.03818 5.24889 5.17654 5.15645 5.3289 5.09368C5.48126 5.03091 5.64458 4.99907 5.80937 5H10.3664L10.7391 4.62734C12.8234 2.54375 15.3344 2.4539 16.318 2.5125C16.6227 2.53102 16.9101 2.66043 17.126 2.87631C17.3419 3.0922 17.4713 3.37963 17.4898 3.68437C17.5469 4.66484 17.457 7.17656 15.3734 9.26093H15.3726ZM9.1164 6.25H5.80937L3.12499 8.93281L6.02734 9.3375L9.1164 6.25ZM13.75 10.8836L10.6617 13.9719L11.068 16.875L13.75 14.1906V10.8836Z" fill="#666666"/>
</svg>
