<svg width="20" height="20" viewBox="0 0 20 20" fill="none" xmlns="http://www.w3.org/2000/svg">
<g id="row">
<path id="Vector" d="M17.88 4.37C17.65 4.14 17.33 4 17 4H3.25C2.92 4 2.6 4.13 2.37 4.37C2.14 4.6 2 4.92 2 5.25V15.25C2 15.58 2.13 15.9 2.37 16.13C2.61 16.36 2.92 16.5 3.25 16.5H17C17.33 16.5 17.65 16.37 17.88 16.13C18.11 15.9 18.25 15.58 18.25 15.25V5.25C18.25 4.92 18.12 4.6 17.88 4.37ZM13.25 5.25H17V7.75H13.25V5.25ZM8.25 5.25H12V7.75H8.25V5.25ZM3.25 5.25H7V7.75H3.25V5.25ZM7 15.25H3.25V12.75H7V15.25ZM12 15.25H8.25V12.75H12V15.25ZM17 15.25H13.25V12.75H17V15.25Z" fill="#697586"/>
</g>
</svg>
