<svg width="20" height="20" viewBox="0 0 20 20" fill="none" xmlns="http://www.w3.org/2000/svg">
<path d="M17.3125 11.6719C17.4421 11.103 17.505 10.521 17.5 9.93753C17.4687 5.80472 14.0468 2.46097 9.92185 2.50003C8.15961 2.51862 6.4602 3.15717 5.12178 4.30367C3.78335 5.45016 2.89141 7.03136 2.60244 8.76984C2.31347 10.5083 2.64593 12.293 3.54149 13.8109C4.43705 15.3287 5.83851 16.4827 7.49997 17.0703C7.7826 17.1722 8.08562 17.2043 8.38331 17.164C8.68101 17.1237 8.96458 17.0121 9.20996 16.8388C9.45534 16.6655 9.65528 16.4356 9.79282 16.1685C9.93035 15.9014 10.0014 15.6051 9.99997 15.3047V15C9.99894 14.7535 10.0467 14.5092 10.1406 14.2813C10.2345 14.0533 10.3725 13.8462 10.5468 13.6719C10.7212 13.4976 10.9283 13.3595 11.1562 13.2657C11.3842 13.1718 11.6285 13.124 11.875 13.125H15.4843C15.9085 13.1253 16.3202 12.9818 16.6523 12.7178C16.9843 12.4539 17.217 12.0852 17.3125 11.6719V11.6719Z" stroke="#666666" stroke-width="1.4" stroke-linecap="round" stroke-linejoin="round"/>
<path d="M10 6.875C10.5178 6.875 10.9375 6.45527 10.9375 5.9375C10.9375 5.41973 10.5178 5 10 5C9.48223 5 9.0625 5.41973 9.0625 5.9375C9.0625 6.45527 9.48223 6.875 10 6.875Z" fill="#666666"/>
<path d="M6.48438 8.90625C7.00214 8.90625 7.42188 8.48652 7.42188 7.96875C7.42188 7.45098 7.00214 7.03125 6.48438 7.03125C5.96661 7.03125 5.54688 7.45098 5.54688 7.96875C5.54688 8.48652 5.96661 8.90625 6.48438 8.90625Z" fill="#666666"/>
<path d="M6.48438 12.9687C7.00214 12.9687 7.42188 12.549 7.42188 12.0312C7.42188 11.5134 7.00214 11.0937 6.48438 11.0937C5.96661 11.0937 5.54688 11.5134 5.54688 12.0312C5.54688 12.549 5.96661 12.9687 6.48438 12.9687Z" fill="#666666"/>
<path d="M13.5156 8.90625C14.0334 8.90625 14.4531 8.48652 14.4531 7.96875C14.4531 7.45098 14.0334 7.03125 13.5156 7.03125C12.9979 7.03125 12.5781 7.45098 12.5781 7.96875C12.5781 8.48652 12.9979 8.90625 13.5156 8.90625Z" fill="#666666"/>
</svg>
