<svg width="20" height="20" viewBox="0 0 20 20" fill="none" xmlns="http://www.w3.org/2000/svg">
<path d="M16.6719 8.56255L10.4219 2.88286C10.3067 2.77745 10.1562 2.71899 10 2.71899C9.84384 2.71899 9.69334 2.77745 9.57812 2.88286L3.32812 8.56255C3.26523 8.62194 3.21486 8.69332 3.17998 8.77248C3.14509 8.85165 3.1264 8.93699 3.125 9.02348V16.25C3.125 16.4158 3.19085 16.5748 3.30806 16.692C3.42527 16.8092 3.58424 16.875 3.75 16.875H16.25C16.4158 16.875 16.5747 16.8092 16.6919 16.692C16.8092 16.5748 16.875 16.4158 16.875 16.25V9.02348C16.8736 8.93699 16.8549 8.85165 16.82 8.77248C16.7851 8.69332 16.7348 8.62194 16.6719 8.56255V8.56255Z" stroke="#666666" stroke-width="1.4" stroke-linecap="round" stroke-linejoin="round"/>
</svg>
