<svg width="20" height="20" viewBox="0 0 20 20" fill="none" xmlns="http://www.w3.org/2000/svg">
<path d="M17.5 9.95313C17.5073 10.9469 17.3162 11.932 16.9379 12.851C16.5596 13.7699 16.0017 14.6041 15.2969 15.3047C12.4141 18.1875 7.69532 18.2188 4.77345 15.375C3.70148 14.3319 2.9659 12.9921 2.6612 11.5277C2.35651 10.0633 2.49662 8.54131 3.06355 7.15718C3.63047 5.77305 4.5983 4.59005 5.84269 3.76017C7.08708 2.93029 8.55118 2.49144 10.0469 2.5C10.1405 2.50138 10.2326 2.5235 10.3166 2.56477C10.4006 2.60604 10.4744 2.66543 10.5327 2.73866C10.591 2.81189 10.6323 2.89714 10.6537 2.98827C10.675 3.07939 10.6759 3.17412 10.6563 3.26563C10.5749 3.62859 10.5755 4.00515 10.6581 4.36785C10.7407 4.73054 10.9032 5.07023 11.1337 5.36216C11.3643 5.65408 11.657 5.89088 11.9907 6.05529C12.3244 6.21969 12.6906 6.30757 13.0625 6.3125C13.2283 6.3125 13.3872 6.37835 13.5045 6.49556C13.6217 6.61277 13.6875 6.77174 13.6875 6.9375C13.6924 7.30945 13.7803 7.67561 13.9447 8.00929C14.1091 8.34297 14.3459 8.63575 14.6379 8.8663C14.9298 9.09684 15.2695 9.25934 15.6322 9.34194C15.9949 9.42453 16.3714 9.42515 16.7344 9.34375C16.8259 9.3241 16.9206 9.32499 17.0117 9.34636C17.1029 9.36772 17.1881 9.40904 17.2613 9.46733C17.3346 9.52561 17.394 9.59942 17.4352 9.68342C17.4765 9.76743 17.4986 9.85954 17.5 9.95313V9.95313Z" stroke="#666666" stroke-width="1.4" stroke-linecap="round" stroke-linejoin="round"/>
<path d="M12.1875 14.375C12.7053 14.375 13.125 13.9553 13.125 13.4375C13.125 12.9197 12.7053 12.5 12.1875 12.5C11.6697 12.5 11.25 12.9197 11.25 13.4375C11.25 13.9553 11.6697 14.375 12.1875 14.375Z" fill="#666666"/>
<path d="M7.1875 13.75C7.70527 13.75 8.125 13.3303 8.125 12.8125C8.125 12.2947 7.70527 11.875 7.1875 11.875C6.66973 11.875 6.25 12.2947 6.25 12.8125C6.25 13.3303 6.66973 13.75 7.1875 13.75Z" fill="#666666"/>
<path d="M6.5625 9.375C7.08027 9.375 7.5 8.95527 7.5 8.4375C7.5 7.91973 7.08027 7.5 6.5625 7.5C6.04473 7.5 5.625 7.91973 5.625 8.4375C5.625 8.95527 6.04473 9.375 6.5625 9.375Z" fill="#666666"/>
<path d="M10.625 10.625C11.1428 10.625 11.5625 10.2053 11.5625 9.6875C11.5625 9.16973 11.1428 8.75 10.625 8.75C10.1072 8.75 9.6875 9.16973 9.6875 9.6875C9.6875 10.2053 10.1072 10.625 10.625 10.625Z" fill="#666666"/>
</svg>
