<svg width="20" height="20" viewBox="0 0 20 20" fill="none" xmlns="http://www.w3.org/2000/svg">
<path d="M4.99999 16.875C4.83423 16.875 4.67525 16.8091 4.55804 16.6919C4.44083 16.5747 4.37499 16.4157 4.37499 16.25V12.914C4.0321 13.0776 3.65209 13.1477 3.27342 13.1172C2.95279 13.0936 2.6413 12.9997 2.3611 12.842C2.08091 12.6844 1.83891 12.4669 1.65232 12.2051C1.46574 11.9433 1.33915 11.6436 1.28158 11.3273C1.224 11.011 1.23686 10.6859 1.31922 10.3751C1.40159 10.0644 1.55144 9.77558 1.75811 9.52932C1.96478 9.28306 2.2232 9.08538 2.51496 8.95035C2.80672 8.81532 3.12466 8.74626 3.44615 8.74809C3.76764 8.74992 4.08478 8.82259 4.37499 8.96092V5.62499C4.37499 5.45923 4.44083 5.30025 4.55804 5.18304C4.67525 5.06583 4.83423 4.99999 4.99999 4.99999H8.64842C8.48486 4.6571 8.41479 4.27709 8.4453 3.89842C8.46886 3.57779 8.5628 3.2663 8.72044 2.9861C8.87808 2.70591 9.09554 2.46391 9.35735 2.27732C9.61916 2.09074 9.91888 1.96415 10.2352 1.90658C10.5515 1.849 10.8766 1.86186 11.1873 1.94422C11.4981 2.02659 11.7869 2.17644 12.0332 2.38311C12.2794 2.58978 12.4771 2.8482 12.6121 3.13996C12.7472 3.43172 12.8162 3.74966 12.8144 4.07115C12.8126 4.39264 12.7399 4.70978 12.6015 4.99999H16.25C16.4157 4.99999 16.5747 5.06583 16.6919 5.18304C16.8091 5.30025 16.875 5.45923 16.875 5.62499V8.96092C16.5321 8.79736 16.1521 8.72729 15.7734 8.7578C15.4528 8.78136 15.1413 8.8753 14.8611 9.03294C14.5809 9.19058 14.3389 9.40804 14.1523 9.66985C13.9657 9.93166 13.8392 10.2314 13.7816 10.5477C13.724 10.864 13.7369 11.1891 13.8192 11.4998C13.9016 11.8106 14.0514 12.0994 14.2581 12.3457C14.4648 12.5919 14.7232 12.7896 15.015 12.9246C15.3067 13.0597 15.6247 13.1287 15.9462 13.1269C16.2676 13.1251 16.5848 13.0524 16.875 12.914V16.25C16.875 16.4157 16.8091 16.5747 16.6919 16.6919C16.5747 16.8091 16.4157 16.875 16.25 16.875H4.99999Z" stroke="#666666" stroke-width="1.4" stroke-linecap="round" stroke-linejoin="round"/>
</svg>
