<svg width="21" height="20" viewBox="0 0 21 20" fill="none" xmlns="http://www.w3.org/2000/svg">
<path d="M7.25 18.125C7.94036 18.125 8.5 17.5654 8.5 16.875C8.5 16.1846 7.94036 15.625 7.25 15.625C6.55964 15.625 6 16.1846 6 16.875C6 17.5654 6.55964 18.125 7.25 18.125Z" fill="#666666"/>
<path d="M15.375 18.125C16.0654 18.125 16.625 17.5654 16.625 16.875C16.625 16.1846 16.0654 15.625 15.375 15.625C14.6846 15.625 14.125 16.1846 14.125 16.875C14.125 17.5654 14.6846 18.125 15.375 18.125Z" fill="#666666"/>
<path d="M4.30469 5.625H18.3203L16.2578 12.8437C16.1842 13.1057 16.0266 13.3363 15.8093 13.5C15.5919 13.6638 15.3268 13.7516 15.0547 13.75H7.57031C7.29819 13.7516 7.03308 13.6638 6.81572 13.5C6.59836 13.3363 6.44078 13.1057 6.36719 12.8437L3.53906 2.95313C3.50169 2.82246 3.42275 2.70754 3.3142 2.62578C3.20565 2.54401 3.0734 2.49986 2.9375 2.5H1.625" stroke="#666666" stroke-width="1.4" stroke-linecap="round" stroke-linejoin="round"/>
</svg>
