<svg width="20" height="20" viewBox="0 0 20 20" fill="none" xmlns="http://www.w3.org/2000/svg">
<path d="M9.58587 2.02343L3.28118 3.28124L2.02337 9.58593C2.00366 9.68659 2.00902 9.79056 2.039 9.88866C2.06897 9.98676 2.12263 10.076 2.19524 10.1484L10.3515 18.3047C10.409 18.3635 10.4776 18.4102 10.5534 18.4421C10.6292 18.4741 10.7107 18.4905 10.7929 18.4905C10.8751 18.4905 10.9566 18.4741 11.0324 18.4421C11.1082 18.4102 11.1768 18.3635 11.2343 18.3047L18.3046 11.2344C18.3634 11.1769 18.4102 11.1082 18.4421 11.0324C18.474 10.9566 18.4904 10.8752 18.4904 10.793C18.4904 10.7107 18.474 10.6293 18.4421 10.5535C18.4102 10.4777 18.3634 10.409 18.3046 10.3516L10.1484 2.1953C10.0759 2.12269 9.9867 2.06903 9.8886 2.03906C9.7905 2.00909 9.68653 2.00372 9.58587 2.02343V2.02343Z" stroke="#666666" stroke-width="1.4" stroke-linecap="round" stroke-linejoin="round"/>
<path d="M6.5625 7.5C7.08027 7.5 7.5 7.08027 7.5 6.5625C7.5 6.04473 7.08027 5.625 6.5625 5.625C6.04473 5.625 5.625 6.04473 5.625 6.5625C5.625 7.08027 6.04473 7.5 6.5625 7.5Z" fill="#666666"/>
</svg>
