<svg width="20" height="20" viewBox="0 0 20 20" fill="none" xmlns="http://www.w3.org/2000/svg">
<path d="M13.75 12.5C13.3331 12.4998 12.9204 12.5833 12.5364 12.7456C12.1524 12.9079 11.805 13.1457 11.5146 13.4448L7.91249 11.1302C8.19586 10.4034 8.19586 9.59661 7.91249 8.86978L11.5146 6.5552C12.0559 7.10902 12.7836 7.44211 13.5566 7.48987C14.3296 7.53764 15.0927 7.29668 15.6981 6.81372C16.3036 6.33075 16.7081 5.64019 16.8332 4.87592C16.9584 4.11166 16.7953 3.32813 16.3756 2.67727C15.9559 2.02641 15.3095 1.55457 14.5617 1.35326C13.8139 1.15194 13.0179 1.23547 12.3282 1.58767C11.6384 1.93986 11.1041 2.53562 10.8286 3.25944C10.5532 3.98326 10.5564 4.78357 10.8375 5.50519L7.2354 7.81978C6.80173 7.37445 6.24511 7.06858 5.6367 6.94125C5.02828 6.81392 4.39571 6.87093 3.81987 7.105C3.24402 7.33906 2.75106 7.73953 2.40401 8.25523C2.05696 8.77092 1.87158 9.37839 1.87158 9.99998C1.87158 10.6216 2.05696 11.2291 2.40401 11.7447C2.75106 12.2604 3.24402 12.6609 3.81987 12.895C4.39571 13.129 5.02828 13.186 5.6367 13.0587C6.24511 12.9314 6.80173 12.6255 7.2354 12.1802L10.8375 14.4948C10.5962 15.1169 10.5603 15.7999 10.7351 16.4438C10.91 17.0878 11.2863 17.6588 11.8092 18.0735C12.332 18.4881 12.9738 18.7245 13.6406 18.748C14.3074 18.7716 14.9643 18.5811 15.5151 18.2044C16.0659 17.8277 16.4816 17.2846 16.7014 16.6546C16.9213 16.0246 16.9337 15.3408 16.7369 14.7032C16.5401 14.0657 16.1444 13.5078 15.6077 13.1114C15.0709 12.7149 14.4214 12.5007 13.7542 12.5H13.75ZM13.75 2.49999C14.1208 2.49999 14.4833 2.60995 14.7917 2.81598C15.1 3.02201 15.3403 3.31484 15.4823 3.65746C15.6242 4.00007 15.6613 4.37707 15.589 4.74078C15.5166 5.10449 15.338 5.43859 15.0758 5.70081C14.8136 5.96304 14.4795 6.14161 14.1158 6.21396C13.7521 6.28631 13.3751 6.24918 13.0325 6.10726C12.6898 5.96535 12.397 5.72502 12.191 5.41668C11.985 5.10834 11.875 4.74582 11.875 4.37498C11.875 3.8777 12.0725 3.40079 12.4242 3.04916C12.7758 2.69753 13.2527 2.49999 13.75 2.49999ZM4.99999 11.875C4.62915 11.875 4.26663 11.765 3.95829 11.559C3.64995 11.353 3.40963 11.0601 3.26771 10.7175C3.1258 10.3749 3.08867 9.9979 3.16101 9.63419C3.23336 9.27048 3.41194 8.93638 3.67416 8.67416C3.93639 8.41194 4.27048 8.23336 4.63419 8.16101C4.99791 8.08867 5.37491 8.1258 5.71752 8.26771C6.06013 8.40963 6.35297 8.64995 6.55899 8.95829C6.76502 9.26663 6.87499 9.62914 6.87499 9.99998C6.87499 10.4973 6.67744 10.9742 6.32581 11.3258C5.97418 11.6774 5.49727 11.875 4.99999 11.875ZM13.75 17.5C13.3791 17.5 13.0166 17.39 12.7083 17.184C12.3999 16.978 12.1596 16.6851 12.0177 16.3425C11.8758 15.9999 11.8387 15.6229 11.911 15.2592C11.9834 14.8955 12.1619 14.5614 12.4242 14.2992C12.6864 14.0369 13.0205 13.8584 13.3842 13.786C13.7479 13.7137 14.1249 13.7508 14.4675 13.8927C14.8101 14.0346 15.103 14.275 15.309 14.5833C15.515 14.8916 15.625 15.2541 15.625 15.625C15.625 16.1223 15.4274 16.5992 15.0758 16.9508C14.7242 17.3024 14.2473 17.5 13.75 17.5Z" fill="#666666"/>
</svg>
