<svg width="20" height="20" viewBox="0 0 20 20" fill="none" xmlns="http://www.w3.org/2000/svg">
<path d="M16.875 3.125H3.125C2.79348 3.125 2.47554 3.2567 2.24112 3.49112C2.0067 3.72554 1.875 4.04348 1.875 4.375V15.625C1.875 15.9565 2.0067 16.2745 2.24112 16.5089C2.47554 16.7433 2.79348 16.875 3.125 16.875H16.875C17.2065 16.875 17.5245 16.7433 17.7589 16.5089C17.9933 16.2745 18.125 15.9565 18.125 15.625V4.375C18.125 4.04348 17.9933 3.72554 17.7589 3.49112C17.5245 3.2567 17.2065 3.125 16.875 3.125ZM16.875 15.625H3.125V4.375H16.875V15.625Z" fill="#666666"/>
<path d="M10 10.625C10.9946 10.625 11.9484 10.2299 12.6516 9.52665C13.3549 8.82339 13.75 7.86956 13.75 6.875C13.75 6.70924 13.6842 6.55027 13.5669 6.43306C13.4497 6.31585 13.2908 6.25 13.125 6.25C12.9592 6.25 12.8003 6.31585 12.6831 6.43306C12.5658 6.55027 12.5 6.70924 12.5 6.875C12.5 7.53804 12.2366 8.17393 11.7678 8.64277C11.2989 9.11161 10.663 9.375 10 9.375C9.33696 9.375 8.70108 9.11161 8.23223 8.64277C7.76339 8.17393 7.5 7.53804 7.5 6.875C7.5 6.70924 7.43415 6.55027 7.31694 6.43306C7.19973 6.31585 7.04076 6.25 6.875 6.25C6.70924 6.25 6.55027 6.31585 6.43306 6.43306C6.31585 6.55027 6.25 6.70924 6.25 6.875C6.25 7.86956 6.64509 8.82339 7.34835 9.52665C8.05161 10.2299 9.00544 10.625 10 10.625Z" fill="#666666"/>
</svg>
