<svg width="20" height="20" viewBox="0 0 20 20" fill="none" xmlns="http://www.w3.org/2000/svg">
<g clip-path="url(#clip0_675_11540)">
<path d="M6.25 18.125C6.94036 18.125 7.5 17.5654 7.5 16.875C7.5 16.1846 6.94036 15.625 6.25 15.625C5.55964 15.625 5 16.1846 5 16.875C5 17.5654 5.55964 18.125 6.25 18.125Z" fill="#666666"/>
<path d="M14.375 18.125C15.0654 18.125 15.625 17.5654 15.625 16.875C15.625 16.1846 15.0654 15.625 14.375 15.625C13.6846 15.625 13.125 16.1846 13.125 16.875C13.125 17.5654 13.6846 18.125 14.375 18.125Z" fill="#666666"/>
<path d="M17.8187 5.24896C17.7605 5.17167 17.6852 5.10895 17.5986 5.06575C17.512 5.02255 17.4166 5.00004 17.3198 5H3.77812L3.14167 2.78125C3.06702 2.52027 2.90945 2.29068 2.69277 2.12719C2.47608 1.96369 2.21207 1.87517 1.94063 1.875H0.625C0.542924 1.875 0.46165 1.89117 0.385822 1.92258C0.309993 1.95398 0.241096 2.00002 0.183059 2.05806C0.125023 2.1161 0.0789848 2.185 0.0475756 2.26082C0.0161664 2.33665 0 2.41792 0 2.5C0 2.58208 0.0161664 2.66335 0.0475756 2.73918C0.0789848 2.81501 0.125023 2.88391 0.183059 2.94194C0.241096 2.99998 0.309993 3.04602 0.385822 3.07743C0.46165 3.10884 0.542924 3.125 0.625 3.125H1.9375L4.76562 13.0125C4.87666 13.4033 5.1116 13.7474 5.43509 13.9931C5.75859 14.2389 6.15314 14.3729 6.55937 14.375H14.0594C14.4657 14.3737 14.8607 14.2405 15.1848 13.9953C15.5088 13.7501 15.7445 13.4063 15.8562 13.0156L17.9187 5.79688C17.9456 5.70403 17.9505 5.60623 17.9332 5.51116C17.9158 5.41609 17.8766 5.32634 17.8187 5.24896ZM14.6563 12.675C14.6185 12.8045 14.5398 12.9183 14.4321 12.9994C14.3243 13.0805 14.1932 13.1246 14.0583 13.125H6.55833C6.42359 13.1237 6.29289 13.0789 6.1857 12.9972C6.07852 12.9155 6.00059 12.8014 5.96354 12.6719L4.13125 6.25H16.4917L14.6563 12.675Z" fill="#666666"/>
</g>
<defs>
<clipPath id="clip0_675_11540">
<rect width="20" height="20" fill="white"/>
</clipPath>
</defs>
</svg>
