<svg width="20" height="20" viewBox="0 0 20 20" fill="none" xmlns="http://www.w3.org/2000/svg">
<path d="M16.6719 8.56248L10.4219 2.8828C10.3067 2.77739 10.1562 2.71893 10 2.71893C9.84384 2.71893 9.69334 2.77739 9.57812 2.8828L3.32812 8.56248C3.26523 8.62188 3.21486 8.69326 3.17998 8.77242C3.14509 8.85159 3.1264 8.93693 3.125 9.02342V16.25C3.125 16.4157 3.19085 16.5747 3.30806 16.6919C3.42527 16.8091 3.58424 16.875 3.75 16.875H16.25C16.4158 16.875 16.5747 16.8091 16.6919 16.6919C16.8092 16.5747 16.875 16.4157 16.875 16.25V9.02342C16.8736 8.93693 16.8549 8.85159 16.82 8.77242C16.7851 8.69326 16.7348 8.62188 16.6719 8.56248V8.56248Z" stroke="white" stroke-linecap="round" stroke-linejoin="round"/>
</svg>
