<svg width="20" height="20" viewBox="0 0 20 20" fill="none" xmlns="http://www.w3.org/2000/svg">
<path d="M7.5 4.375V15.625" stroke="white" stroke-linecap="round" stroke-linejoin="round"/>
<path d="M1.87501 13.0625C1.87421 12.9186 1.92375 12.7789 2.01506 12.6676C2.10636 12.5563 2.23369 12.4805 2.37501 12.4531C2.93713 12.3338 3.44122 12.025 3.80291 11.5784C4.1646 11.1319 4.36196 10.5747 4.36196 10C4.36196 9.42534 4.1646 8.86812 3.80291 8.42157C3.44122 7.97502 2.93713 7.66623 2.37501 7.54687C2.23369 7.51955 2.10636 7.44368 2.01506 7.33241C1.92375 7.22113 1.87421 7.08144 1.87501 6.9375V5C1.87501 4.83424 1.94086 4.67527 2.05807 4.55806C2.17528 4.44085 2.33425 4.375 2.50001 4.375H17.5C17.6658 4.375 17.8247 4.44085 17.942 4.55806C18.0592 4.67527 18.125 4.83424 18.125 5V6.9375C18.1258 7.08144 18.0763 7.22113 17.985 7.33241C17.8937 7.44368 17.7663 7.51955 17.625 7.54687C17.0629 7.66623 16.5588 7.97502 16.1971 8.42157C15.8354 8.86812 15.6381 9.42534 15.6381 10C15.6381 10.5747 15.8354 11.1319 16.1971 11.5784C16.5588 12.025 17.0629 12.3338 17.625 12.4531C17.7663 12.4805 17.8937 12.5563 17.985 12.6676C18.0763 12.7789 18.1258 12.9186 18.125 13.0625V15C18.125 15.1658 18.0592 15.3247 17.942 15.4419C17.8247 15.5592 17.6658 15.625 17.5 15.625H2.50001C2.33425 15.625 2.17528 15.5592 2.05807 15.4419C1.94086 15.3247 1.87501 15.1658 1.87501 15V13.0625Z" stroke="white" stroke-linecap="round" stroke-linejoin="round"/>
</svg>
