<svg width="20" height="20" viewBox="0 0 20 20" fill="none" xmlns="http://www.w3.org/2000/svg">
<path d="M6.875 12.5C9.11866 12.5 10.9375 10.6812 10.9375 8.4375C10.9375 6.19384 9.11866 4.375 6.875 4.375C4.63134 4.375 2.8125 6.19384 2.8125 8.4375C2.8125 10.6812 4.63134 12.5 6.875 12.5Z" stroke="white" stroke-miterlimit="10"/>
<path d="M12.1407 4.52344C12.4998 4.42604 12.8702 4.37613 13.2423 4.375C14.3197 4.375 15.353 4.80301 16.1149 5.56488C16.8768 6.32675 17.3048 7.36006 17.3048 8.4375C17.3048 9.51494 16.8768 10.5483 16.1149 11.3101C15.353 12.072 14.3197 12.5 13.2423 12.5" stroke="white" stroke-linecap="round" stroke-linejoin="round"/>
<path d="M1.25 15.4219C1.88433 14.5192 2.72659 13.7825 3.70563 13.2738C4.68467 12.7652 5.77173 12.4997 6.875 12.4997C7.97827 12.4997 9.06533 12.7652 10.0444 13.2738C11.0234 13.7825 11.8657 14.5192 12.5 15.4219" stroke="white" stroke-linecap="round" stroke-linejoin="round"/>
<path d="M13.2422 12.5C14.3455 12.4993 15.4328 12.7645 16.412 13.2731C17.3911 13.7817 18.2333 14.5188 18.8672 15.4219" stroke="white" stroke-linecap="round" stroke-linejoin="round"/>
</svg>
