<svg width="20" height="20" viewBox="0 0 20 20" fill="none" xmlns="http://www.w3.org/2000/svg">
<path d="M17.5 13.8515V6.14841C17.4994 6.03714 17.4695 5.928 17.4132 5.83199C17.357 5.73597 17.2764 5.65648 17.1797 5.60154L10.3047 1.73435C10.2121 1.68087 10.107 1.65271 10 1.65271C9.89303 1.65271 9.78795 1.68087 9.69531 1.73435L2.82031 5.60154C2.72356 5.65648 2.643 5.73597 2.58676 5.83199C2.53052 5.928 2.5006 6.03714 2.5 6.14841V13.8515C2.5006 13.9628 2.53052 14.072 2.58676 14.168C2.643 14.264 2.72356 14.3435 2.82031 14.3984L9.69531 18.2656C9.78795 18.3191 9.89303 18.3472 10 18.3472C10.107 18.3472 10.2121 18.3191 10.3047 18.2656L17.1797 14.3984C17.2764 14.3435 17.357 14.264 17.4132 14.168C17.4695 14.072 17.4994 13.9628 17.5 13.8515V13.8515Z" stroke="white" stroke-linecap="round" stroke-linejoin="round"/>
<path d="M17.4141 5.82812L10.0703 10L2.58594 5.82812" stroke="white" stroke-linecap="round" stroke-linejoin="round"/>
<path d="M10.0703 10L10 18.3438" stroke="white" stroke-linecap="round" stroke-linejoin="round"/>
</svg>
