<svg width="20" height="20" viewBox="0 0 20 20" fill="none" xmlns="http://www.w3.org/2000/svg">
<path d="M17.6172 10H15.1172C14.7857 10 14.4677 10.1317 14.2333 10.3661C13.9989 10.6006 13.8672 10.9185 13.8672 11.25V14.375C13.8672 14.7065 13.9989 15.0245 14.2333 15.2589C14.4677 15.4933 14.7857 15.625 15.1172 15.625H16.3672C16.6987 15.625 17.0167 15.4933 17.2511 15.2589C17.4855 15.0245 17.6172 14.7065 17.6172 14.375V10ZM17.6172 10C17.6172 9.00982 17.4212 8.02942 17.0404 7.11538C16.6596 6.20134 16.1015 5.37176 15.3984 4.6745C14.6954 3.97723 13.8612 3.4261 12.944 3.05288C12.0268 2.67967 11.0448 2.49176 10.0547 2.50002C9.06518 2.4928 8.08403 2.68147 7.16776 3.05515C6.2515 3.42883 5.41824 3.98013 4.716 4.67729C4.01376 5.37445 3.45642 6.20368 3.07609 7.1172C2.69576 8.03073 2.49997 9.01048 2.5 10V14.375C2.5 14.7065 2.6317 15.0245 2.86612 15.2589C3.10054 15.4933 3.41848 15.625 3.75 15.625H5C5.33152 15.625 5.64946 15.4933 5.88388 15.2589C6.1183 15.0245 6.25 14.7065 6.25 14.375V11.25C6.25 10.9185 6.1183 10.6006 5.88388 10.3661C5.64946 10.1317 5.33152 10 5 10H2.5" stroke="white" stroke-linecap="round" stroke-linejoin="round"/>
<path d="M17.6172 14.375V16.25C17.6172 16.913 17.3538 17.5489 16.885 18.0178C16.4161 18.4866 15.7802 18.75 15.1172 18.75H10.625" stroke="white" stroke-linecap="round" stroke-linejoin="round"/>
</svg>
