<svg width="20" height="20" viewBox="0 0 20 20" fill="none" xmlns="http://www.w3.org/2000/svg">
<path d="M10 13.75C12.0711 13.75 13.75 12.0711 13.75 10C13.75 7.92893 12.0711 6.25 10 6.25C7.92893 6.25 6.25 7.92893 6.25 10C6.25 12.0711 7.92893 13.75 10 13.75Z" stroke="white" stroke-linecap="round" stroke-linejoin="round"/>
<path d="M14.3515 5.08594C14.5494 5.26823 14.7369 5.45573 14.914 5.64844L17.0468 5.95312C17.3943 6.55665 17.6622 7.20265 17.8437 7.875L16.5468 9.60156C16.5468 9.60156 16.5702 10.1328 16.5468 10.3984L17.8437 12.125C17.663 12.7976 17.3951 13.4437 17.0468 14.0469L14.914 14.3516C14.914 14.3516 14.5468 14.7344 14.3515 14.9141L14.0468 17.0469C13.4433 17.3944 12.7973 17.6622 12.1249 17.8437L10.3984 16.5469C10.1333 16.5703 9.86659 16.5703 9.60148 16.5469L7.87492 17.8437C7.20228 17.6631 6.55617 17.3952 5.95304 17.0469L5.64836 14.9141C5.45565 14.7318 5.26815 14.5443 5.08586 14.3516L2.95304 14.0469C2.60553 13.4434 2.33768 12.7974 2.15617 12.125L3.45304 10.3984C3.45304 10.3984 3.42961 9.86719 3.45304 9.60156L2.15617 7.875C2.33684 7.20236 2.60473 6.55625 2.95304 5.95312L5.08586 5.64844C5.26815 5.45573 5.45565 5.26823 5.64836 5.08594L5.95304 2.95312C6.55656 2.60561 7.20257 2.33776 7.87492 2.15625L9.60148 3.45313C9.86659 3.42968 10.1333 3.42968 10.3984 3.45313L12.1249 2.15625C12.7976 2.33692 13.4437 2.60481 14.0468 2.95312L14.3515 5.08594Z" stroke="white" stroke-linecap="round" stroke-linejoin="round"/>
</svg>
