<svg width="20" height="20" viewBox="0 0 20 20" fill="none" xmlns="http://www.w3.org/2000/svg">
<path d="M17.3573 10.3969L17.3635 10.3885C17.374 10.375 17.3844 10.3615 17.3937 10.3469L17.4 10.3375C17.4094 10.324 17.4177 10.3094 17.426 10.2948V10.2865C17.4344 10.2708 17.4417 10.2552 17.449 10.2396L17.4677 10.1875C17.4677 10.1875 17.4677 10.1875 17.4677 10.1802C17.4733 10.1631 17.4778 10.1458 17.4813 10.1281C17.4813 10.1229 17.4813 10.1177 17.4813 10.1135C17.4813 10.1094 17.4865 10.0833 17.4885 10.0677C17.4906 10.0521 17.4885 10.026 17.4885 10.0052C17.4885 9.98437 17.4885 9.96354 17.4885 9.94271C17.4885 9.92187 17.4885 9.91354 17.4813 9.89896C17.474 9.88438 17.4813 9.8875 17.4813 9.88229C17.4813 9.87708 17.4729 9.84792 17.4687 9.83125C17.4682 9.82851 17.4682 9.82566 17.4687 9.82292C17.4634 9.80592 17.4572 9.78923 17.45 9.77291C17.45 9.77291 17.45 9.76771 17.45 9.76563C17.45 9.76354 17.4354 9.73438 17.4281 9.71979C17.4277 9.71668 17.4277 9.71353 17.4281 9.71042L17.4031 9.66875L17.3958 9.65729L17.3656 9.61666L17.3594 9.60833C17.3463 9.59231 17.3324 9.57701 17.3177 9.5625L14.0375 6.28229C13.92 6.16659 13.7616 6.10198 13.5967 6.10255C13.4318 6.10313 13.2739 6.16883 13.1572 6.28535C13.0406 6.40187 12.9747 6.55976 12.9739 6.72464C12.9731 6.88952 13.0376 7.04802 13.1531 7.16562L15.3677 9.38021H8.125C7.95924 9.38021 7.80027 9.44605 7.68306 9.56327C7.56585 9.68048 7.5 9.83945 7.5 10.0052C7.5 10.171 7.56585 10.3299 7.68306 10.4471C7.80027 10.5644 7.95924 10.6302 8.125 10.6302H15.3656L13.151 12.8448C13.0923 12.9027 13.0455 12.9717 13.0135 13.0477C12.9815 13.1237 12.9649 13.2054 12.9646 13.2879C12.9644 13.3704 12.9804 13.4521 13.0119 13.5284C13.0433 13.6047 13.0896 13.6739 13.148 13.7323C13.2063 13.7906 13.2757 13.8367 13.352 13.8681C13.4283 13.8995 13.51 13.9154 13.5925 13.915C13.6751 13.9147 13.7567 13.8979 13.8327 13.8659C13.9087 13.8338 13.9776 13.787 14.0354 13.7281L17.3156 10.4479C17.3305 10.4317 17.3444 10.4147 17.3573 10.3969Z" fill="#666666"/>
<path d="M8.125 16.25H3.75V3.75H8.125C8.29076 3.75 8.44973 3.68415 8.56694 3.56694C8.68415 3.44973 8.75 3.29076 8.75 3.125C8.75 2.95924 8.68415 2.80027 8.56694 2.68306C8.44973 2.56585 8.29076 2.5 8.125 2.5H3.75C3.41848 2.5 3.10054 2.6317 2.86612 2.86612C2.6317 3.10054 2.5 3.41848 2.5 3.75V16.25C2.5 16.5815 2.6317 16.8995 2.86612 17.1339C3.10054 17.3683 3.41848 17.5 3.75 17.5H8.125C8.29076 17.5 8.44973 17.4342 8.56694 17.3169C8.68415 17.1997 8.75 17.0408 8.75 16.875C8.75 16.7092 8.68415 16.5503 8.56694 16.4331C8.44973 16.3158 8.29076 16.25 8.125 16.25Z" fill="#666666"/>
</svg>
