<svg width="20" height="20" viewBox="0 0 20 20" fill="none" xmlns="http://www.w3.org/2000/svg">
<path d="M10.625 4.77917V3.125C10.625 2.95924 10.5591 2.80027 10.4419 2.68306C10.3247 2.56585 10.1657 2.5 9.99998 2.5C9.83422 2.5 9.67525 2.56585 9.55804 2.68306C9.44083 2.80027 9.37498 2.95924 9.37498 3.125V4.77917C8.92391 4.91403 8.52839 5.19081 8.24718 5.56839C7.96597 5.94597 7.81409 6.40421 7.81409 6.875C7.81409 7.34579 7.96597 7.80402 8.24718 8.18161C8.52839 8.55919 8.92391 8.83597 9.37498 8.97083V16.875C9.37498 17.0408 9.44083 17.1997 9.55804 17.3169C9.67525 17.4342 9.83422 17.5 9.99998 17.5C10.1657 17.5 10.3247 17.4342 10.4419 17.3169C10.5591 17.1997 10.625 17.0408 10.625 16.875V8.97083C11.076 8.83597 11.4716 8.55919 11.7528 8.18161C12.034 7.80402 12.1859 7.34579 12.1859 6.875C12.1859 6.40421 12.034 5.94597 11.7528 5.56839C11.4716 5.19081 11.076 4.91403 10.625 4.77917ZM9.99998 7.8125C9.81456 7.8125 9.6333 7.75752 9.47913 7.6545C9.32496 7.55149 9.2048 7.40507 9.13384 7.23377C9.06288 7.06246 9.04432 6.87396 9.08049 6.6921C9.11666 6.51024 9.20595 6.3432 9.33707 6.21209C9.46818 6.08097 9.63522 5.99169 9.81708 5.95551C9.99894 5.91934 10.1874 5.93791 10.3587 6.00886C10.5301 6.07982 10.6765 6.19998 10.7795 6.35415C10.8825 6.50832 10.9375 6.68958 10.9375 6.875C10.9375 7.12364 10.8387 7.3621 10.6629 7.53791C10.4871 7.71373 10.2486 7.8125 9.99998 7.8125Z" fill="#666666"/>
<path d="M17.8125 13.125C17.8124 12.654 17.6603 12.1956 17.3787 11.818C17.0972 11.4404 16.7013 11.1637 16.25 11.0292V3.125C16.25 2.95924 16.1841 2.80027 16.0669 2.68306C15.9497 2.56585 15.7907 2.5 15.625 2.5C15.4592 2.5 15.3002 2.56585 15.183 2.68306C15.0658 2.80027 15 2.95924 15 3.125V11.0292C14.5489 11.164 14.1534 11.4408 13.8722 11.8184C13.591 12.196 13.4391 12.6542 13.4391 13.125C13.4391 13.5958 13.591 14.054 13.8722 14.4316C14.1534 14.8092 14.5489 15.086 15 15.2208V16.875C15 17.0408 15.0658 17.1997 15.183 17.3169C15.3002 17.4342 15.4592 17.5 15.625 17.5C15.7907 17.5 15.9497 17.4342 16.0669 17.3169C16.1841 17.1997 16.25 17.0408 16.25 16.875V15.2208C16.7013 15.0863 17.0972 14.8096 17.3787 14.432C17.6603 14.0544 17.8124 13.596 17.8125 13.125ZM15.625 14.0625C15.4396 14.0625 15.2583 14.0075 15.1041 13.9045C14.95 13.8015 14.8298 13.6551 14.7588 13.4838C14.6879 13.3125 14.6693 13.124 14.7055 12.9421C14.7417 12.7602 14.831 12.5932 14.9621 12.4621C15.0932 12.331 15.2602 12.2417 15.4421 12.2055C15.6239 12.1693 15.8124 12.1879 15.9837 12.2589C16.1551 12.3298 16.3015 12.45 16.4045 12.6042C16.5075 12.7583 16.5625 12.9396 16.5625 13.125C16.5625 13.3736 16.4637 13.6121 16.2879 13.7879C16.1121 13.9637 15.8736 14.0625 15.625 14.0625Z" fill="#666666"/>
<path d="M4.99998 8.52917V3.125C4.99998 2.95924 4.93413 2.80027 4.81692 2.68306C4.69971 2.56585 4.54074 2.5 4.37498 2.5C4.20922 2.5 4.05025 2.56585 3.93304 2.68306C3.81583 2.80027 3.74998 2.95924 3.74998 3.125V8.52917C3.29891 8.66403 2.90339 8.94081 2.62218 9.31839C2.34098 9.69597 2.18909 10.1542 2.18909 10.625C2.18909 11.0958 2.34098 11.554 2.62218 11.9316C2.90339 12.3092 3.29891 12.586 3.74998 12.7208V16.875C3.74998 17.0408 3.81583 17.1997 3.93304 17.3169C4.05025 17.4342 4.20922 17.5 4.37498 17.5C4.54074 17.5 4.69971 17.4342 4.81692 17.3169C4.93413 17.1997 4.99998 17.0408 4.99998 16.875V12.7208C5.45104 12.586 5.84656 12.3092 6.12777 11.9316C6.40898 11.554 6.56087 11.0958 6.56087 10.625C6.56087 10.1542 6.40898 9.69597 6.12777 9.31839C5.84656 8.94081 5.45104 8.66403 4.99998 8.52917ZM4.37498 11.5625C4.18956 11.5625 4.0083 11.5075 3.85413 11.4045C3.69996 11.3015 3.5798 11.1551 3.50884 10.9838C3.43788 10.8125 3.41932 10.624 3.45549 10.4421C3.49167 10.2602 3.58095 10.0932 3.71206 9.96208C3.84318 9.83097 4.01022 9.74169 4.19208 9.70551C4.37394 9.66934 4.56244 9.68791 4.73374 9.75886C4.90505 9.82982 5.05147 9.94998 5.15448 10.1042C5.25749 10.2583 5.31248 10.4396 5.31248 10.625C5.31248 10.8736 5.21371 11.1121 5.03789 11.2879C4.86207 11.4637 4.62362 11.5625 4.37498 11.5625Z" fill="#666666"/>
</svg>
