<svg width="20" height="20" viewBox="0 0 20 20" fill="none" xmlns="http://www.w3.org/2000/svg">
<path d="M10 1.875C8.83185 1.87619 7.67766 2.12927 6.61616 2.61698C5.55465 3.10469 4.61079 3.81557 3.84894 4.70114C3.08709 5.58671 2.52516 6.62615 2.20146 7.74859C1.87776 8.87104 1.7999 10.0501 1.9732 11.2053C2.14651 12.3606 2.56688 13.4649 3.20568 14.443C3.84447 15.421 4.68666 16.2498 5.67483 16.8729C6.66299 17.4959 7.77388 17.8986 8.93176 18.0534C10.0896 18.2081 11.2673 18.1114 12.3844 17.7698C12.4826 17.7402 12.5721 17.6869 12.6448 17.6146L17.6136 12.6448C17.6861 12.5724 17.7398 12.4834 17.7698 12.3854C18.0047 11.612 18.1244 10.8083 18.125 10C18.1226 7.84588 17.2657 5.78069 15.7425 4.2575C14.2193 2.7343 12.1542 1.87748 10 1.875ZM16.6167 11.875L11.874 16.6167C10.488 17.0096 9.01357 16.9571 7.65896 16.4668C6.30436 15.9765 5.13801 15.073 4.32463 13.8839C3.51125 12.6949 3.09194 11.2804 3.12591 9.84017C3.15988 8.39995 3.64542 7.00678 4.51395 5.85742C5.38249 4.70806 6.59014 3.86057 7.96636 3.43464C9.34258 3.00871 10.8178 3.02586 12.1838 3.48367C13.5497 3.94148 14.7373 4.81681 15.5789 5.98606C16.4205 7.1553 16.8735 8.55938 16.874 10C16.8736 10.6338 16.787 11.2645 16.6167 11.875Z" fill="#666666"/>
<path d="M7.18754 9.375C7.7053 9.375 8.12504 8.95527 8.12504 8.4375C8.12504 7.91973 7.7053 7.5 7.18754 7.5C6.66977 7.5 6.25004 7.91973 6.25004 8.4375C6.25004 8.95527 6.66977 9.375 7.18754 9.375Z" fill="#666666"/>
<path d="M12.8125 9.375C13.3303 9.375 13.75 8.95527 13.75 8.4375C13.75 7.91973 13.3303 7.5 12.8125 7.5C12.2948 7.5 11.875 7.91973 11.875 8.4375C11.875 8.95527 12.2948 9.375 12.8125 9.375Z" fill="#666666"/>
<path d="M13.5636 11.3344C13.4202 11.2512 13.2497 11.2284 13.0895 11.271C12.9293 11.3136 12.7926 11.4181 12.7094 11.5615C12.4337 12.0353 12.0385 12.4286 11.5632 12.7019C11.088 12.9753 10.5493 13.1191 10.0011 13.1191C9.45282 13.1191 8.91417 12.9753 8.43891 12.7019C7.96366 12.4286 7.56844 12.0353 7.29274 11.5615C7.25367 11.4868 7.19989 11.4207 7.13465 11.3674C7.0694 11.314 6.99403 11.2744 6.91308 11.2509C6.83212 11.2274 6.74725 11.2206 6.66358 11.2307C6.5799 11.2409 6.49914 11.2679 6.42616 11.3101C6.35318 11.3522 6.28949 11.4087 6.23892 11.4762C6.18835 11.5436 6.15194 11.6206 6.13189 11.7025C6.11183 11.7843 6.10855 11.8694 6.12223 11.9526C6.13591 12.0358 6.16627 12.1153 6.21149 12.1865C6.59694 12.8503 7.14994 13.4012 7.81517 13.7842C8.4804 14.1671 9.23453 14.3687 10.0021 14.3687C10.7697 14.3687 11.5238 14.1671 12.1891 13.7842C12.8543 13.4012 13.4073 12.8503 13.7927 12.1865C13.8751 12.043 13.8972 11.8728 13.8542 11.7131C13.8112 11.5534 13.7067 11.4172 13.5636 11.3344Z" fill="#666666"/>
</svg>
