<svg width="20" height="20" viewBox="0 0 20 20" fill="none" xmlns="http://www.w3.org/2000/svg">
<path d="M9.99998 1.875C8.83179 1.87619 7.6776 2.12927 6.61609 2.61698C5.55459 3.10469 4.61073 3.81557 3.84888 4.70114C3.08703 5.58671 2.5251 6.62615 2.2014 7.74859C1.8777 8.87104 1.79984 10.0501 1.97314 11.2053C2.14644 12.3606 2.56682 13.4649 3.20562 14.443C3.84441 15.421 4.6866 16.2498 5.67476 16.8729C6.66292 17.4959 7.77382 17.8986 8.9317 18.0534C10.0896 18.2081 11.2672 18.1114 12.3844 17.7698C12.4826 17.7402 12.572 17.6869 12.6448 17.6146L17.6135 12.6448C17.6861 12.5724 17.7397 12.4834 17.7698 12.3854C18.0047 11.612 18.1244 10.8083 18.125 10C18.1225 7.84588 17.2657 5.78069 15.7425 4.2575C14.2193 2.7343 12.1541 1.87748 9.99998 1.875ZM16.6166 11.875L11.8739 16.6167C10.4879 17.0096 9.01351 16.9571 7.6589 16.4668C6.3043 15.9765 5.13795 15.073 4.32457 13.8839C3.51119 12.6949 3.09188 11.2804 3.12585 9.84017C3.15982 8.39995 3.64535 7.00678 4.51389 5.85742C5.38243 4.70806 6.59008 3.86057 7.9663 3.43464C9.34252 3.00871 10.8178 3.02586 12.1837 3.48367C13.5497 3.94148 14.7373 4.81681 15.5789 5.98606C16.4204 7.1553 16.8735 8.55938 16.8739 10C16.8735 10.6338 16.7869 11.2645 16.6166 11.875Z" fill="#666666"/>
<path d="M7.18748 9.375C7.70524 9.375 8.12498 8.95527 8.12498 8.4375C8.12498 7.91973 7.70524 7.5 7.18748 7.5C6.66971 7.5 6.24998 7.91973 6.24998 8.4375C6.24998 8.95527 6.66971 9.375 7.18748 9.375Z" fill="#666666"/>
<path d="M12.8125 9.375C13.3302 9.375 13.75 8.95527 13.75 8.4375C13.75 7.91973 13.3302 7.5 12.8125 7.5C12.2947 7.5 11.875 7.91973 11.875 8.4375C11.875 8.95527 12.2947 9.375 12.8125 9.375Z" fill="#666666"/>
<path d="M13.5635 11.3344C13.4201 11.2512 13.2496 11.2284 13.0894 11.271C12.9292 11.3136 12.7925 11.4181 12.7093 11.5615C12.4336 12.0353 12.0384 12.4286 11.5632 12.7019C11.0879 12.9753 10.5493 13.1191 10.001 13.1191C9.45276 13.1191 8.91411 12.9753 8.43885 12.7019C7.9636 12.4286 7.56838 12.0353 7.29268 11.5615C7.25361 11.4868 7.19983 11.4207 7.13459 11.3674C7.06934 11.314 6.99397 11.2744 6.91302 11.2509C6.83206 11.2274 6.74719 11.2206 6.66352 11.2307C6.57984 11.2409 6.49908 11.2679 6.4261 11.3101C6.35312 11.3522 6.28943 11.4087 6.23886 11.4762C6.18829 11.5436 6.15188 11.6206 6.13183 11.7025C6.11177 11.7843 6.10848 11.8694 6.12216 11.9526C6.13585 12.0358 6.16621 12.1153 6.21143 12.1865C6.59688 12.8503 7.14988 13.4012 7.81511 13.7842C8.48033 14.1671 9.23446 14.3687 10.0021 14.3687C10.7696 14.3687 11.5238 14.1671 12.189 13.7842C12.8542 13.4012 13.4072 12.8503 13.7927 12.1865C13.875 12.043 13.8971 11.8728 13.8541 11.7131C13.8112 11.5534 13.7067 11.4172 13.5635 11.3344Z" fill="#666666"/>
</svg>
