<svg width="20" height="20" viewBox="0 0 20 20" fill="none" xmlns="http://www.w3.org/2000/svg">
<path d="M8.75 9.375H3.75C3.58424 9.375 3.42527 9.30915 3.30806 9.19194C3.19085 9.07473 3.125 8.91576 3.125 8.75V3.75C3.125 3.58424 3.19085 3.42527 3.30806 3.30806C3.42527 3.19085 3.58424 3.125 3.75 3.125H8.75C8.91576 3.125 9.07473 3.19085 9.19194 3.30806C9.30915 3.42527 9.375 3.58424 9.375 3.75V8.75C9.375 8.91576 9.30915 9.07473 9.19194 9.19194C9.07473 9.30915 8.91576 9.375 8.75 9.375ZM4.375 8.125H8.125V4.375H4.375V8.125Z" fill="#666666"/>
<path d="M16.25 9.375H11.25C11.0842 9.375 10.9253 9.30915 10.8081 9.19194C10.6908 9.07473 10.625 8.91576 10.625 8.75V3.75C10.625 3.58424 10.6908 3.42527 10.8081 3.30806C10.9253 3.19085 11.0842 3.125 11.25 3.125H16.25C16.4158 3.125 16.5747 3.19085 16.6919 3.30806C16.8092 3.42527 16.875 3.58424 16.875 3.75V8.75C16.875 8.91576 16.8092 9.07473 16.6919 9.19194C16.5747 9.30915 16.4158 9.375 16.25 9.375ZM11.875 8.125H15.625V4.375H11.875V8.125Z" fill="#666666"/>
<path d="M8.75 16.875H3.75C3.58424 16.875 3.42527 16.8092 3.30806 16.6919C3.19085 16.5747 3.125 16.4158 3.125 16.25V11.25C3.125 11.0842 3.19085 10.9253 3.30806 10.8081C3.42527 10.6909 3.58424 10.625 3.75 10.625H8.75C8.91576 10.625 9.07473 10.6909 9.19194 10.8081C9.30915 10.9253 9.375 11.0842 9.375 11.25V16.25C9.375 16.4158 9.30915 16.5747 9.19194 16.6919C9.07473 16.8092 8.91576 16.875 8.75 16.875ZM4.375 15.625H8.125V11.875H4.375V15.625Z" fill="#666666"/>
<path d="M16.25 16.875H11.25C11.0842 16.875 10.9253 16.8092 10.8081 16.6919C10.6908 16.5747 10.625 16.4158 10.625 16.25V11.25C10.625 11.0842 10.6908 10.9253 10.8081 10.8081C10.9253 10.6909 11.0842 10.625 11.25 10.625H16.25C16.4158 10.625 16.5747 10.6909 16.6919 10.8081C16.8092 10.9253 16.875 11.0842 16.875 11.25V16.25C16.875 16.4158 16.8092 16.5747 16.6919 16.6919C16.5747 16.8092 16.4158 16.875 16.25 16.875ZM11.875 15.625H15.625V11.875H11.875V15.625Z" fill="#666666"/>
</svg>
