<svg width="20" height="20" viewBox="0 0 20 20" fill="none" xmlns="http://www.w3.org/2000/svg">
<path d="M18.6875 7.60938C18.6093 7.36327 18.4585 7.14654 18.255 6.98761C18.0515 6.82868 17.8046 6.73496 17.5469 6.71875L12.9063 6.39844L11.1875 2.0625C11.0937 1.82375 10.9303 1.61867 10.7186 1.47382C10.5069 1.32896 10.2566 1.25099 10 1.25C9.7435 1.25099 9.49317 1.32896 9.28145 1.47382C9.06974 1.61867 8.90638 1.82375 8.81253 2.0625L7.06253 6.42187L2.45315 6.71875C2.19574 6.73601 1.94942 6.83012 1.74607 6.9889C1.54272 7.14768 1.39169 7.36383 1.31253 7.60938C1.23123 7.85869 1.22648 8.12664 1.29889 8.37868C1.3713 8.63072 1.51755 8.85529 1.71878 9.02344L5.26565 12.0234L4.21097 16.1719C4.13799 16.4525 4.15113 16.7486 4.24865 17.0217C4.34618 17.2948 4.5236 17.5322 4.75784 17.7031C4.98521 17.8663 5.2561 17.9579 5.53584 17.9663C5.81558 17.9746 6.09146 17.8993 6.32815 17.75L9.99222 15.4297H10.0078L13.9532 17.9219C14.1555 18.0534 14.3915 18.1239 14.6328 18.125C14.8299 18.1235 15.024 18.0767 15.2002 17.9884C15.3764 17.9002 15.53 17.7727 15.6492 17.6157C15.7684 17.4588 15.85 17.2766 15.8878 17.0832C15.9256 16.8898 15.9186 16.6903 15.8672 16.5L14.75 11.9609L18.2813 9.02344C18.4825 8.85529 18.6288 8.63072 18.7012 8.37868C18.7736 8.12664 18.7688 7.85869 18.6875 7.60938Z" fill="#666666"/>
</svg>
