<svg
  width="20"
  height="20"
  viewBox="0 0 20 20"
  fill="none"
  xmlns="http://www.w3.org/2000/svg"
>
    <path d="M17.9409 8.09776C17.8694 7.8728 17.7315 7.6747 17.5455 7.52943C17.3594 7.38416 17.1338 7.29849 16.8983 7.28367L12.6565 6.99089L11.0854 3.02759C10.9997 2.80936 10.8503 2.6219 10.6568 2.48949C10.4633 2.35708 10.2345 2.28581 9.99999 2.28491C9.76551 2.28581 9.5367 2.35708 9.34318 2.48949C9.14965 2.6219 9.00033 2.80936 8.91455 3.02759L7.31494 7.01232L3.10171 7.28367C2.86641 7.29945 2.64126 7.38547 2.45539 7.53061C2.26952 7.67574 2.13147 7.87331 2.05911 8.09776C1.9848 8.32565 1.98046 8.57057 2.04664 8.80095C2.11283 9.03133 2.24651 9.2366 2.43044 9.3903L5.6725 12.1324L4.70845 15.9244C4.64175 16.1809 4.65375 16.4515 4.7429 16.7012C4.83205 16.9508 4.99421 17.1678 5.20833 17.324C5.41615 17.4732 5.66376 17.5569 5.91947 17.5646C6.17517 17.5722 6.42733 17.5034 6.64369 17.3669L9.99285 15.246H10.0071L13.6133 17.524C13.7983 17.6442 14.0141 17.7087 14.2346 17.7097C14.4148 17.7083 14.5922 17.6655 14.7533 17.5848C14.9143 17.5042 15.0547 17.3876 15.1637 17.2441C15.2726 17.1007 15.3472 16.9342 15.3818 16.7574C15.4163 16.5806 15.4099 16.3983 15.3629 16.2243L14.3418 12.0753L17.5696 9.3903C17.7535 9.2366 17.8872 9.03133 17.9534 8.80095C18.0196 8.57057 18.0152 8.32565 17.9409 8.09776Z" fill="black" />
</svg>
