<svg width="20" height="20" viewBox="0 0 20 20" fill="none" xmlns="http://www.w3.org/2000/svg">
<path d="M18.124 7.48438C18.124 7.475 18.124 7.46563 18.124 7.45625C18.124 7.44688 18.124 7.42813 18.124 7.41354C18.124 7.39896 18.124 7.39792 18.124 7.38958C18.124 7.38125 18.1177 7.35729 18.1136 7.34167V7.32917L16.9823 3.40104C16.9067 3.14103 16.7487 2.9126 16.5321 2.7501C16.3155 2.58761 16.052 2.49984 15.7813 2.5H4.21876C3.94785 2.50084 3.68455 2.58968 3.4685 2.75312C3.25245 2.91657 3.09534 3.14579 3.02084 3.40625L1.90418 7.32917V7.34167C1.90418 7.35729 1.89689 7.37396 1.89376 7.38958C1.89335 7.39756 1.89335 7.40556 1.89376 7.41354C1.89376 7.42813 1.89376 7.44271 1.89376 7.45625C1.89324 7.46562 1.89324 7.47501 1.89376 7.48438C1.89376 7.48958 1.89376 7.49479 1.89376 7.5V8.75C1.89376 9.23514 2.00672 9.71362 2.22368 10.1475C2.44064 10.5815 2.75565 10.9589 3.14376 11.25V16.25C3.14376 16.5815 3.27546 16.8995 3.50988 17.1339C3.7443 17.3683 4.06224 17.5 4.39376 17.5H15.6438C15.9753 17.5 16.2932 17.3683 16.5276 17.1339C16.7621 16.8995 16.8938 16.5815 16.8938 16.25V11.25C17.2819 10.9589 17.5969 10.5815 17.8138 10.1475C18.0308 9.71362 18.1438 9.23514 18.1438 8.75V7.5C18.125 7.49479 18.124 7.48958 18.124 7.48438ZM4.21668 3.75521C4.21693 3.75374 4.21769 3.7524 4.21884 3.75145C4.21999 3.75049 4.22144 3.74998 4.22293 3.75H15.7854L16.6761 6.875H3.32814L4.21668 3.75521ZM8.12501 8.125H11.875V8.75C11.875 9.24728 11.6775 9.7242 11.3258 10.0758C10.9742 10.4275 10.4973 10.625 10 10.625C9.50273 10.625 9.02582 10.4275 8.67419 10.0758C8.32256 9.7242 8.12501 9.24728 8.12501 8.75V8.125ZM6.87501 8.125V8.75C6.87484 9.07299 6.79123 9.39047 6.63229 9.67165C6.47334 9.95283 6.24446 10.1882 5.96782 10.3549C5.69118 10.5216 5.37616 10.614 5.0533 10.6232C4.73044 10.6324 4.41068 10.558 4.12501 10.4073C4.0869 10.3785 4.04567 10.354 4.0021 10.3344C3.734 10.1658 3.51296 9.93215 3.35959 9.6551C3.20622 9.37805 3.12552 9.06667 3.12501 8.75V8.125H6.87501ZM15.625 16.25H4.37501V11.8177C4.58076 11.8592 4.79012 11.8802 5.00001 11.8802C5.48515 11.8802 5.96363 11.7673 6.39755 11.5503C6.83148 11.3333 7.20893 11.0183 7.50001 10.6302C7.7911 11.0183 8.16855 11.3333 8.60247 11.5503C9.03639 11.7673 9.51487 11.8802 10 11.8802C10.4852 11.8802 10.9636 11.7673 11.3976 11.5503C11.8315 11.3333 12.2089 11.0183 12.5 10.6302C12.7911 11.0183 13.1685 11.3333 13.6025 11.5503C14.0364 11.7673 14.5149 11.8802 15 11.8802C15.2099 11.8801 15.4193 11.8592 15.625 11.8177V16.25ZM15.9979 10.3344C15.9542 10.3538 15.913 10.3782 15.875 10.4073C15.5893 10.558 15.2696 10.6324 14.9467 10.6232C14.6239 10.614 14.3088 10.5216 14.0322 10.3549C13.7556 10.1882 13.5267 9.95283 13.3677 9.67165C13.2088 9.39047 13.1252 9.07299 13.125 8.75V8.125H16.875V8.75C16.8745 9.06667 16.7938 9.37805 16.6404 9.6551C16.4871 9.93215 16.266 10.1658 15.9979 10.3344Z" fill="#666666"/>
</svg>
