<svg width="20" height="20" viewBox="0 0 20 20" fill="none" xmlns="http://www.w3.org/2000/svg">
<g id="table-style">
<path id="Vector" d="M17.88 3.37C17.64 3.13 17.33 3 17 3H3.24C2.91 3 2.6 3.13 2.36 3.37C2.12 3.61 2 3.92 2 4.25V14.25C2 14.58 2.13 14.9 2.36 15.13C2.59 15.36 2.91 15.5 3.24 15.5H11.82L12 14.94L11.04 14.25H8.24V11.75H10.71C11.01 11.45 11.41 11.27 11.86 11.27H13.19L13.44 10.5H13.24V8H17V10.5H16.8L17.05 11.27H18.24V4.25C18.24 3.92 18.11 3.6 17.88 3.37ZM7 14.25H3.24V11.75H7V14.25ZM7 10.5H3.24V8H7V10.5ZM7 6.75H3.24V4.25H7V6.75ZM12 10.5H8.24V8H12V10.5ZM12 6.75H8.24V4.25H12V6.75ZM17 6.75H13.24V4.25H17V6.75ZM18.23 12.91C18.25 12.97 18.21 13 18.19 13.02L16.23 14.44L16.98 16.74C16.98 16.74 17 16.81 16.94 16.85C16.89 16.89 16.85 16.86 16.83 16.85L14.87 15.43L12.92 16.85C12.92 16.85 12.86 16.89 12.8 16.85C12.74 16.81 12.75 16.76 12.76 16.74L13.51 14.44L11.55 13.02C11.55 13.02 11.5 12.97 11.52 12.9C11.54 12.84 11.59 12.84 11.61 12.84H14.03L14.78 10.54C14.78 10.54 14.95 10.49 14.97 10.54L15.71 12.84H18.13C18.13 12.84 18.2 12.84 18.23 12.91Z" fill="#697586"/>
</g>
</svg>
