<svg width="21" height="20" viewBox="0 0 21 20" fill="none" xmlns="http://www.w3.org/2000/svg">
<g clip-path="url(#clip0_4264_47)">
<path d="M18.4289 4.17537C18.3133 4.06263 18.1592 4 17.9923 4H3.22501C3.05808 4 2.90399 4.06263 2.78842 4.17537C2.67285 4.2881 2.60864 4.43841 2.60864 4.60125V14.81C2.60864 15.1232 2.73705 15.4363 2.96819 15.6618C3.19933 15.8873 3.50752 16.0125 3.84139 16.0125H17.3759C17.6969 16.0125 18.018 15.8873 18.2491 15.6618C18.4802 15.4363 18.6086 15.1357 18.6086 14.81V4.60125C18.6086 4.43841 18.5444 4.2881 18.4289 4.17537ZM6.91041 14.81H3.84139V12.405H6.92325V14.81H6.91041ZM6.91041 11.2025H3.84139V8.79749H6.92325V11.2025H6.91041ZM17.3759 14.81H8.14315V12.405H17.3759V14.81ZM17.3759 11.2025H8.14315V8.79749H17.3759V11.2025Z" fill="#697586"/>
</g>
<defs>
<clipPath id="clip0_4264_47">
<rect width="16" height="12" fill="white" transform="translate(2.60864 4)"/>
</clipPath>
</defs>
</svg>
