<svg width="15" height="12" viewBox="0 0 15 12" fill="none" xmlns="http://www.w3.org/2000/svg">
<path d="M14.6629 0.350731C14.4462 0.125261 14.1453 0 13.8443 0H1.1557C0.842697 0 0.553772 0.125261 0.337079 0.350731C0.120385 0.5762 0 0.876827 0 1.20251V11.3987C0 11.5616 0.0601926 11.7119 0.168539 11.8246C0.276886 11.9374 0.421348 12 0.577849 12H14.4221C14.5666 12 14.7231 11.9374 14.8315 11.8246C14.9398 11.7119 15 11.5616 15 11.3987V1.20251C15 0.876827 14.8796 0.5762 14.6629 0.350731ZM9.79936 7.20251H1.1557V4.79749H9.79936V7.20251ZM13.8443 7.20251H10.9551V4.79749H13.8443V7.20251ZM13.8443 3.59499H1.1557V1.20251H13.8443V3.59499Z" fill="#697586"/>
</svg>
