<svg xmlns="http://www.w3.org/2000/svg" width="21" height="20" viewBox="0 0 21 20" fill="none">
  <path d="M17.6629 4.35073C17.4462 4.12526 17.1453 4 16.8443 4H4.1557C3.8427 4 3.55377 4.12526 3.33708 4.35073C3.12039 4.5762 3 4.87683 3 5.20251V15.3987C3 15.5616 3.06019 15.7119 3.16854 15.8246C3.27689 15.9374 3.42135 16 3.57785 16H17.4221C17.5666 16 17.7231 15.9374 17.8315 15.8246C17.9398 15.7119 18 15.5616 18 15.3987V5.20251C18 4.87683 17.8796 4.5762 17.6629 4.35073ZM12.7994 11.2025H4.1557V8.79749H12.7994V11.2025ZM16.8443 11.2025H13.9551V8.79749H16.8443V11.2025ZM16.8443 7.59499H4.1557V5.20251H16.8443V7.59499Z" fill="#697586"/>
</svg>