<svg width="16" height="12" viewBox="0 0 16 12" fill="none" xmlns="http://www.w3.org/2000/svg">
<g clip-path="url(#clip0_4264_43)">
<path d="M15.8202 0.175365C15.7047 0.0626305 15.5506 0 15.3836 0H0.616372C0.449438 0 0.295345 0.0626305 0.179775 0.175365C0.0642055 0.2881 0 0.438413 0 0.601253V10.81C0 11.1232 0.128411 11.4363 0.359551 11.6618C0.59069 11.8873 0.898876 12.0125 1.23274 12.0125H14.7673C15.0883 12.0125 15.4093 11.8873 15.6404 11.6618C15.8716 11.4363 16 11.1357 16 10.81V0.601253C16 0.438413 15.9358 0.2881 15.8202 0.175365ZM4.30177 10.81H1.23274V8.40501H4.31461V10.81H4.30177ZM4.30177 7.20251H1.23274V4.79749H4.31461V7.20251H4.30177ZM14.7673 10.81H5.53451V8.40501H14.7673V10.81ZM14.7673 7.20251H5.53451V4.79749H14.7673V7.20251Z" fill="#697586"/>
</g>
<defs>
<clipPath id="clip0_4264_43">
<rect width="16" height="12" fill="white"/>
</clipPath>
</defs>
</svg>
