<svg width="20" height="20" viewBox="0 0 20 20" fill="none" xmlns="http://www.w3.org/2000/svg">
<path d="M18.7563 9.9198L10.5906 1.75418C10.4458 1.60878 10.2674 1.50126 10.0712 1.44113C9.87503 1.381 9.66704 1.3701 9.46563 1.40938L3.16146 2.66668C3.04017 2.69065 2.92872 2.75007 2.8412 2.8374C2.75368 2.92473 2.69403 3.03606 2.66979 3.1573L1.4125 9.46459C1.37295 9.66584 1.38352 9.87372 1.44329 10.0699C1.50306 10.2661 1.61018 10.4446 1.75521 10.5896L9.90625 18.7406C10.1385 18.9751 10.454 19.1082 10.784 19.1109C11.114 19.1137 11.4316 18.9858 11.6677 18.7552L18.7438 11.6802C18.861 11.5659 18.9544 11.4294 19.0186 11.2788C19.0828 11.1281 19.1166 10.9663 19.1179 10.8025C19.1193 10.6388 19.0882 10.4764 19.0265 10.3247C18.9648 10.173 18.8736 10.035 18.7583 9.91876L18.7563 9.9198ZM10.7927 17.8594L2.63646 9.70522L3.8125 3.80939L9.70417 2.63647L17.8604 10.7927L10.7927 17.8594Z" fill="#666666"/>
<path d="M6.5625 7.50001C7.08027 7.50001 7.5 7.08028 7.5 6.56251C7.5 6.04474 7.08027 5.62501 6.5625 5.62501C6.04474 5.62501 5.625 6.04474 5.625 6.56251C5.625 7.08028 6.04474 7.50001 6.5625 7.50001Z" fill="#666666"/>
</svg>
