<svg width="20" height="20" viewBox="0 0 20 20" fill="none" xmlns="http://www.w3.org/2000/svg">
<path d="M16.875 9.375H3.125C2.95924 9.375 2.80027 9.44085 2.68306 9.55806C2.56585 9.67527 2.5 9.83424 2.5 10C2.5 10.1658 2.56585 10.3247 2.68306 10.4419C2.80027 10.5592 2.95924 10.625 3.125 10.625H10.7219C12.5969 11.1792 13.75 11.799 13.75 13.125C13.75 14.4792 12.0323 15.625 10 15.625C7.96771 15.625 6.25 14.4792 6.25 13.125C6.25 12.9592 6.18415 12.8003 6.06694 12.6831C5.94973 12.5658 5.79076 12.5 5.625 12.5C5.45924 12.5 5.30027 12.5658 5.18306 12.6831C5.06585 12.8003 5 12.9592 5 13.125C5 15.1927 7.24271 16.875 10 16.875C12.7573 16.875 15 15.1927 15 13.125C15 11.9687 14.4646 11.1802 13.75 10.625H16.875C17.0408 10.625 17.1997 10.5592 17.3169 10.4419C17.4342 10.3247 17.5 10.1658 17.5 10C17.5 9.83424 17.4342 9.67527 17.3169 9.55806C17.1997 9.44085 17.0408 9.375 16.875 9.375Z" fill="#666666"/>
<path d="M5.96042 8.125C6.02507 8.125 6.08935 8.11517 6.15104 8.09583C6.22933 8.07087 6.30193 8.03071 6.36468 7.97765C6.42743 7.9246 6.47911 7.85968 6.51674 7.78664C6.55438 7.71359 6.57724 7.63383 6.58402 7.55194C6.5908 7.47005 6.58136 7.38762 6.55625 7.30937C6.51123 7.16906 6.48942 7.02234 6.49167 6.875C6.49167 5.45 8 4.375 10 4.375C11.526 4.375 12.8229 5.01875 13.3042 6.01458C13.3763 6.1639 13.5047 6.27847 13.6613 6.33307C13.8179 6.38767 13.9897 6.37784 14.1391 6.30573C14.2884 6.23362 14.4029 6.10515 14.4575 5.94858C14.5121 5.79201 14.5023 5.62015 14.4302 5.47083C13.7312 4.02396 12.0344 3.125 10 3.125C7.29167 3.125 5.24167 4.7375 5.24167 6.86771C5.23843 7.1469 5.28028 7.42478 5.36563 7.69062C5.406 7.81668 5.48535 7.92667 5.59224 8.00473C5.69914 8.0828 5.82805 8.12491 5.96042 8.125Z" fill="#666666"/>
</svg>
