<svg width="20" height="20" viewBox="0 0 20 20" fill="none" xmlns="http://www.w3.org/2000/svg">
<path d="M16.8751 9.375H8.75006C8.5843 9.375 8.42533 9.44085 8.30812 9.55806C8.19091 9.67527 8.12506 9.83424 8.12506 10C8.12506 10.1658 8.19091 10.3247 8.30812 10.4419C8.42533 10.5592 8.5843 10.625 8.75006 10.625H16.8751C17.0408 10.625 17.1998 10.5592 17.317 10.4419C17.4342 10.3247 17.5001 10.1658 17.5001 10C17.5001 9.83424 17.4342 9.67527 17.317 9.55806C17.1998 9.44085 17.0408 9.375 16.8751 9.375Z" fill="#666666"/>
<path d="M8.75006 5.625H16.8751C17.0408 5.625 17.1998 5.55915 17.317 5.44194C17.4342 5.32473 17.5001 5.16576 17.5001 5C17.5001 4.83424 17.4342 4.67527 17.317 4.55806C17.1998 4.44085 17.0408 4.375 16.8751 4.375H8.75006C8.5843 4.375 8.42533 4.44085 8.30812 4.55806C8.19091 4.67527 8.12506 4.83424 8.12506 5C8.12506 5.16576 8.19091 5.32473 8.30812 5.44194C8.42533 5.55915 8.5843 5.625 8.75006 5.625Z" fill="#666666"/>
<path d="M16.8751 14.375H3.12506C2.9593 14.375 2.80033 14.4408 2.68312 14.5581C2.56591 14.6753 2.50006 14.8342 2.50006 15C2.50006 15.1658 2.56591 15.3247 2.68312 15.4419C2.80033 15.5591 2.9593 15.625 3.12506 15.625H16.8751C17.0408 15.625 17.1998 15.5591 17.317 15.4419C17.4342 15.3247 17.5001 15.1658 17.5001 15C17.5001 14.8342 17.4342 14.6753 17.317 14.5581C17.1998 14.4408 17.0408 14.375 16.8751 14.375Z" fill="#666666"/>
<path d="M5.62506 11.25C5.74859 11.2499 5.86932 11.2132 5.972 11.1445C6.07468 11.0758 6.15471 10.9782 6.20197 10.8641C6.24923 10.75 6.2616 10.6244 6.23753 10.5032C6.21346 10.382 6.15402 10.2707 6.06673 10.1833L3.38339 7.5L6.06673 4.81666C6.12813 4.75944 6.17738 4.69044 6.21154 4.61378C6.2457 4.53711 6.26407 4.45435 6.26555 4.37043C6.26703 4.28651 6.2516 4.20315 6.22016 4.12533C6.18873 4.04751 6.14194 3.97681 6.08259 3.91747C6.02324 3.85812 5.95255 3.81133 5.87473 3.77989C5.7969 3.74846 5.71354 3.73302 5.62963 3.7345C5.54571 3.73598 5.46295 3.75435 5.38628 3.78851C5.30961 3.82267 5.24061 3.87192 5.18339 3.93333L2.05839 7.05833C1.94135 7.17552 1.87561 7.33437 1.87561 7.5C1.87561 7.66562 1.94135 7.82447 2.05839 7.94166L5.18339 11.0667C5.24113 11.125 5.30993 11.1713 5.38577 11.2028C5.4616 11.2343 5.54295 11.2503 5.62506 11.25Z" fill="#666666"/>
</svg>
