<svg width="20" height="20" viewBox="0 0 20 20" fill="none" xmlns="http://www.w3.org/2000/svg">
<path d="M11.875 16.25H5C4.83424 16.25 4.67527 16.1841 4.55806 16.0669C4.44085 15.9497 4.375 15.7908 4.375 15.625V3.75C4.375 3.58424 4.44085 3.42527 4.55806 3.30806C4.67527 3.19085 4.83424 3.125 5 3.125H10.9375C11.6228 3.12542 12.2924 3.33069 12.8602 3.71445C13.428 4.09821 13.8682 4.64293 14.1241 5.27868C14.3801 5.91443 14.4402 6.61217 14.2967 7.28231C14.1532 7.95246 13.8126 8.56441 13.3188 9.03958C14.1184 9.37349 14.7777 9.97403 15.1846 10.7391C15.5915 11.5042 15.7209 12.3866 15.5508 13.2363C15.3806 14.0859 14.9215 14.8505 14.2514 15.3999C13.5813 15.9493 12.7416 16.2497 11.875 16.25ZM5.625 15H11.875C12.538 15 13.1739 14.7366 13.6428 14.2678C14.1116 13.7989 14.375 13.163 14.375 12.5C14.375 11.837 14.1116 11.2011 13.6428 10.7322C13.1739 10.2634 12.538 10 11.875 10H5.625V15ZM5.625 8.75H10.9375C11.5177 8.75 12.0741 8.51953 12.4843 8.1093C12.8945 7.69906 13.125 7.14266 13.125 6.5625C13.125 5.98234 12.8945 5.42594 12.4843 5.0157C12.0741 4.60547 11.5177 4.375 10.9375 4.375H5.625V8.75Z" fill="#666666"/>
</svg>
