<svg width="20" height="20" viewBox="0 0 20 20" fill="none" xmlns="http://www.w3.org/2000/svg">
<g id="text-alt">
<path id="Vector" d="M16.25 4.375V6.875C16.25 7.04076 16.1842 7.19973 16.0669 7.31694C15.9497 7.43415 15.7908 7.5 15.625 7.5C15.4592 7.5 15.3003 7.43415 15.1831 7.31694C15.0658 7.19973 15 7.04076 15 6.875V5H10.625V15H12.5C12.6658 15 12.8247 15.0658 12.9419 15.1831C13.0592 15.3003 13.125 15.4592 13.125 15.625C13.125 15.7908 13.0592 15.9497 12.9419 16.0669C12.8247 16.1842 12.6658 16.25 12.5 16.25H7.5C7.33424 16.25 7.17527 16.1842 7.05806 16.0669C6.94085 15.9497 6.875 15.7908 6.875 15.625C6.875 15.4592 6.94085 15.3003 7.05806 15.1831C7.17527 15.0658 7.33424 15 7.5 15H9.375V5H5V6.875C5 7.04076 4.93415 7.19973 4.81694 7.31694C4.69973 7.43415 4.54076 7.5 4.375 7.5C4.20924 7.5 4.05027 7.43415 3.93306 7.31694C3.81585 7.19973 3.75 7.04076 3.75 6.875V4.375C3.75 4.20924 3.81585 4.05027 3.93306 3.93306C4.05027 3.81585 4.20924 3.75 4.375 3.75H15.625C15.7908 3.75 15.9497 3.81585 16.0669 3.93306C16.1842 4.05027 16.25 4.20924 16.25 4.375Z" fill="#697586"/>
</g>
</svg>
