<svg width="20" height="20" viewBox="0 0 20 20" fill="none" xmlns="http://www.w3.org/2000/svg">
<path d="M16.875 16.25H3.125C2.95924 16.25 2.80027 16.3158 2.68306 16.4331C2.56585 16.5503 2.5 16.7092 2.5 16.875C2.5 17.0408 2.56585 17.1997 2.68306 17.3169C2.80027 17.4341 2.95924 17.5 3.125 17.5H16.875C17.0408 17.5 17.1997 17.4341 17.3169 17.3169C17.4342 17.1997 17.5 17.0408 17.5 16.875C17.5 16.7092 17.4342 16.5503 17.3169 16.4331C17.1997 16.3158 17.0408 16.25 16.875 16.25Z" fill="#666666"/>
<path d="M10 15C11.4913 14.9983 12.9211 14.4052 13.9756 13.3506C15.0302 12.2961 15.6233 10.8663 15.625 9.375V4.375C15.625 4.20924 15.5592 4.05027 15.4419 3.93306C15.3247 3.81585 15.1658 3.75 15 3.75C14.8342 3.75 14.6753 3.81585 14.5581 3.93306C14.4408 4.05027 14.375 4.20924 14.375 4.375V9.375C14.375 9.94953 14.2618 10.5184 14.042 11.0492C13.8221 11.58 13.4998 12.0623 13.0936 12.4686C12.6873 12.8748 12.205 13.1971 11.6742 13.417C11.1434 13.6368 10.5745 13.75 10 13.75C9.42547 13.75 8.85656 13.6368 8.32576 13.417C7.79496 13.1971 7.31266 12.8748 6.90641 12.4686C6.50015 12.0623 6.17789 11.58 5.95803 11.0492C5.73816 10.5184 5.625 9.94953 5.625 9.375V4.375C5.625 4.20924 5.55915 4.05027 5.44194 3.93306C5.32473 3.81585 5.16576 3.75 5 3.75C4.83424 3.75 4.67527 3.81585 4.55806 3.93306C4.44085 4.05027 4.375 4.20924 4.375 4.375V9.375C4.37665 10.8663 4.96982 12.2961 6.02435 13.3506C7.07888 14.4052 8.50866 14.9983 10 15Z" fill="#666666"/>
</svg>
