<svg width="20" height="20" viewBox="0 0 20 20" fill="none" xmlns="http://www.w3.org/2000/svg">
<path d="M11 12H4.23842L3.91167 13.9692L3 15.9897L3.60778 17L5.43113 15.9897H7.25448L11 12Z" fill="#CC2929"/>
<path d="M14.0468 9.04686L14.4296 9.42967C14.6615 9.665 14.7915 9.98211 14.7915 10.3125C14.7915 10.6429 14.6615 10.96 14.4296 11.1953L13.8827 11.7422C13.8246 11.8012 13.7553 11.8481 13.6788 11.8801C13.6024 11.9121 13.5203 11.9286 13.4374 11.9286C13.3545 11.9286 13.2725 11.9121 13.196 11.8801C13.1196 11.8481 13.0503 11.8012 12.9921 11.7422L8.25774 7.00779C8.19869 6.94964 8.15179 6.88032 8.11978 6.80387C8.08777 6.72742 8.07129 6.64536 8.07129 6.56248C8.07129 6.4796 8.08777 6.39754 8.11978 6.32109C8.15179 6.24464 8.19869 6.17532 8.25774 6.11717L8.80462 5.57029C9.03995 5.33842 9.35706 5.20843 9.68743 5.20843C10.0178 5.20843 10.3349 5.33842 10.5702 5.57029L10.9531 5.9531L13.1093 3.79685C13.9531 2.9531 15.3281 2.90623 16.1874 3.72654C16.3996 3.9272 16.5694 4.16829 16.6869 4.43562C16.8044 4.70295 16.8672 4.99109 16.8715 5.28306C16.8759 5.57504 16.8218 5.86493 16.7123 6.13565C16.6029 6.40637 16.4404 6.65244 16.2343 6.85936L14.0468 9.04686Z" stroke="#434343" stroke-width="1.4" stroke-linecap="round" stroke-linejoin="round"/>
<path d="M12.3906 11.1407L8.01565 15.5157C7.70692 15.8281 7.32064 16.0528 6.89643 16.1668C6.47221 16.2807 6.02532 16.2798 5.60159 16.1641L3.77346 16.961C3.65945 17.011 3.5331 17.0258 3.41061 17.0035C3.28812 16.9813 3.17507 16.9229 3.08596 16.836V16.836C3.02115 16.7722 2.97742 16.6901 2.96066 16.6007C2.9439 16.5113 2.95491 16.4189 2.99221 16.336L3.83596 14.3985C3.72025 13.9747 3.71932 13.5278 3.83327 13.1036C3.94722 12.6794 4.17194 12.2931 4.4844 11.9844L8.8594 7.60941" stroke="#434343" stroke-width="1.4" stroke-linecap="round" stroke-linejoin="round"/>
</svg>
