<svg width="20" height="20" viewBox="0 0 20 20" fill="none" xmlns="http://www.w3.org/2000/svg">
<path d="M16.875 9.375H8.75C8.58424 9.375 8.42527 9.44085 8.30806 9.55806C8.19085 9.67527 8.125 9.83424 8.125 10C8.125 10.1658 8.19085 10.3247 8.30806 10.4419C8.42527 10.5592 8.58424 10.625 8.75 10.625H16.875C17.0408 10.625 17.1997 10.5592 17.3169 10.4419C17.4342 10.3247 17.5 10.1658 17.5 10C17.5 9.83424 17.4342 9.67527 17.3169 9.55806C17.1997 9.44085 17.0408 9.375 16.875 9.375Z" fill="#666666"/>
<path d="M8.75 5.62501H16.875C17.0408 5.62501 17.1997 5.55916 17.3169 5.44195C17.4342 5.32474 17.5 5.16577 17.5 5.00001C17.5 4.83424 17.4342 4.67527 17.3169 4.55806C17.1997 4.44085 17.0408 4.37501 16.875 4.37501H8.75C8.58424 4.37501 8.42527 4.44085 8.30806 4.55806C8.19085 4.67527 8.125 4.83424 8.125 5.00001C8.125 5.16577 8.19085 5.32474 8.30806 5.44195C8.42527 5.55916 8.58424 5.62501 8.75 5.62501Z" fill="#666666"/>
<path d="M16.875 14.375H3.125C2.95924 14.375 2.80027 14.4408 2.68306 14.5581C2.56585 14.6753 2.5 14.8342 2.5 15C2.5 15.1658 2.56585 15.3247 2.68306 15.4419C2.80027 15.5592 2.95924 15.625 3.125 15.625H16.875C17.0408 15.625 17.1997 15.5592 17.3169 15.4419C17.4342 15.3247 17.5 15.1658 17.5 15C17.5 14.8342 17.4342 14.6753 17.3169 14.5581C17.1997 14.4408 17.0408 14.375 16.875 14.375Z" fill="#666666"/>
<path d="M2.68333 11.0667C2.80052 11.1837 2.95937 11.2495 3.125 11.2495C3.29063 11.2495 3.44948 11.1837 3.56667 11.0667L6.69167 7.94167C6.80871 7.82448 6.87445 7.66563 6.87445 7.5C6.87445 7.33438 6.80871 7.17552 6.69167 7.05833L3.56667 3.93334C3.44819 3.82294 3.29148 3.76284 3.12956 3.76569C2.96765 3.76855 2.81316 3.83414 2.69865 3.94865C2.58414 4.06316 2.51854 4.21765 2.51569 4.37957C2.51283 4.54149 2.57293 4.69819 2.68333 4.81667L5.36563 7.5L2.68333 10.1833C2.56629 10.3005 2.50055 10.4594 2.50055 10.625C2.50055 10.7906 2.56629 10.9495 2.68333 11.0667Z" fill="#666666"/>
</svg>
