<svg width="20" height="20" viewBox="0 0 20 20" fill="none" xmlns="http://www.w3.org/2000/svg">
<path d="M16.875 9.375H8.75C8.58424 9.375 8.42527 9.44085 8.30806 9.55806C8.19085 9.67527 8.125 9.83424 8.125 10C8.125 10.1658 8.19085 10.3247 8.30806 10.4419C8.42527 10.5592 8.58424 10.625 8.75 10.625H16.875C17.0408 10.625 17.1997 10.5592 17.3169 10.4419C17.4342 10.3247 17.5 10.1658 17.5 10C17.5 9.83424 17.4342 9.67527 17.3169 9.55806C17.1997 9.44085 17.0408 9.375 16.875 9.375Z" fill="#666666"/>
<path d="M8.75 5.625H16.875C17.0408 5.625 17.1997 5.55915 17.3169 5.44194C17.4342 5.32473 17.5 5.16576 17.5 5C17.5 4.83424 17.4342 4.67527 17.3169 4.55806C17.1997 4.44085 17.0408 4.375 16.875 4.375H8.75C8.58424 4.375 8.42527 4.44085 8.30806 4.55806C8.19085 4.67527 8.125 4.83424 8.125 5C8.125 5.16576 8.19085 5.32473 8.30806 5.44194C8.42527 5.55915 8.58424 5.625 8.75 5.625Z" fill="#666666"/>
<path d="M16.875 14.375H3.125C2.95924 14.375 2.80027 14.4408 2.68306 14.5581C2.56585 14.6753 2.5 14.8342 2.5 15C2.5 15.1658 2.56585 15.3247 2.68306 15.4419C2.80027 15.5591 2.95924 15.625 3.125 15.625H16.875C17.0408 15.625 17.1997 15.5591 17.3169 15.4419C17.4342 15.3247 17.5 15.1658 17.5 15C17.5 14.8342 17.4342 14.6753 17.3169 14.5581C17.1997 14.4408 17.0408 14.375 16.875 14.375Z" fill="#666666"/>
<path d="M5.625 11.25C5.74853 11.2499 5.86926 11.2132 5.97194 11.1445C6.07462 11.0758 6.15465 10.9782 6.20191 10.8641C6.24917 10.75 6.26154 10.6244 6.23747 10.5032C6.2134 10.382 6.15396 10.2707 6.06666 10.1833L3.38333 7.5L6.06666 4.81666C6.12807 4.75944 6.17732 4.69044 6.21148 4.61378C6.24564 4.53711 6.26401 4.45435 6.26549 4.37043C6.26697 4.28651 6.25154 4.20315 6.2201 4.12533C6.18867 4.04751 6.14188 3.97681 6.08253 3.91747C6.02318 3.85812 5.95249 3.81133 5.87466 3.77989C5.79684 3.74846 5.71348 3.73302 5.62956 3.7345C5.54565 3.73598 5.46288 3.75435 5.38622 3.78851C5.30955 3.82267 5.24055 3.87192 5.18333 3.93333L2.05833 7.05833C1.94129 7.17552 1.87555 7.33437 1.87555 7.5C1.87555 7.66562 1.94129 7.82447 2.05833 7.94166L5.18333 11.0667C5.24107 11.125 5.30987 11.1713 5.38571 11.2028C5.46154 11.2343 5.54289 11.2503 5.625 11.25Z" fill="#666666"/>
</svg>
