<svg width="20" height="20" viewBox="0 0 20 20" fill="none" xmlns="http://www.w3.org/2000/svg">
<path d="M17.7511 8.15938C18.0333 8.10292 18.2872 7.95023 18.4694 7.72738C18.6516 7.50453 18.7508 7.22535 18.75 6.9375V5C18.75 4.66848 18.6183 4.35054 18.3839 4.11612C18.1495 3.8817 17.8315 3.75 17.5 3.75H2.50003C2.16851 3.75 1.85057 3.8817 1.61614 4.11612C1.38172 4.35054 1.25003 4.66848 1.25003 5V6.93333C1.24849 7.22184 1.34731 7.50191 1.52955 7.72558C1.71179 7.94924 1.96612 8.1026 2.24899 8.15938C2.67026 8.24952 3.04787 8.48145 3.31876 8.81643C3.58964 9.15142 3.73742 9.56919 3.73742 10C3.73742 10.4308 3.58964 10.8486 3.31876 11.1836C3.04787 11.5186 2.67026 11.7505 2.24899 11.8406C1.96585 11.8973 1.71127 12.0507 1.52898 12.2746C1.34668 12.4986 1.24805 12.779 1.25003 13.0677V15.0042C1.25003 15.3357 1.38172 15.6536 1.61614 15.8881C1.85057 16.1225 2.16851 16.2542 2.50003 16.2542H17.5C17.8315 16.2542 18.1495 16.1225 18.3839 15.8881C18.6183 15.6536 18.75 15.3357 18.75 15.0042V13.0677C18.7515 12.7792 18.6525 12.4991 18.47 12.2756C18.2876 12.0521 18.033 11.8991 17.75 11.8427C17.3288 11.7526 16.9512 11.5206 16.6803 11.1857C16.4094 10.8507 16.2616 10.4329 16.2616 10.0021C16.2616 9.57128 16.4094 9.1535 16.6803 8.81852C16.9512 8.48353 17.3288 8.2516 17.75 8.16146L17.7511 8.15938ZM2.50003 13.0677C3.20249 12.9192 3.83259 12.5338 4.28474 11.9761C4.73689 11.4183 4.98364 10.7222 4.98364 10.0042C4.98364 9.28618 4.73689 8.59 4.28474 8.03226C3.83259 7.47453 3.20249 7.08913 2.50003 6.94063V5.00312H6.87503V15.0031H2.50003V13.0677ZM15.0813 10.6521C15.2062 11.2462 15.5015 11.791 15.9311 12.2199C16.3606 12.6489 16.9058 12.9435 17.5 13.0677V15.0052H8.12503V5.00521H17.5L17.5063 6.93854H17.4948C17.0924 7.02396 16.7108 7.1878 16.3718 7.42071C16.0327 7.65361 15.7428 7.95103 15.5187 8.29596C15.2946 8.64089 15.1406 9.02659 15.0656 9.43103C14.9905 9.83548 14.9958 10.2507 15.0813 10.6531V10.6521Z" fill="#666666"/>
</svg>
