<svg width="20" height="20" viewBox="0 0 20 20" fill="none" xmlns="http://www.w3.org/2000/svg">
<path d="M18.6833 16.5958L14.3083 7.84583C14.2564 7.7421 14.1766 7.65487 14.0779 7.59391C13.9792 7.53295 13.8655 7.50067 13.7495 7.50067C13.6335 7.50067 13.5198 7.53295 13.4211 7.59391C13.3224 7.65487 13.2426 7.7421 13.1906 7.84583L11.4948 11.2385C10.1643 11.1636 8.88427 10.7036 7.81041 9.91458C9.06946 8.57017 9.83229 6.83653 9.97292 5H11.875C12.0408 5 12.1997 4.93415 12.3169 4.81694C12.4342 4.69973 12.5 4.54076 12.5 4.375C12.5 4.20924 12.4342 4.05027 12.3169 3.93306C12.1997 3.81585 12.0408 3.75 11.875 3.75H7.5V2.5C7.5 2.33424 7.43415 2.17527 7.31694 2.05806C7.19973 1.94085 7.04076 1.875 6.875 1.875C6.70924 1.875 6.55027 1.94085 6.43306 2.05806C6.31585 2.17527 6.25 2.33424 6.25 2.5V3.75H1.875C1.70924 3.75 1.55027 3.81585 1.43306 3.93306C1.31585 4.05027 1.25 4.20924 1.25 4.375C1.25 4.54076 1.31585 4.69973 1.43306 4.81694C1.55027 4.93415 1.70924 5 1.875 5H8.71979C8.58041 6.53118 7.92989 7.97092 6.87291 9.0875C6.21613 8.39277 5.71225 7.5681 5.39375 6.66667C5.36639 6.58924 5.32405 6.51796 5.26914 6.4569C5.21424 6.39584 5.14784 6.34619 5.07375 6.31079C4.92411 6.23929 4.7522 6.23016 4.59583 6.28542C4.43947 6.34067 4.31145 6.45578 4.23995 6.60542C4.16846 6.75505 4.15933 6.92697 4.21458 7.08333C4.58771 8.13632 5.17426 9.1009 5.9375 9.91666C4.76079 10.7842 3.33692 11.2515 1.875 11.25C1.70924 11.25 1.55027 11.3158 1.43306 11.4331C1.31585 11.5503 1.25 11.7092 1.25 11.875C1.25 12.0408 1.31585 12.1997 1.43306 12.3169C1.55027 12.4342 1.70924 12.5 1.875 12.5C3.68819 12.5013 5.44917 11.893 6.875 10.7729C8.03863 11.6834 9.42833 12.2595 10.8948 12.4396L8.81667 16.5958C8.7784 16.6693 8.75513 16.7496 8.74818 16.8322C8.74124 16.9147 8.75077 16.9978 8.77622 17.0766C8.80168 17.1554 8.84255 17.2284 8.89645 17.2913C8.95035 17.3542 9.01622 17.4057 9.09022 17.4429C9.16423 17.4802 9.24489 17.5023 9.32751 17.508C9.41014 17.5138 9.49309 17.5031 9.57154 17.4765C9.64999 17.4499 9.72237 17.408 9.78448 17.3532C9.84659 17.2984 9.89719 17.2318 9.93333 17.1573L11.0115 15.0031H16.4885L17.5656 17.1573C17.6007 17.2333 17.6507 17.3015 17.7126 17.3578C17.7745 17.4141 17.8471 17.4574 17.9261 17.4851C18.0051 17.5128 18.0888 17.5244 18.1724 17.5192C18.2559 17.5139 18.3375 17.4919 18.4124 17.4545C18.4873 17.4171 18.5539 17.3651 18.6083 17.3014C18.6626 17.2378 18.7037 17.1639 18.729 17.0841C18.7542 17.0043 18.7632 16.9202 18.7554 16.8369C18.7475 16.7536 18.723 16.6726 18.6833 16.599V16.5958ZM11.6365 13.75L13.75 9.52291L15.8635 13.75H11.6365Z" fill="#666666"/>
</svg>
