<svg width="20" height="20" viewBox="0 0 20 20" fill="none" xmlns="http://www.w3.org/2000/svg">
<path d="M19.375 9.38437V9.375C19.375 9.375 19.375 9.36562 19.375 9.36146C19.376 9.34655 19.376 9.33158 19.375 9.31667V9.29271C19.375 9.28125 19.375 9.26875 19.3698 9.25625C19.3646 9.24375 19.3646 9.23542 19.3625 9.225C19.3606 9.2155 19.3581 9.20612 19.3552 9.19688L19.3427 9.15937L19.3365 9.14271L18.2438 6.41146C18.1511 6.1794 17.991 5.98044 17.7842 5.84025C17.5773 5.70007 17.3332 5.62509 17.0833 5.625H14.375V5C14.375 4.83424 14.3092 4.67527 14.1919 4.55806C14.0747 4.44085 13.9158 4.375 13.75 4.375H1.875C1.54348 4.375 1.22554 4.5067 0.991117 4.74112C0.756697 4.97554 0.625 5.29348 0.625 5.625V14.375C0.625 14.7065 0.756697 15.0245 0.991117 15.2589C1.22554 15.4933 1.54348 15.625 1.875 15.625H2.89167C3.03008 16.1618 3.343 16.6374 3.78122 16.977C4.21945 17.3166 4.75811 17.5008 5.3125 17.5008C5.86689 17.5008 6.40555 17.3166 6.84378 16.977C7.282 16.6374 7.59492 16.1618 7.73333 15.625H12.2667C12.4051 16.1618 12.718 16.6374 13.1562 16.977C13.5944 17.3166 14.1331 17.5008 14.6875 17.5008C15.2419 17.5008 15.7806 17.3166 16.2188 16.977C16.657 16.6374 16.9699 16.1618 17.1083 15.625H18.125C18.4565 15.625 18.7745 15.4933 19.0089 15.2589C19.2433 15.0245 19.375 14.7065 19.375 14.375V9.38437ZM17.076 6.87292L17.8271 8.74792H14.375V6.87292H17.076ZM13.125 5.625V10.625H1.875V5.625H13.125ZM1.875 11.875H13.125V13.051C12.7035 13.3881 12.4024 13.8526 12.2667 14.375H7.73333C7.59492 13.8382 7.282 13.3626 6.84378 13.023C6.40555 12.6834 5.86689 12.4992 5.3125 12.4992C4.75811 12.4992 4.21945 12.6834 3.78122 13.023C3.343 13.3626 3.03008 13.8382 2.89167 14.375H1.875V11.875ZM5.3125 16.25C5.06527 16.25 4.8236 16.1767 4.61804 16.0393C4.41248 15.902 4.25226 15.7068 4.15765 15.4784C4.06304 15.2499 4.03829 14.9986 4.08652 14.7561C4.13475 14.5137 4.2538 14.2909 4.42862 14.1161C4.60343 13.9413 4.82616 13.8223 5.06864 13.774C5.31111 13.7258 5.56245 13.7505 5.79085 13.8452C6.01926 13.9398 6.21449 14.1 6.35184 14.3055C6.48919 14.5111 6.5625 14.7528 6.5625 15C6.5625 15.3315 6.43081 15.6495 6.19638 15.8839C5.96196 16.1183 5.64402 16.25 5.3125 16.25ZM14.6875 16.25C14.4403 16.25 14.1986 16.1767 13.993 16.0393C13.7875 15.902 13.6273 15.7068 13.5327 15.4784C13.438 15.2499 13.4133 14.9986 13.4615 14.7561C13.5098 14.5137 13.6288 14.2909 13.8036 14.1161C13.9784 13.9413 14.2012 13.8223 14.4436 13.774C14.6861 13.7258 14.9374 13.7505 15.1659 13.8452C15.3943 13.9398 15.5895 14.1 15.7268 14.3055C15.8642 14.5111 15.9375 14.7528 15.9375 15C15.9375 15.3315 15.8058 15.6495 15.5714 15.8839C15.337 16.1183 15.019 16.25 14.6875 16.25ZM18.125 14.375H17.1083C16.9698 13.8383 16.6568 13.3629 16.2186 13.0235C15.7804 12.6841 15.2418 12.5 14.6875 12.5C14.583 12.5002 14.4787 12.5068 14.375 12.5198V10H18.125V14.375Z" fill="#666666"/>
</svg>
