<svg width="20" height="20" viewBox="0 0 20 20" fill="none" xmlns="http://www.w3.org/2000/svg">
<path d="M7.16042 6.8448L9.375 4.63126V11.8719C9.375 12.0376 9.44085 12.1966 9.55806 12.3138C9.67527 12.431 9.83424 12.4969 10 12.4969C10.1658 12.4969 10.3247 12.431 10.4419 12.3138C10.5592 12.1966 10.625 12.0376 10.625 11.8719V4.63439L12.8385 6.8448C12.956 6.96051 13.1144 7.02511 13.2793 7.02454C13.4442 7.02397 13.6022 6.95827 13.7188 6.84175C13.8355 6.72523 13.9014 6.56733 13.9021 6.40245C13.9029 6.23757 13.8385 6.07907 13.7229 5.96147L10.4417 2.68022C10.4124 2.65076 10.3803 2.62424 10.3458 2.60105H10.3385C10.3053 2.58054 10.2705 2.56277 10.2344 2.54793H10.226C10.1923 2.53447 10.1574 2.52401 10.1219 2.51668H10.1156C10.0779 2.50916 10.0395 2.50532 10.001 2.50522C9.96222 2.50531 9.9235 2.50915 9.88542 2.51668H9.88021C9.84288 2.52375 9.80627 2.53421 9.77083 2.54793H9.76354C9.72735 2.56259 9.6925 2.58037 9.65937 2.60105H9.65312C9.61866 2.62424 9.58657 2.65076 9.55729 2.68022L6.27604 5.96147C6.16047 6.07907 6.09606 6.23757 6.09682 6.40245C6.09759 6.56733 6.16348 6.72523 6.28014 6.84175C6.39679 6.95827 6.55477 7.02397 6.71965 7.02454C6.88453 7.02511 7.04295 6.96051 7.16042 6.8448Z" fill="#666666"/>
<path d="M16.875 11.25C16.7092 11.25 16.5503 11.3159 16.4331 11.4331C16.3158 11.5503 16.25 11.7093 16.25 11.875V16.25H3.75V11.875C3.75 11.7093 3.68415 11.5503 3.56694 11.4331C3.44973 11.3159 3.29076 11.25 3.125 11.25C2.95924 11.25 2.80027 11.3159 2.68306 11.4331C2.56585 11.5503 2.5 11.7093 2.5 11.875V16.25C2.5 16.5815 2.6317 16.8995 2.86612 17.1339C3.10054 17.3683 3.41848 17.5 3.75 17.5H16.25C16.5815 17.5 16.8995 17.3683 17.1339 17.1339C17.3683 16.8995 17.5 16.5815 17.5 16.25V11.875C17.5 11.7093 17.4342 11.5503 17.3169 11.4331C17.1997 11.3159 17.0408 11.25 16.875 11.25Z" fill="#666666"/>
</svg>
