<svg width="20" height="20" viewBox="0 0 20 20" fill="none" xmlns="http://www.w3.org/2000/svg">
<path d="M18.1146 16.5625C16.9533 14.5517 15.0875 13.043 12.8781 12.3281C13.9361 11.6976 14.7579 10.7373 15.2173 9.59466C15.6768 8.45199 15.7486 7.1901 15.4216 6.00271C15.0946 4.81533 14.3869 3.76807 13.4073 3.02172C12.4276 2.27536 11.23 1.87115 9.99845 1.87115C8.76686 1.87115 7.56931 2.27536 6.58964 3.02172C5.60996 3.76807 4.90232 4.81533 4.57533 6.00271C4.24834 7.1901 4.32008 8.45199 4.77955 9.59466C5.23902 10.7373 6.06081 11.6976 7.11876 12.3281C4.90568 13.0373 3.03641 14.5459 1.87605 16.5594C1.83322 16.6305 1.805 16.7095 1.79303 16.7916C1.78106 16.8738 1.78558 16.9575 1.80633 17.0379C1.82708 17.1183 1.86365 17.1938 1.91389 17.2599C1.96413 17.326 2.02704 17.3815 2.09895 17.423C2.17085 17.4645 2.25031 17.4913 2.33269 17.5018C2.41506 17.5122 2.49869 17.5062 2.5787 17.484C2.65871 17.4618 2.73349 17.4238 2.79867 17.3724C2.86386 17.3209 2.91814 17.257 2.95835 17.1844C3.67139 15.949 4.69711 14.9231 5.93237 14.2098C7.16764 13.4965 8.56891 13.121 9.99532 13.121C11.4217 13.121 12.823 13.4965 14.0583 14.2098C15.2935 14.9231 16.3193 15.949 17.0323 17.1844C17.0725 17.257 17.1268 17.3209 17.192 17.3724C17.2572 17.4238 17.3319 17.4618 17.4119 17.484C17.492 17.5062 17.5756 17.5122 17.658 17.5018C17.7403 17.4913 17.8198 17.4645 17.8917 17.423C17.9636 17.3815 18.0265 17.326 18.0768 17.2599C18.127 17.1938 18.1636 17.1183 18.1843 17.0379C18.2051 16.9575 18.2096 16.8738 18.1976 16.7916C18.1856 16.7095 18.1574 16.6305 18.1146 16.5594V16.5625ZM5.62085 7.50001C5.62085 6.63472 5.87743 5.78886 6.35817 5.06939C6.8389 4.34993 7.52218 3.78917 8.32161 3.45804C9.12103 3.1269 10.0007 3.04026 10.8494 3.20907C11.698 3.37788 12.4776 3.79456 13.0894 4.40642C13.7013 5.01827 14.118 5.79782 14.2868 6.64649C14.4556 7.49515 14.369 8.37482 14.0378 9.17425C13.7067 9.97368 13.1459 10.657 12.4265 11.1377C11.707 11.6184 10.8611 11.875 9.99585 11.875C8.83625 11.8739 7.72452 11.4125 6.90495 10.5921C6.08537 9.77178 5.62501 8.65961 5.62501 7.50001H5.62085Z" fill="#666666"/>
</svg>
