<svg width="20" height="20" viewBox="0 0 20 20" fill="none" xmlns="http://www.w3.org/2000/svg">
<path d="M11.1875 13.2385C10.6569 12.8657 10.0802 12.5632 9.47185 12.3385C10.3098 11.7811 10.9461 10.9687 11.2866 10.0216C11.6271 9.07452 11.6537 8.04299 11.3625 7.07958C11.0713 6.11618 10.4778 5.27208 9.66974 4.67214C8.86166 4.07219 7.88194 3.74826 6.8755 3.74826C5.86905 3.74826 4.88933 4.07219 4.08125 4.67214C3.27317 5.27208 2.67965 6.11618 2.38846 7.07958C2.09728 8.04299 2.12391 9.07452 2.46441 10.0216C2.8049 10.9687 3.44119 11.7811 4.27914 12.3385C2.84747 12.8624 1.6112 13.8132 0.737476 15.0625C0.690283 15.1297 0.656777 15.2055 0.638879 15.2856C0.620981 15.3657 0.619038 15.4485 0.63316 15.5294C0.647283 15.6103 0.677195 15.6876 0.721188 15.7569C0.76518 15.8262 0.822393 15.8861 0.889559 15.9333C0.956725 15.9805 1.03253 16.014 1.11264 16.0319C1.19276 16.0498 1.27561 16.0518 1.35647 16.0376C1.43734 16.0235 1.51463 15.9936 1.58393 15.9496C1.65324 15.9056 1.7132 15.8484 1.76039 15.7812C2.33706 14.9607 3.10274 14.2909 3.99276 13.8286C4.88278 13.3662 5.87099 13.1249 6.87393 13.1249C7.87687 13.1249 8.86509 13.3662 9.75511 13.8286C10.6451 14.2909 11.4108 14.9607 11.9875 15.7812C12.0828 15.9169 12.2281 16.0091 12.3914 16.0376C12.5547 16.0662 12.7227 16.0286 12.8583 15.9333C12.994 15.838 13.0862 15.6927 13.1147 15.5294C13.1432 15.3661 13.1057 15.1981 13.0104 15.0625C12.513 14.3535 11.8962 13.7363 11.1875 13.2385ZM3.43747 8.43749C3.43747 7.75761 3.63908 7.09301 4.0168 6.52772C4.39451 5.96242 4.93138 5.52183 5.5595 5.26165C6.18762 5.00148 6.87879 4.9334 7.5456 5.06604C8.21241 5.19867 8.82491 5.52607 9.30565 6.00681C9.7864 6.48755 10.1138 7.10006 10.2464 7.76687C10.3791 8.43368 10.311 9.12484 10.0508 9.75296C9.79064 10.3811 9.35004 10.9179 8.78475 11.2957C8.21945 11.6734 7.55485 11.875 6.87497 11.875C6.42356 11.875 5.97656 11.7861 5.5595 11.6133C5.14245 11.4406 4.7635 11.1874 4.44429 10.8682C4.12509 10.549 3.87189 10.17 3.69914 9.75296C3.52639 9.33591 3.43747 8.88891 3.43747 8.43749Z" fill="#666666"/>
<path d="M19.3791 15.0625C18.5027 13.8158 17.2674 12.8656 15.8375 12.3385C16.6743 11.781 17.3097 10.9692 17.6498 10.0229C17.9899 9.07656 18.0167 8.04598 17.7262 7.0833C17.4357 6.12062 16.8433 5.27687 16.0365 4.67665C15.2298 4.07643 14.2514 3.75155 13.2458 3.74999C12.819 3.75108 12.3942 3.80816 11.9823 3.91978C11.9011 3.93937 11.8247 3.97502 11.7575 4.02464C11.6903 4.07427 11.6338 4.13684 11.5912 4.20868C11.5486 4.28052 11.5209 4.36016 11.5096 4.4429C11.4983 4.52565 11.5037 4.60981 11.5255 4.69042C11.5473 4.77104 11.585 4.84647 11.6365 4.91226C11.6879 4.97806 11.752 5.03287 11.825 5.07348C11.8979 5.11409 11.9783 5.13966 12.0613 5.14868C12.1443 5.15771 12.2283 5.15001 12.3083 5.12603C12.614 5.04367 12.9292 5.0013 13.2458 4.99999C14.1575 4.99999 15.0318 5.36215 15.6765 6.00681C16.3211 6.65147 16.6833 7.5258 16.6833 8.43749C16.6833 9.34917 16.3211 10.2235 15.6765 10.8682C15.0318 11.5128 14.1575 11.875 13.2458 11.875H13.1823L13.1448 11.8802H13.1198L13.0823 11.8896L13.0604 11.8958L13.0187 11.9104L13.0031 11.9167L12.9666 11.9344L12.9479 11.9427L12.9146 11.9635L12.8969 11.9739L12.8666 11.9969C12.8605 12.001 12.8546 12.0056 12.8489 12.0104L12.825 12.0323L12.8041 12.051L12.7854 12.0719L12.7635 12.0948L12.7479 12.1167L12.7281 12.1437C12.7233 12.1503 12.7191 12.1573 12.7156 12.1646C12.7084 12.174 12.7021 12.1841 12.6969 12.1948C12.6937 12.2005 12.6909 12.2064 12.6885 12.2125C12.6823 12.225 12.676 12.2364 12.6698 12.25C12.6678 12.2567 12.6654 12.2634 12.6625 12.2698L12.6489 12.3073C12.6489 12.3135 12.6489 12.3208 12.6437 12.3281C12.6385 12.3354 12.6364 12.3542 12.6344 12.3667C12.6339 12.375 12.6339 12.3833 12.6344 12.3917L12.6281 12.4292C12.6286 12.4389 12.6286 12.4486 12.6281 12.4583C12.6281 12.4698 12.6281 12.4812 12.6281 12.4927C12.6281 12.5062 12.6281 12.5198 12.6281 12.5333C12.6281 12.5469 12.6281 12.5489 12.6281 12.5562C12.6281 12.5635 12.6281 12.5875 12.6344 12.6031V12.6187C12.6633 12.7595 12.74 12.886 12.8514 12.9769C12.9627 13.0678 13.1021 13.1175 13.2458 13.1177C14.2472 13.1192 15.2335 13.3613 16.1217 13.8235C17.01 14.2858 17.7742 14.9547 18.35 15.7739C18.4077 15.8587 18.4855 15.9279 18.5763 15.9755C18.6671 16.0231 18.7683 16.0476 18.8708 16.0469C18.9991 16.0471 19.1244 16.0074 19.2291 15.9333C19.3645 15.8377 19.4563 15.6923 19.4844 15.529C19.5126 15.3657 19.4747 15.1979 19.3791 15.0625Z" fill="#666666"/>
</svg>
