<svg width="20" height="20" viewBox="0 0 20 20" fill="none" xmlns="http://www.w3.org/2000/svg">
<g id="vertical-align">
<path id="Vector" d="M17.5 9.375H16.25V5.625C16.25 5.29348 16.1183 4.97554 15.8839 4.74112C15.6495 4.5067 15.3315 4.375 15 4.375H11.875C11.5435 4.375 11.2255 4.5067 10.9911 4.74112C10.7567 4.97554 10.625 5.29348 10.625 5.625V9.375H9.375V3.75C9.375 3.41848 9.2433 3.10054 9.00888 2.86612C8.77446 2.6317 8.45652 2.5 8.125 2.5H5C4.66848 2.5 4.35054 2.6317 4.11612 2.86612C3.8817 3.10054 3.75 3.41848 3.75 3.75V9.375H2.5C2.33424 9.375 2.17527 9.44085 2.05806 9.55806C1.94085 9.67527 1.875 9.83424 1.875 10C1.875 10.1658 1.94085 10.3247 2.05806 10.4419C2.17527 10.5592 2.33424 10.625 2.5 10.625H3.75V16.25C3.75 16.5815 3.8817 16.8995 4.11612 17.1339C4.35054 17.3683 4.66848 17.5 5 17.5H8.125C8.45652 17.5 8.77446 17.3683 9.00888 17.1339C9.2433 16.8995 9.375 16.5815 9.375 16.25V10.625H10.625V14.375C10.625 14.7065 10.7567 15.0245 10.9911 15.2589C11.2255 15.4933 11.5435 15.625 11.875 15.625H15C15.3315 15.625 15.6495 15.4933 15.8839 15.2589C16.1183 15.0245 16.25 14.7065 16.25 14.375V10.625H17.5C17.6658 10.625 17.8247 10.5592 17.9419 10.4419C18.0592 10.3247 18.125 10.1658 18.125 10C18.125 9.83424 18.0592 9.67527 17.9419 9.55806C17.8247 9.44085 17.6658 9.375 17.5 9.375ZM8.125 16.25H5V3.75H8.125V16.25ZM15 14.375H11.875V5.625H15V14.375Z" fill="#697586"/>
</g>
</svg>
