<svg width="20" height="20" viewBox="0 0 20 20" fill="none" xmlns="http://www.w3.org/2000/svg">
<path d="M19.0636 5.70936C18.9686 5.65451 18.8608 5.62563 18.7511 5.62563C18.6414 5.62563 18.5336 5.65451 18.4386 5.70936L15.0011 7.67499V7.18958C15.0011 6.36077 14.6719 5.56592 14.0858 4.97987C13.4998 4.39382 12.7049 4.06458 11.8761 4.06458H1.8761C1.54458 4.06458 1.22663 4.19627 0.992214 4.43069C0.757794 4.66511 0.626099 4.98305 0.626099 5.31458V12.8146C0.626099 13.6434 0.95534 14.4382 1.54139 15.0243C2.12744 15.6103 2.9223 15.9396 3.7511 15.9396H13.7511C14.0826 15.9396 14.4006 15.8079 14.635 15.5735C14.8694 15.339 15.0011 15.0211 15.0011 14.6896V12.3271L18.4386 14.2927C18.5337 14.3476 18.6416 14.3765 18.7515 14.3764C18.8613 14.3764 18.9692 14.3474 19.0642 14.2923C19.1593 14.2373 19.2382 14.1582 19.2929 14.063C19.3477 13.9678 19.3764 13.8598 19.3761 13.75V6.24999C19.376 6.14039 19.3471 6.03275 19.2922 5.93786C19.2374 5.84297 19.1585 5.76417 19.0636 5.70936ZM13.7511 14.6875H3.7511C3.25382 14.6875 2.7769 14.4899 2.42527 14.1383C2.07364 13.7867 1.8761 13.3098 1.8761 12.8125V5.31249H11.8761C12.3734 5.31249 12.8503 5.51004 13.2019 5.86167C13.5536 6.2133 13.7511 6.69021 13.7511 7.18749V14.6875ZM18.1261 12.6729L15.0011 10.8875V9.10937L18.1261 7.32395V12.6729Z" fill="#666666"/>
</svg>
