<svg width="20" height="20" viewBox="0 0 20 20" fill="none" xmlns="http://www.w3.org/2000/svg">
<path d="M19.0635 5.70936C18.9685 5.65451 18.8607 5.62563 18.751 5.62563C18.6413 5.62563 18.5336 5.65451 18.4385 5.70936L15.001 7.67499V7.18958C15.001 6.36077 14.6718 5.56592 14.0857 4.97987C13.4997 4.39382 12.7048 4.06458 11.876 4.06458H1.87604C1.54452 4.06458 1.22657 4.19627 0.992153 4.43069C0.757733 4.66511 0.626038 4.98305 0.626038 5.31458V12.8146C0.626038 13.6434 0.955279 14.4382 1.54133 15.0243C2.12738 15.6103 2.92224 15.9396 3.75104 15.9396H13.751C14.0826 15.9396 14.4005 15.8079 14.6349 15.5735C14.8693 15.339 15.001 15.0211 15.001 14.6896V12.3271L18.4385 14.2927C18.5337 14.3476 18.6416 14.3765 18.7514 14.3764C18.8612 14.3764 18.9691 14.3474 19.0642 14.2923C19.1592 14.2373 19.2381 14.1582 19.2928 14.063C19.3476 13.9678 19.3763 13.8598 19.376 13.75V6.24999C19.3759 6.14039 19.347 6.03275 19.2921 5.93786C19.2373 5.84297 19.1585 5.76417 19.0635 5.70936ZM13.751 14.6875H3.75104C3.25376 14.6875 2.77684 14.4899 2.42521 14.1383C2.07358 13.7867 1.87604 13.3098 1.87604 12.8125V5.31249H11.876C12.3733 5.31249 12.8502 5.51004 13.2019 5.86167C13.5535 6.2133 13.751 6.69021 13.751 7.18749V14.6875ZM18.126 12.6729L15.001 10.8875V9.10937L18.126 7.32395V12.6729Z" fill="#666666"/>
</svg>
