<svg width="20" height="21" viewBox="0 0 20 21" fill="none" xmlns="http://www.w3.org/2000/svg">
<path d="M18.5 15.1945L11.668 3.32968C11.4972 3.03899 11.2535 2.79797 10.9609 2.63051C10.6684 2.46304 10.3371 2.37494 9.99998 2.37494C9.66287 2.37494 9.33161 2.46304 9.03904 2.63051C8.74647 2.79797 8.50274 3.03899 8.33202 3.32968L1.49998 15.1945C1.33571 15.4757 1.24915 15.7955 1.24915 16.1211C1.24915 16.4467 1.33571 16.7665 1.49998 17.0476C1.66852 17.3401 1.91184 17.5824 2.20495 17.7498C2.49807 17.9171 2.83044 18.0035 3.16795 18H16.832C17.1693 18.0032 17.5013 17.9167 17.7941 17.7494C18.0869 17.582 18.33 17.3399 18.4984 17.0476C18.6629 16.7666 18.7498 16.4469 18.75 16.1213C18.7503 15.7957 18.664 15.4758 18.5 15.1945ZM17.4164 16.4219C17.3568 16.5235 17.2713 16.6074 17.1686 16.6651C17.0659 16.7227 16.9498 16.752 16.832 16.75H3.16795C3.0502 16.752 2.93402 16.7227 2.83133 16.6651C2.72865 16.6074 2.64314 16.5235 2.58358 16.4219C2.52963 16.3305 2.50117 16.2264 2.50117 16.1203C2.50117 16.0142 2.52963 15.9101 2.58358 15.8187L9.41561 3.9539C9.47637 3.85278 9.56227 3.76911 9.66494 3.71102C9.76762 3.65294 9.88358 3.62241 10.0015 3.62241C10.1195 3.62241 10.2355 3.65294 10.3381 3.71102C10.4408 3.76911 10.5267 3.85278 10.5875 3.9539L17.4195 15.8187C17.473 15.9104 17.5009 16.0146 17.5004 16.1207C17.4998 16.2268 17.4708 16.3308 17.4164 16.4219ZM9.37498 11.75V8.62499C9.37498 8.45923 9.44083 8.30026 9.55804 8.18305C9.67525 8.06584 9.83422 7.99999 9.99998 7.99999C10.1657 7.99999 10.3247 8.06584 10.4419 8.18305C10.5591 8.30026 10.625 8.45923 10.625 8.62499V11.75C10.625 11.9158 10.5591 12.0747 10.4419 12.1919C10.3247 12.3091 10.1657 12.375 9.99998 12.375C9.83422 12.375 9.67525 12.3091 9.55804 12.1919C9.44083 12.0747 9.37498 11.9158 9.37498 11.75ZM10.9375 14.5625C10.9375 14.7479 10.8825 14.9292 10.7795 15.0833C10.6765 15.2375 10.5301 15.3577 10.3587 15.4286C10.1874 15.4996 9.99894 15.5182 9.81709 15.482C9.63523 15.4458 9.46818 15.3565 9.33707 15.2254C9.20596 15.0943 9.11667 14.9272 9.0805 14.7454C9.04432 14.5635 9.06289 14.375 9.13385 14.2037C9.2048 14.0324 9.32497 13.886 9.47914 13.783C9.63331 13.68 9.81456 13.625 9.99998 13.625C10.2486 13.625 10.4871 13.7238 10.6629 13.8996C10.8387 14.0754 10.9375 14.3138 10.9375 14.5625Z" fill="#697586"/>
</svg>
