<svg width="20" height="21" viewBox="0 0 20 21" fill="none" xmlns="http://www.w3.org/2000/svg">
<path d="M18.5 15.1945L11.668 3.32968C11.4972 3.03899 11.2535 2.79797 10.9609 2.63051C10.6684 2.46304 10.3371 2.37494 9.99998 2.37494C9.66287 2.37494 9.33161 2.46304 9.03904 2.63051C8.74647 2.79797 8.50274 3.03899 8.33201 3.32968L1.49998 15.1945C1.33571 15.4757 1.24915 15.7955 1.24915 16.1211C1.24915 16.4467 1.33571 16.7665 1.49998 17.0476C1.66852 17.3401 1.91184 17.5824 2.20495 17.7498C2.49807 17.9171 2.83044 18.0035 3.16795 18H16.832C17.1693 18.0032 17.5013 17.9167 17.7941 17.7494C18.0869 17.582 18.33 17.3399 18.4984 17.0476C18.6629 16.7666 18.7498 16.4469 18.75 16.1213C18.7503 15.7957 18.664 15.4758 18.5 15.1945ZM9.37498 8.62499C9.37498 8.45923 9.44083 8.30026 9.55804 8.18305C9.67525 8.06584 9.83422 7.99999 9.99998 7.99999C10.1657 7.99999 10.3247 8.06584 10.4419 8.18305C10.5591 8.30026 10.625 8.45923 10.625 8.62499V11.75C10.625 11.9158 10.5591 12.0747 10.4419 12.1919C10.3247 12.3091 10.1657 12.375 9.99998 12.375C9.83422 12.375 9.67525 12.3091 9.55804 12.1919C9.44083 12.0747 9.37498 11.9158 9.37498 11.75V8.62499ZM9.99998 15.5C9.81456 15.5 9.63331 15.445 9.47914 15.342C9.32497 15.239 9.2048 15.0926 9.13385 14.9213C9.06289 14.75 9.04432 14.5615 9.0805 14.3796C9.11667 14.1977 9.20596 14.0307 9.33707 13.8996C9.46818 13.7685 9.63523 13.6792 9.81709 13.643C9.99894 13.6068 10.1874 13.6254 10.3587 13.6964C10.5301 13.7673 10.6765 13.8875 10.7795 14.0416C10.8825 14.1958 10.9375 14.3771 10.9375 14.5625C10.9375 14.8111 10.8387 15.0496 10.6629 15.2254C10.4871 15.4012 10.2486 15.5 9.99998 15.5Z" fill="#697586"/>
</svg>
