<svg width="20" height="21" viewBox="0 0 20 21" fill="none" xmlns="http://www.w3.org/2000/svg">
<path d="M10 2.375C8.39303 2.375 6.82214 2.85152 5.486 3.74431C4.14985 4.6371 3.10844 5.90605 2.49348 7.3907C1.87852 8.87535 1.71762 10.509 2.03112 12.0851C2.34463 13.6612 3.11846 15.1089 4.25476 16.2452C5.39106 17.3815 6.8388 18.1554 8.4149 18.4689C9.99099 18.7824 11.6247 18.6215 13.1093 18.0065C14.594 17.3916 15.8629 16.3502 16.7557 15.014C17.6485 13.6779 18.125 12.107 18.125 10.5C18.1227 8.34581 17.266 6.28051 15.7427 4.75727C14.2195 3.23403 12.1542 2.37727 10 2.375ZM12.9422 12.5578C13.0003 12.6159 13.0463 12.6848 13.0777 12.7607C13.1092 12.8366 13.1254 12.9179 13.1254 13C13.1254 13.0821 13.1092 13.1634 13.0777 13.2393C13.0463 13.3152 13.0003 13.3841 12.9422 13.4422C12.8841 13.5003 12.8152 13.5463 12.7393 13.5777C12.6634 13.6092 12.5821 13.6253 12.5 13.6253C12.4179 13.6253 12.3366 13.6092 12.2607 13.5777C12.1848 13.5463 12.1159 13.5003 12.0578 13.4422L10 11.3836L7.94219 13.4422C7.88412 13.5003 7.81518 13.5463 7.73931 13.5777C7.66344 13.6092 7.58213 13.6253 7.5 13.6253C7.41788 13.6253 7.33656 13.6092 7.26069 13.5777C7.18482 13.5463 7.11588 13.5003 7.05782 13.4422C6.99975 13.3841 6.95368 13.3152 6.92226 13.2393C6.89083 13.1634 6.87466 13.0821 6.87466 13C6.87466 12.9179 6.89083 12.8366 6.92226 12.7607C6.95368 12.6848 6.99975 12.6159 7.05782 12.5578L9.11641 10.5L7.05782 8.44219C6.94054 8.32491 6.87466 8.16585 6.87466 8C6.87466 7.83415 6.94054 7.67509 7.05782 7.55781C7.17509 7.44054 7.33415 7.37465 7.5 7.37465C7.66586 7.37465 7.82492 7.44054 7.94219 7.55781L10 9.61641L12.0578 7.55781C12.1159 7.49974 12.1848 7.45368 12.2607 7.42225C12.3366 7.39083 12.4179 7.37465 12.5 7.37465C12.5821 7.37465 12.6634 7.39083 12.7393 7.42225C12.8152 7.45368 12.8841 7.49974 12.9422 7.55781C13.0003 7.61588 13.0463 7.68482 13.0777 7.76069C13.1092 7.83656 13.1254 7.91788 13.1254 8C13.1254 8.08212 13.1092 8.16344 13.0777 8.23931C13.0463 8.31518 13.0003 8.38412 12.9422 8.44219L10.8836 10.5L12.9422 12.5578Z" fill="#697586"/>
</svg>
