<svg width="20" height="20" viewBox="0 0 20 20" fill="none" xmlns="http://www.w3.org/2000/svg">
<path d="M10.8833 10L16.0666 4.81666C16.128 4.75944 16.1773 4.69044 16.2115 4.61378C16.2456 4.53711 16.264 4.45435 16.2655 4.37043C16.2669 4.28651 16.2515 4.20315 16.2201 4.12533C16.1886 4.04751 16.1418 3.97681 16.0825 3.91747C16.0231 3.85812 15.9525 3.81133 15.8746 3.77989C15.7968 3.74846 15.7135 3.73302 15.6295 3.7345C15.5456 3.73598 15.4629 3.75435 15.3862 3.78851C15.3095 3.82267 15.2405 3.87192 15.1833 3.93333L9.99997 9.11666L4.81663 3.93333C4.69815 3.82293 4.54145 3.76283 4.37953 3.76568C4.21761 3.76854 4.06313 3.83413 3.94862 3.94864C3.83411 4.06315 3.76851 4.21764 3.76565 4.37956C3.7628 4.54148 3.8229 4.69818 3.9333 4.81666L9.11559 10L3.9333 15.1833C3.87189 15.2406 3.82264 15.3096 3.78848 15.3862C3.75432 15.4629 3.73595 15.5456 3.73447 15.6296C3.73299 15.7135 3.74843 15.7968 3.77986 15.8747C3.8113 15.9525 3.85809 16.0232 3.91743 16.0825C3.97678 16.1419 4.04748 16.1887 4.1253 16.2201C4.20312 16.2515 4.28648 16.267 4.3704 16.2655C4.45432 16.264 4.53708 16.2456 4.61375 16.2115C4.69041 16.1773 4.75941 16.1281 4.81663 16.0667L9.99997 10.8844L15.1833 16.0667C15.3005 16.1837 15.4593 16.2494 15.625 16.2494C15.7906 16.2494 15.9494 16.1837 16.0666 16.0667C16.1837 15.9495 16.2494 15.7906 16.2494 15.625C16.2494 15.4594 16.1837 15.3005 16.0666 15.1833L10.8833 10Z" fill="#666666"/>
</svg>
