<svg width="20" height="20" viewBox="0 0 20 20" fill="none" xmlns="http://www.w3.org/2000/svg">
<path d="M10.8834 10L16.0667 4.81666C16.1281 4.75944 16.1774 4.69044 16.2115 4.61378C16.2457 4.53711 16.264 4.45435 16.2655 4.37043C16.267 4.28651 16.2516 4.20315 16.2201 4.12533C16.1887 4.04751 16.1419 3.97681 16.0826 3.91747C16.0232 3.85812 15.9525 3.81133 15.8747 3.77989C15.7969 3.74846 15.7135 3.73302 15.6296 3.7345C15.5457 3.73598 15.4629 3.75435 15.3862 3.78851C15.3096 3.82267 15.2406 3.87192 15.1834 3.93333L10 9.11666L4.81669 3.93333C4.69821 3.82293 4.54151 3.76283 4.37959 3.76568C4.21767 3.76854 4.06319 3.83413 3.94868 3.94864C3.83417 4.06315 3.76857 4.21764 3.76572 4.37956C3.76286 4.54148 3.82296 4.69818 3.93336 4.81666L9.11565 10L3.93336 15.1833C3.87196 15.2405 3.8227 15.3095 3.78854 15.3862C3.75438 15.4629 3.73601 15.5456 3.73453 15.6296C3.73305 15.7135 3.74849 15.7968 3.77993 15.8747C3.81136 15.9525 3.85815 16.0232 3.9175 16.0825C3.97684 16.1419 4.04754 16.1887 4.12536 16.2201C4.20319 16.2515 4.28654 16.267 4.37046 16.2655C4.45438 16.264 4.53714 16.2456 4.61381 16.2115C4.69047 16.1773 4.75947 16.1281 4.81669 16.0667L10 10.8844L15.1834 16.0667C15.3005 16.1837 15.4594 16.2494 15.625 16.2494C15.7907 16.2494 15.9495 16.1837 16.0667 16.0667C16.1837 15.9495 16.2495 15.7906 16.2495 15.625C16.2495 15.4594 16.1837 15.3005 16.0667 15.1833L10.8834 10Z" fill="#666666"/>
</svg>
